<svg xmlns="http://www.w3.org/2000/svg" width="1366" height="588"><g transform="translate(86.83333333333334, 101.83333333333334)"><g transform="scale(1.5, 1.5)"><path d="m0.5 14.5 L 0.5 10.5 A 4 4 90 0 1 4.5 6.5 L 8.5 6.5 L 13.5 0.5 L 18.5 6.5 L 27.5 6.5 L 57.5 6.5 L 61.5 6.5 A 4 4 90 0 1 65.5 10.5 L 65.5 14.5 L 65.5 18.5 L 65.5 22.5 A 4 4 90 0 1 61.5 26.5 L 57.5 26.5 L 27.5 26.5 L 26.5 26.5 L 26.5 28.5 L 18.5 28.5 L 18.5 26.5 L 17.5 26.5 L 13.5 26.5 A 5 5 90 0 0 8.5 31.5 L 8.5 35.5 L 8.5 39.5 L 8.5 165.5 L 8.5 169.5 A 5 5 90 0 0 13.5 174.5 L 17.5 174.5 L 17.5 176.5 L 27.5 176.5 L 27.5 174.5 L 35.5 174.5 L 35.5 180.5 L 35.5 186.5 L 35.5 190.5 A 4 4 90 0 1 31.5 194.5 L 27.5 194.5 L 18.5 194.5 L 13.5 200.5 L 8.5 194.5 L 4.5 194.5 A 4 4 90 0 1 0.5 190.5 L 0.5 186.5 z" style="fill:#ffdf37;fill-opacity:1;stroke:#644300;stroke-width:1;stroke-linecap:round;stroke-opacity:1;" /><text style="font-size:10px;fill:#000000;font-family:sans-serif;text-anchor:start"><tspan x="5.333333333333333" y="21.5">start</tspan></text></g></g><g transform="translate(102.5, 198.75)"><g transform="scale(1.5, 1.5)"><path d="m0.5 8.5 L 0.5 4.5 A 4 4 90 0 1 4.5 0.5 L 8.5 0.5 L 8.5 2.5 L 18.5 2.5 L 18.5 0.5 L 48.5 0.5 L 52.5 0.5 A 4 4 90 0 1 56.5 4.5 L 56.5 8.5 L 52.5 8.5 L 52.5 5.5 L 48.5 5.5 L 48.5 15.5 L 52.5 15.5 L 52.5 12.5 L 56.5 12.5 L 56.5 16.5 A 4 4 90 0 1 52.5 20.5 L 48.5 20.5 L 18.5 20.5 L 17.5 20.5 L 17.5 22.5 L 9.5 22.5 L 9.5 20.5 L 8.5 20.5 L 4.5 20.5 A 4 4 90 0 1 0.5 16.5 L 0.5 12.5 L 0.5 8.5 z" style="fill:#88e20a;fill-opacity:1;stroke:#004100;stroke-width:1;stroke-linecap:round;stroke-opacity:1;" /><text style="font-size:10px;fill:#000000;font-family:sans-serif;text-anchor:end"><tspan x="46.333333333333336" y="13.5">right</tspan></text><text style="font-size:6.666666666666667px;fill:#000000;font-family:sans-serif;text-anchor:end"><tspan x="46.333333333333336" y="11.25"></tspan></text></g></g><g transform="translate(176, 198.75)"><g transform="scale(1.5, 1.5)"><path d="m8.5 0.5 L 68.5 0.5 L 68.5 20.5 L 8.5 20.5 L 8.5 12.5 L 8.5 11.5 L 2.5 11.5 L 2.5 14.5 L 0.5 14.5 L 0.5 6.5 L 2.5 6.5 L 2.5 9.5 L 8.5 9.5 L 8.5 8.5 z" style="fill:#ff9db5;fill-opacity:1;stroke:#73003b;stroke-width:1;stroke-linecap:round;stroke-opacity:1;" /><text style="font-size:10px;fill:#000000;font-family:sans-serif;text-anchor:start"><tspan x="13.333333333333334" y="13.833333333333334">45</tspan></text></g></g><g transform="translate(102.5, 230.25)"><g transform="scale(1.5, 1.5)"><path d="m0.5 8.5 L 0.5 4.5 A 4 4 90 0 1 4.5 0.5 L 8.5 0.5 L 8.5 2.5 L 18.5 2.5 L 18.5 0.5 L 51.8447265625 0.5 L 55.8447265625 0.5 A 4 4 90 0 1 59.8447265625 4.5 L 59.8447265625 8.5 L 55.8447265625 8.5 L 55.8447265625 5.5 L 51.8447265625 5.5 L 51.8447265625 15.5 L 55.8447265625 15.5 L 55.8447265625 12.5 L 59.8447265625 12.5 L 59.8447265625 16.5 A 4 4 90 0 1 55.8447265625 20.5 L 51.8447265625 20.5 L 18.5 20.5 L 17.5 20.5 L 17.5 22.5 L 9.5 22.5 L 9.5 20.5 L 8.5 20.5 L 4.5 20.5 A 4 4 90 0 1 0.5 16.5 L 0.5 12.5 L 0.5 8.5 z" style="fill:#88e20a;fill-opacity:1;stroke:#004100;stroke-width:1;stroke-linecap:round;stroke-opacity:1;" /><text style="font-size:10px;fill:#000000;font-family:sans-serif;text-anchor:end"><tspan x="49.678059895833336" y="13.5">forward</tspan></text><text style="font-size:6.666666666666667px;fill:#000000;font-family:sans-serif;text-anchor:end"><tspan x="49.678059895833336" y="11.25"></tspan></text></g></g><g transform="translate(181.01708984375, 230.25)"><g transform="scale(1.5, 1.5)"><path d="m8.5 0.5 L 68.5 0.5 L 68.5 20.5 L 8.5 20.5 L 8.5 12.5 L 8.5 11.5 L 2.5 11.5 L 2.5 14.5 L 0.5 14.5 L 0.5 6.5 L 2.5 6.5 L 2.5 9.5 L 8.5 9.5 L 8.5 8.5 z" style="fill:#ff9db5;fill-opacity:1;stroke:#73003b;stroke-width:1;stroke-linecap:round;stroke-opacity:1;" /><text style="font-size:10px;fill:#000000;font-family:sans-serif;text-anchor:start"><tspan x="13.333333333333334" y="13.833333333333334">50</tspan></text></g></g><g transform="translate(102.5, 261.75)"><g transform="scale(1.5, 1.5)"><path d="m0.5 8.5 L 0.5 4.5 A 4 4 90 0 1 4.5 0.5 L 8.5 0.5 L 8.5 2.5 L 18.5 2.5 L 18.5 0.5 L 48.5 0.5 L 52.5 0.5 A 4 4 90 0 1 56.5 4.5 L 56.5 8.5 L 52.5 8.5 L 52.5 5.5 L 48.5 5.5 L 48.5 15.5 L 52.5 15.5 L 52.5 12.5 L 56.5 12.5 L 56.5 16.5 A 4 4 90 0 1 52.5 20.5 L 48.5 20.5 L 18.5 20.5 L 17.5 20.5 L 17.5 22.5 L 9.5 22.5 L 9.5 20.5 L 8.5 20.5 L 4.5 20.5 A 4 4 90 0 1 0.5 16.5 L 0.5 12.5 L 0.5 8.5 z" style="fill:#88e20a;fill-opacity:1;stroke:#004100;stroke-width:1;stroke-linecap:round;stroke-opacity:1;" /><text style="font-size:10px;fill:#000000;font-family:sans-serif;text-anchor:end"><tspan x="46.333333333333336" y="13.5">right</tspan></text><text style="font-size:6.666666666666667px;fill:#000000;font-family:sans-serif;text-anchor:end"><tspan x="46.333333333333336" y="11.25"></tspan></text></g></g><g transform="translate(176, 261.75)"><g transform="scale(1.5, 1.5)"><path d="m8.5 0.5 L 68.5 0.5 L 68.5 20.5 L 8.5 20.5 L 8.5 12.5 L 8.5 11.5 L 2.5 11.5 L 2.5 14.5 L 0.5 14.5 L 0.5 6.5 L 2.5 6.5 L 2.5 9.5 L 8.5 9.5 L 8.5 8.5 z" style="fill:#ff9db5;fill-opacity:1;stroke:#73003b;stroke-width:1;stroke-linecap:round;stroke-opacity:1;" /><text style="font-size:10px;fill:#000000;font-family:sans-serif;text-anchor:start"><tspan x="13.333333333333334" y="13.833333333333334">45</tspan></text></g></g><g transform="translate(102.5, 293.25)"><g transform="scale(1.5, 1.5)"><path d="m0.5 8.5 L 0.5 4.5 A 4 4 90 0 1 4.5 0.5 L 8.5 0.5 L 8.5 2.5 L 18.5 2.5 L 18.5 0.5 L 51.8447265625 0.5 L 55.8447265625 0.5 A 4 4 90 0 1 59.8447265625 4.5 L 59.8447265625 8.5 L 55.8447265625 8.5 L 55.8447265625 5.5 L 51.8447265625 5.5 L 51.8447265625 15.5 L 55.8447265625 15.5 L 55.8447265625 12.5 L 59.8447265625 12.5 L 59.8447265625 16.5 A 4 4 90 0 1 55.8447265625 20.5 L 51.8447265625 20.5 L 18.5 20.5 L 17.5 20.5 L 17.5 22.5 L 9.5 22.5 L 9.5 20.5 L 8.5 20.5 L 4.5 20.5 A 4 4 90 0 1 0.5 16.5 L 0.5 12.5 L 0.5 8.5 z" style="fill:#88e20a;fill-opacity:1;stroke:#004100;stroke-width:1;stroke-linecap:round;stroke-opacity:1;" /><text style="font-size:10px;fill:#000000;font-family:sans-serif;text-anchor:end"><tspan x="49.678059895833336" y="13.5">forward</tspan></text><text style="font-size:6.666666666666667px;fill:#000000;font-family:sans-serif;text-anchor:end"><tspan x="49.678059895833336" y="11.25"></tspan></text></g></g><g transform="translate(181.01708984375, 293.25)"><g transform="scale(1.5, 1.5)"><path d="m8.5 0.5 L 68.5 0.5 L 68.5 20.5 L 8.5 20.5 L 8.5 12.5 L 8.5 11.5 L 2.5 11.5 L 2.5 14.5 L 0.5 14.5 L 0.5 6.5 L 2.5 6.5 L 2.5 9.5 L 8.5 9.5 L 8.5 8.5 z" style="fill:#ff9db5;fill-opacity:1;stroke:#73003b;stroke-width:1;stroke-linecap:round;stroke-opacity:1;" /><text style="font-size:10px;fill:#000000;font-family:sans-serif;text-anchor:start"><tspan x="13.333333333333334" y="13.833333333333334">200</tspan></text></g></g><g transform="translate(102.5, 324.75)"><g transform="scale(1.5, 1.5)"><path d="m0.5 8.5 L 0.5 4.5 A 4 4 90 0 1 4.5 0.5 L 8.5 0.5 L 8.5 2.5 L 18.5 2.5 L 18.5 0.5 L 48.5 0.5 L 52.5 0.5 A 4 4 90 0 1 56.5 4.5 L 56.5 8.5 L 52.5 8.5 L 52.5 5.5 L 48.5 5.5 L 48.5 15.5 L 52.5 15.5 L 52.5 12.5 L 56.5 12.5 L 56.5 16.5 A 4 4 90 0 1 52.5 20.5 L 48.5 20.5 L 18.5 20.5 L 17.5 20.5 L 17.5 22.5 L 9.5 22.5 L 9.5 20.5 L 8.5 20.5 L 4.5 20.5 A 4 4 90 0 1 0.5 16.5 L 0.5 12.5 L 0.5 8.5 z" style="fill:#88e20a;fill-opacity:1;stroke:#004100;stroke-width:1;stroke-linecap:round;stroke-opacity:1;" /><text style="font-size:10px;fill:#000000;font-family:sans-serif;text-anchor:end"><tspan x="46.333333333333336" y="13.5">right</tspan></text><text style="font-size:6.666666666666667px;fill:#000000;font-family:sans-serif;text-anchor:end"><tspan x="46.333333333333336" y="11.25"></tspan></text></g></g><g transform="translate(176, 324.75)"><g transform="scale(1.5, 1.5)"><path d="m8.5 0.5 L 68.5 0.5 L 68.5 20.5 L 8.5 20.5 L 8.5 12.5 L 8.5 11.5 L 2.5 11.5 L 2.5 14.5 L 0.5 14.5 L 0.5 6.5 L 2.5 6.5 L 2.5 9.5 L 8.5 9.5 L 8.5 8.5 z" style="fill:#ff9db5;fill-opacity:1;stroke:#73003b;stroke-width:1;stroke-linecap:round;stroke-opacity:1;" /><text style="font-size:10px;fill:#000000;font-family:sans-serif;text-anchor:start"><tspan x="13.333333333333334" y="13.833333333333334">90</tspan></text></g></g><g transform="translate(102.5, 356.25)"><g transform="scale(1.5, 1.5)"><path d="m0.5 8.5 L 0.5 4.5 A 4 4 90 0 1 4.5 0.5 L 8.5 0.5 L 8.5 2.5 L 18.5 2.5 L 18.5 0.5 L 51.8447265625 0.5 L 55.8447265625 0.5 A 4 4 90 0 1 59.8447265625 4.5 L 59.8447265625 8.5 L 55.8447265625 8.5 L 55.8447265625 5.5 L 51.8447265625 5.5 L 51.8447265625 15.5 L 55.8447265625 15.5 L 55.8447265625 12.5 L 59.8447265625 12.5 L 59.8447265625 16.5 A 4 4 90 0 1 55.8447265625 20.5 L 51.8447265625 20.5 L 18.5 20.5 L 17.5 20.5 L 17.5 22.5 L 9.5 22.5 L 9.5 20.5 L 8.5 20.5 L 4.5 20.5 A 4 4 90 0 1 0.5 16.5 L 0.5 12.5 L 0.5 8.5 z" style="fill:#88e20a;fill-opacity:1;stroke:#004100;stroke-width:1;stroke-linecap:round;stroke-opacity:1;" /><text style="font-size:10px;fill:#000000;font-family:sans-serif;text-anchor:end"><tspan x="49.678059895833336" y="13.5">forward</tspan></text><text style="font-size:6.666666666666667px;fill:#000000;font-family:sans-serif;text-anchor:end"><tspan x="49.678059895833336" y="11.25"></tspan></text></g></g><g transform="translate(181.01708984375, 356.25)"><g transform="scale(1.5, 1.5)"><path d="m8.5 0.5 L 68.5 0.5 L 68.5 20.5 L 8.5 20.5 L 8.5 12.5 L 8.5 11.5 L 2.5 11.5 L 2.5 14.5 L 0.5 14.5 L 0.5 6.5 L 2.5 6.5 L 2.5 9.5 L 8.5 9.5 L 8.5 8.5 z" style="fill:#ff9db5;fill-opacity:1;stroke:#73003b;stroke-width:1;stroke-linecap:round;stroke-opacity:1;" /><text style="font-size:10px;fill:#000000;font-family:sans-serif;text-anchor:start"><tspan x="13.333333333333334" y="13.833333333333334">200</tspan></text></g></g><g transform="translate(100.33333333333334, 173.83333333333334)"><g transform="scale(1.5, 1.5)"><path d="m0.5 8.5 L 0.5 4.5 A 4 4 90 0 1 4.5 0.5 L 8.5 0.5 L 8.5 2.5 L 18.5 2.5 L 18.5 0.5 L 27.5 0.5 L 47.5 0.5 L 51.5 0.5 A 4 4 90 0 1 55.5 4.5 L 55.5 8.5 L 51.5 8.5 L 51.5 5.5 L 47.5 5.5 L 47.5 15.5 L 51.5 15.5 L 51.5 12.5 L 55.5 12.5 L 55.5 16.5 A 4 4 90 0 1 51.5 20.5 L 47.5 20.5 L 27.5 20.5 L 26.5 20.5 L 26.5 22.5 L 18.5 22.5 L 18.5 20.5 L 17.5 20.5 L 13.5 20.5 A 5 5 90 0 0 8.5 25.5 L 8.5 29.5 L 8.5 33.5 L 8.5 37.5 A 5 5 90 0 0 13.5 42.5 L 17.5 42.5 L 17.5 44.5 L 27.5 44.5 L 27.5 42.5 L 35.5 42.5 L 35.5 48.5 L 35.5 54.5 L 35.5 58.5 A 4 4 90 0 1 31.5 62.5 L 27.5 62.5 L 18.5 62.5 L 17.5 62.5 L 17.5 64.5 L 9.5 64.5 L 9.5 62.5 L 8.5 62.5 L 4.5 62.5 A 4 4 90 0 1 0.5 58.5 L 0.5 54.5 z" style="fill:#ff9404;fill-opacity:1;stroke:#3f0a00;stroke-width:1;stroke-linecap:round;stroke-opacity:1;" /><text style="font-size:10px;fill:#000000;font-family:sans-serif;text-anchor:start"><tspan x="5.333333333333333" y="15.25">repeat</tspan></text><text style="font-size:6.666666666666667px;fill:#000000;font-family:sans-serif;text-anchor:end"><tspan x="45.333333333333336" y="11.25"></tspan></text></g></g><g transform="translate(172.33333333333334, 173.83333333333334)"><g transform="scale(1.5, 1.5)"><path d="m8.5 0.5 L 68.5 0.5 L 68.5 20.5 L 8.5 20.5 L 8.5 12.5 L 8.5 11.5 L 2.5 11.5 L 2.5 14.5 L 0.5 14.5 L 0.5 6.5 L 2.5 6.5 L 2.5 9.5 L 8.5 9.5 L 8.5 8.5 z" style="fill:#ff9db5;fill-opacity:1;stroke:#73003b;stroke-width:1;stroke-linecap:round;stroke-opacity:1;" /><text style="font-size:10px;fill:#000000;font-family:sans-serif;text-anchor:start"><tspan x="13.333333333333334" y="13.833333333333334">2</tspan></text></g></g><g transform="translate(220, 101)"><g transform="scale(1.5, 1.5)"><path d="m0.5 14.5 L 0.5 10.5 A 4 4 90 0 1 4.5 6.5 L 8.5 6.5 L 13.5 0.5 L 18.5 6.5 L 27.5 6.5 L 57.5 6.5 L 61.5 6.5 A 4 4 90 0 1 65.5 10.5 L 65.5 14.5 L 65.5 18.5 L 65.5 22.5 A 4 4 90 0 1 61.5 26.5 L 57.5 26.5 L 27.5 26.5 L 26.5 26.5 L 26.5 28.5 L 18.5 28.5 L 18.5 26.5 L 17.5 26.5 L 13.5 26.5 A 5 5 90 0 0 8.5 31.5 L 8.5 35.5 L 8.5 39.5 L 8.5 123.5 L 8.5 127.5 A 5 5 90 0 0 13.5 132.5 L 17.5 132.5 L 17.5 134.5 L 27.5 134.5 L 27.5 132.5 L 35.5 132.5 L 35.5 138.5 L 35.5 144.5 L 35.5 148.5 A 4 4 90 0 1 31.5 152.5 L 27.5 152.5 L 18.5 152.5 L 13.5 158.5 L 8.5 152.5 L 4.5 152.5 A 4 4 90 0 1 0.5 148.5 L 0.5 144.5 z" style="fill:#ffdf37;fill-opacity:1;stroke:#644300;stroke-width:1;stroke-linecap:round;stroke-opacity:1;" /><text style="font-size:10px;fill:#000000;font-family:sans-serif;text-anchor:start"><tspan x="5.333333333333333" y="21.5">start</tspan></text></g></g><g transform="translate(89, 158.25)"><g transform="scale(1.5, 1.5)"><path d="m0.5 14.5 L 0.5 10.5 A 4 4 90 0 1 4.5 6.5 L 8.5 6.5 L 13.5 0.5 L 18.5 6.5 L 27.5 6.5 L 62.5 6.5 L 66.5 6.5 A 4 4 90 0 1 70.5 10.5 L 70.5 14.5 L 66.5 14.5 L 66.5 11.5 L 62.5 11.5 L 62.5 21.5 L 66.5 21.5 L 66.5 18.5 L 70.5 18.5 L 70.5 22.5 A 4 4 90 0 1 66.5 26.5 L 62.5 26.5 L 27.5 26.5 L 26.5 26.5 L 26.5 28.5 L 18.5 28.5 L 18.5 26.5 L 17.5 26.5 L 13.5 26.5 A 5 5 90 0 0 8.5 31.5 L 8.5 35.5 L 8.5 39.5 L 8.5 144.5 L 8.5 148.5 A 5 5 90 0 0 13.5 153.5 L 17.5 153.5 L 17.5 155.5 L 27.5 155.5 L 27.5 153.5 L 35.5 153.5 L 35.5 159.5 L 35.5 165.5 L 35.5 169.5 A 4 4 90 0 1 31.5 173.5 L 27.5 173.5 L 18.5 173.5 L 13.5 179.5 L 8.5 173.5 L 4.5 173.5 A 4 4 90 0 1 0.5 169.5 L 0.5 165.5 z" style="fill:#ffdf37;fill-opacity:1;stroke:#644300;stroke-width:1;stroke-linecap:round;stroke-opacity:1;" /><text style="font-size:10px;fill:#000000;font-family:sans-serif;text-anchor:start"><tspan x="5.333333333333333" y="21.5">action</tspan></text><text style="font-size:6.666666666666667px;fill:#000000;font-family:sans-serif;text-anchor:end"><tspan x="60.333333333333336" y="5.25"></tspan></text></g></g><g transform="translate(183.5, 167.25)"><g transform="scale(1.5, 1.5)"><path d="m8.5 0.5 L 68.5 0.5 L 68.5 20.5 L 8.5 20.5 L 8.5 12.5 L 8.5 11.5 L 2.5 11.5 L 2.5 14.5 L 0.5 14.5 L 0.5 6.5 L 2.5 6.5 L 2.5 9.5 L 8.5 9.5 L 8.5 8.5 z" style="fill:#47e0db;fill-opacity:1;stroke:#003e47;stroke-width:1;stroke-linecap:round;stroke-opacity:1;" /><text style="font-size:10px;fill:#000000;font-family:sans-serif;text-anchor:start"><tspan x="13.333333333333334" y="13.833333333333334">one</tspan></text></g></g><g transform="translate(233.5, 173)"><g transform="scale(1.5, 1.5)"><path d="m0.5 8.5 L 0.5 4.5 A 4 4 90 0 1 4.5 0.5 L 8.5 0.5 L 8.5 2.5 L 18.5 2.5 L 18.5 0.5 L 58.5 0.5 L 62.5 0.5 A 4 4 90 0 1 66.5 4.5 L 66.5 8.5 L 66.5 12.5 L 66.5 16.5 A 4 4 90 0 1 62.5 20.5 L 58.5 20.5 L 18.5 20.5 L 17.5 20.5 L 17.5 22.5 L 9.5 22.5 L 9.5 20.5 L 8.5 20.5 L 4.5 20.5 A 4 4 90 0 1 0.5 16.5 L 0.5 12.5 z" style="fill:#ffdf37;fill-opacity:1;stroke:#644300;stroke-width:1;stroke-linecap:round;stroke-opacity:1;" /><text style="font-size:10px;fill:#000000;font-family:sans-serif;text-anchor:end"><tspan x="56.333333333333336" y="13.5">one</tspan></text></g></g><g transform="translate(113.83333333333334, 205.33333333333334)"><g transform="scale(1.5, 1.5)"><path d="m0.5 8.5 L 0.5 4.5 A 4 4 90 0 1 4.5 0.5 L 8.5 0.5 L 8.5 2.5 L 18.5 2.5 L 18.5 0.5 L 58.5 0.5 L 62.5 0.5 A 4 4 90 0 1 66.5 4.5 L 66.5 8.5 L 66.5 12.5 L 66.5 16.5 A 4 4 90 0 1 62.5 20.5 L 58.5 20.5 L 18.5 20.5 L 17.5 20.5 L 17.5 22.5 L 9.5 22.5 L 9.5 20.5 L 8.5 20.5 L 4.5 20.5 A 4 4 90 0 1 0.5 16.5 L 0.5 12.5 z" style="fill:#ffdf37;fill-opacity:1;stroke:#644300;stroke-width:1;stroke-linecap:round;stroke-opacity:1;" /><text style="font-size:10px;fill:#000000;font-family:sans-serif;text-anchor:end"><tspan x="56.333333333333336" y="13.5">one</tspan></text></g></g><g transform="translate(103.5, 249.5)"><g transform="scale(1.5, 1.5)"><path d="m0.5 8.5 L 0.5 4.5 A 4 4 90 0 1 4.5 0.5 L 8.5 0.5 L 8.5 2.5 L 18.5 2.5 L 18.5 0.5 L 48.5 0.5 L 52.5 0.5 A 4 4 90 0 1 56.5 4.5 L 56.5 8.5 L 52.5 8.5 L 52.5 5.5 L 48.5 5.5 L 48.5 15.5 L 52.5 15.5 L 52.5 12.5 L 56.5 12.5 L 56.5 16.5 A 4 4 90 0 1 52.5 20.5 L 48.5 20.5 L 18.5 20.5 L 17.5 20.5 L 17.5 22.5 L 9.5 22.5 L 9.5 20.5 L 8.5 20.5 L 4.5 20.5 A 4 4 90 0 1 0.5 16.5 L 0.5 12.5 L 0.5 8.5 z" style="fill:#88e20a;fill-opacity:1;stroke:#004100;stroke-width:1;stroke-linecap:round;stroke-opacity:1;" /><text style="font-size:10px;fill:#000000;font-family:sans-serif;text-anchor:end"><tspan x="46.333333333333336" y="13.5">right</tspan></text><text style="font-size:6.666666666666667px;fill:#000000;font-family:sans-serif;text-anchor:end"><tspan x="46.333333333333336" y="11.25"></tspan></text></g></g><g transform="translate(177, 249.5)"><g transform="scale(1.5, 1.5)"><path d="m8.5 0.5 L 68.5 0.5 L 68.5 20.5 L 8.5 20.5 L 8.5 12.5 L 8.5 11.5 L 2.5 11.5 L 2.5 14.5 L 0.5 14.5 L 0.5 6.5 L 2.5 6.5 L 2.5 9.5 L 8.5 9.5 L 8.5 8.5 z" style="fill:#ff9db5;fill-opacity:1;stroke:#73003b;stroke-width:1;stroke-linecap:round;stroke-opacity:1;" /><text style="font-size:10px;fill:#000000;font-family:sans-serif;text-anchor:start"><tspan x="13.333333333333334" y="13.833333333333334">45</tspan></text></g></g><g transform="translate(103.5, 281)"><g transform="scale(1.5, 1.5)"><path d="m0.5 8.5 L 0.5 4.5 A 4 4 90 0 1 4.5 0.5 L 8.5 0.5 L 8.5 2.5 L 18.5 2.5 L 18.5 0.5 L 51.8447265625 0.5 L 55.8447265625 0.5 A 4 4 90 0 1 59.8447265625 4.5 L 59.8447265625 8.5 L 55.8447265625 8.5 L 55.8447265625 5.5 L 51.8447265625 5.5 L 51.8447265625 15.5 L 55.8447265625 15.5 L 55.8447265625 12.5 L 59.8447265625 12.5 L 59.8447265625 16.5 A 4 4 90 0 1 55.8447265625 20.5 L 51.8447265625 20.5 L 18.5 20.5 L 17.5 20.5 L 17.5 22.5 L 9.5 22.5 L 9.5 20.5 L 8.5 20.5 L 4.5 20.5 A 4 4 90 0 1 0.5 16.5 L 0.5 12.5 L 0.5 8.5 z" style="fill:#88e20a;fill-opacity:1;stroke:#004100;stroke-width:1;stroke-linecap:round;stroke-opacity:1;" /><text style="font-size:10px;fill:#000000;font-family:sans-serif;text-anchor:end"><tspan x="49.678059895833336" y="13.5">forward</tspan></text><text style="font-size:6.666666666666667px;fill:#000000;font-family:sans-serif;text-anchor:end"><tspan x="49.678059895833336" y="11.25"></tspan></text></g></g><g transform="translate(182.01708984375, 281)"><g transform="scale(1.5, 1.5)"><path d="m8.5 0.5 L 68.5 0.5 L 68.5 20.5 L 8.5 20.5 L 8.5 12.5 L 8.5 11.5 L 2.5 11.5 L 2.5 14.5 L 0.5 14.5 L 0.5 6.5 L 2.5 6.5 L 2.5 9.5 L 8.5 9.5 L 8.5 8.5 z" style="fill:#ff9db5;fill-opacity:1;stroke:#73003b;stroke-width:1;stroke-linecap:round;stroke-opacity:1;" /><text style="font-size:10px;fill:#000000;font-family:sans-serif;text-anchor:start"><tspan x="13.333333333333334" y="13.833333333333334">50</tspan></text></g></g><g transform="translate(103.5, 312.5)"><g transform="scale(1.5, 1.5)"><path d="m0.5 8.5 L 0.5 4.5 A 4 4 90 0 1 4.5 0.5 L 8.5 0.5 L 8.5 2.5 L 18.5 2.5 L 18.5 0.5 L 48.5 0.5 L 52.5 0.5 A 4 4 90 0 1 56.5 4.5 L 56.5 8.5 L 52.5 8.5 L 52.5 5.5 L 48.5 5.5 L 48.5 15.5 L 52.5 15.5 L 52.5 12.5 L 56.5 12.5 L 56.5 16.5 A 4 4 90 0 1 52.5 20.5 L 48.5 20.5 L 18.5 20.5 L 17.5 20.5 L 17.5 22.5 L 9.5 22.5 L 9.5 20.5 L 8.5 20.5 L 4.5 20.5 A 4 4 90 0 1 0.5 16.5 L 0.5 12.5 L 0.5 8.5 z" style="fill:#88e20a;fill-opacity:1;stroke:#004100;stroke-width:1;stroke-linecap:round;stroke-opacity:1;" /><text style="font-size:10px;fill:#000000;font-family:sans-serif;text-anchor:end"><tspan x="46.333333333333336" y="13.5">right</tspan></text><text style="font-size:6.666666666666667px;fill:#000000;font-family:sans-serif;text-anchor:end"><tspan x="46.333333333333336" y="11.25"></tspan></text></g></g><g transform="translate(177, 312.5)"><g transform="scale(1.5, 1.5)"><path d="m8.5 0.5 L 68.5 0.5 L 68.5 20.5 L 8.5 20.5 L 8.5 12.5 L 8.5 11.5 L 2.5 11.5 L 2.5 14.5 L 0.5 14.5 L 0.5 6.5 L 2.5 6.5 L 2.5 9.5 L 8.5 9.5 L 8.5 8.5 z" style="fill:#ff9db5;fill-opacity:1;stroke:#73003b;stroke-width:1;stroke-linecap:round;stroke-opacity:1;" /><text style="font-size:10px;fill:#000000;font-family:sans-serif;text-anchor:start"><tspan x="13.333333333333334" y="13.833333333333334">135</tspan></text></g></g><g transform="translate(103.5, 344)"><g transform="scale(1.5, 1.5)"><path d="m0.5 8.5 L 0.5 4.5 A 4 4 90 0 1 4.5 0.5 L 8.5 0.5 L 8.5 2.5 L 18.5 2.5 L 18.5 0.5 L 51.8447265625 0.5 L 55.8447265625 0.5 A 4 4 90 0 1 59.8447265625 4.5 L 59.8447265625 8.5 L 55.8447265625 8.5 L 55.8447265625 5.5 L 51.8447265625 5.5 L 51.8447265625 15.5 L 55.8447265625 15.5 L 55.8447265625 12.5 L 59.8447265625 12.5 L 59.8447265625 16.5 A 4 4 90 0 1 55.8447265625 20.5 L 51.8447265625 20.5 L 18.5 20.5 L 17.5 20.5 L 17.5 22.5 L 9.5 22.5 L 9.5 20.5 L 8.5 20.5 L 4.5 20.5 A 4 4 90 0 1 0.5 16.5 L 0.5 12.5 L 0.5 8.5 z" style="fill:#88e20a;fill-opacity:1;stroke:#004100;stroke-width:1;stroke-linecap:round;stroke-opacity:1;" /><text style="font-size:10px;fill:#000000;font-family:sans-serif;text-anchor:end"><tspan x="49.678059895833336" y="13.5">forward</tspan></text><text style="font-size:6.666666666666667px;fill:#000000;font-family:sans-serif;text-anchor:end"><tspan x="49.678059895833336" y="11.25"></tspan></text></g></g><g transform="translate(182.01708984375, 344)"><g transform="scale(1.5, 1.5)"><path d="m8.5 0.5 L 68.5 0.5 L 68.5 20.5 L 8.5 20.5 L 8.5 12.5 L 8.5 11.5 L 2.5 11.5 L 2.5 14.5 L 0.5 14.5 L 0.5 6.5 L 2.5 6.5 L 2.5 9.5 L 8.5 9.5 L 8.5 8.5 z" style="fill:#ff9db5;fill-opacity:1;stroke:#73003b;stroke-width:1;stroke-linecap:round;stroke-opacity:1;" /><text style="font-size:10px;fill:#000000;font-family:sans-serif;text-anchor:start"><tspan x="13.333333333333334" y="13.833333333333334">200</tspan></text></g></g><g transform="translate(90, 209)"><g transform="scale(1.5, 1.5)"><path d="m0.5 14.5 L 0.5 10.5 A 4 4 90 0 1 4.5 6.5 L 8.5 6.5 L 13.5 0.5 L 18.5 6.5 L 27.5 6.5 L 62.5 6.5 L 66.5 6.5 A 4 4 90 0 1 70.5 10.5 L 70.5 14.5 L 66.5 14.5 L 66.5 11.5 L 62.5 11.5 L 62.5 21.5 L 66.5 21.5 L 66.5 18.5 L 70.5 18.5 L 70.5 22.5 A 4 4 90 0 1 66.5 26.5 L 62.5 26.5 L 27.5 26.5 L 26.5 26.5 L 26.5 28.5 L 18.5 28.5 L 18.5 26.5 L 17.5 26.5 L 13.5 26.5 A 5 5 90 0 0 8.5 31.5 L 8.5 35.5 L 8.5 39.5 L 8.5 144.5 L 8.5 148.5 A 5 5 90 0 0 13.5 153.5 L 17.5 153.5 L 17.5 155.5 L 27.5 155.5 L 27.5 153.5 L 35.5 153.5 L 35.5 159.5 L 35.5 165.5 L 35.5 169.5 A 4 4 90 0 1 31.5 173.5 L 27.5 173.5 L 18.5 173.5 L 13.5 179.5 L 8.5 173.5 L 4.5 173.5 A 4 4 90 0 1 0.5 169.5 L 0.5 165.5 z" style="fill:#ffdf37;fill-opacity:1;stroke:#644300;stroke-width:1;stroke-linecap:round;stroke-opacity:1;" /><text style="font-size:10px;fill:#000000;font-family:sans-serif;text-anchor:start"><tspan x="5.333333333333333" y="21.5">action</tspan></text><text style="font-size:6.666666666666667px;fill:#000000;font-family:sans-serif;text-anchor:end"><tspan x="60.333333333333336" y="5.25"></tspan></text></g></g><g transform="translate(184.5, 218)"><g transform="scale(1.5, 1.5)"><path d="m8.5 0.5 L 68.5 0.5 L 68.5 20.5 L 8.5 20.5 L 8.5 12.5 L 8.5 11.5 L 2.5 11.5 L 2.5 14.5 L 0.5 14.5 L 0.5 6.5 L 2.5 6.5 L 2.5 9.5 L 8.5 9.5 L 8.5 8.5 z" style="fill:#47e0db;fill-opacity:1;stroke:#003e47;stroke-width:1;stroke-linecap:round;stroke-opacity:1;" /><text style="font-size:10px;fill:#000000;font-family:sans-serif;text-anchor:start"><tspan x="13.333333333333334" y="13.833333333333334">two</tspan></text></g></g><g transform="translate(100.33333333333334, 268.33333333333337)"><g transform="scale(1.5, 1.5)"><path d="m0.5 8.5 L 0.5 4.5 A 4 4 90 0 1 4.5 0.5 L 8.5 0.5 L 8.5 2.5 L 18.5 2.5 L 18.5 0.5 L 58.5 0.5 L 62.5 0.5 A 4 4 90 0 1 66.5 4.5 L 66.5 8.5 L 66.5 12.5 L 66.5 16.5 A 4 4 90 0 1 62.5 20.5 L 58.5 20.5 L 18.5 20.5 L 17.5 20.5 L 17.5 22.5 L 9.5 22.5 L 9.5 20.5 L 8.5 20.5 L 4.5 20.5 A 4 4 90 0 1 0.5 16.5 L 0.5 12.5 z" style="fill:#ffdf37;fill-opacity:1;stroke:#644300;stroke-width:1;stroke-linecap:round;stroke-opacity:1;" /><text style="font-size:10px;fill:#000000;font-family:sans-serif;text-anchor:end"><tspan x="56.333333333333336" y="13.5">two</tspan></text></g></g><g transform="translate(233.5, 204.5)"><g transform="scale(1.5, 1.5)"><path d="m0.5 8.5 L 0.5 4.5 A 4 4 90 0 1 4.5 0.5 L 8.5 0.5 L 8.5 2.5 L 18.5 2.5 L 18.5 0.5 L 58.5 0.5 L 62.5 0.5 A 4 4 90 0 1 66.5 4.5 L 66.5 8.5 L 66.5 12.5 L 66.5 16.5 A 4 4 90 0 1 62.5 20.5 L 58.5 20.5 L 18.5 20.5 L 17.5 20.5 L 17.5 22.5 L 9.5 22.5 L 9.5 20.5 L 8.5 20.5 L 4.5 20.5 A 4 4 90 0 1 0.5 16.5 L 0.5 12.5 z" style="fill:#ffdf37;fill-opacity:1;stroke:#644300;stroke-width:1;stroke-linecap:round;stroke-opacity:1;" /><text style="font-size:10px;fill:#000000;font-family:sans-serif;text-anchor:end"><tspan x="56.333333333333336" y="13.5">two</tspan></text></g></g><g transform="translate(103.5, 375.5)"><g transform="scale(1.5, 1.5)"><path d="m0.5 8.5 L 0.5 4.5 A 4 4 90 0 1 4.5 0.5 L 8.5 0.5 L 8.5 2.5 L 18.5 2.5 L 18.5 0.5 L 48.5 0.5 L 52.5 0.5 A 4 4 90 0 1 56.5 4.5 L 56.5 8.5 L 52.5 8.5 L 52.5 5.5 L 48.5 5.5 L 48.5 15.5 L 52.5 15.5 L 52.5 12.5 L 56.5 12.5 L 56.5 16.5 A 4 4 90 0 1 52.5 20.5 L 48.5 20.5 L 18.5 20.5 L 17.5 20.5 L 17.5 22.5 L 9.5 22.5 L 9.5 20.5 L 8.5 20.5 L 4.5 20.5 A 4 4 90 0 1 0.5 16.5 L 0.5 12.5 L 0.5 8.5 z" style="fill:#88e20a;fill-opacity:1;stroke:#004100;stroke-width:1;stroke-linecap:round;stroke-opacity:1;" /><text style="font-size:10px;fill:#000000;font-family:sans-serif;text-anchor:end"><tspan x="46.333333333333336" y="13.5">left</tspan></text><text style="font-size:6.666666666666667px;fill:#000000;font-family:sans-serif;text-anchor:end"><tspan x="46.333333333333336" y="11.25"></tspan></text></g></g><g transform="translate(177, 375.5)"><g transform="scale(1.5, 1.5)"><path d="m8.5 0.5 L 68.5 0.5 L 68.5 20.5 L 8.5 20.5 L 8.5 12.5 L 8.5 11.5 L 2.5 11.5 L 2.5 14.5 L 0.5 14.5 L 0.5 6.5 L 2.5 6.5 L 2.5 9.5 L 8.5 9.5 L 8.5 8.5 z" style="fill:#ff9db5;fill-opacity:1;stroke:#73003b;stroke-width:1;stroke-linecap:round;stroke-opacity:1;" /><text style="font-size:10px;fill:#000000;font-family:sans-serif;text-anchor:start"><tspan x="13.333333333333334" y="13.833333333333334">90</tspan></text></g></g><g transform="translate(103.5, 407)"><g transform="scale(1.5, 1.5)"><path d="m0.5 8.5 L 0.5 4.5 A 4 4 90 0 1 4.5 0.5 L 8.5 0.5 L 8.5 2.5 L 18.5 2.5 L 18.5 0.5 L 51.8447265625 0.5 L 55.8447265625 0.5 A 4 4 90 0 1 59.8447265625 4.5 L 59.8447265625 8.5 L 55.8447265625 8.5 L 55.8447265625 5.5 L 51.8447265625 5.5 L 51.8447265625 15.5 L 55.8447265625 15.5 L 55.8447265625 12.5 L 59.8447265625 12.5 L 59.8447265625 16.5 A 4 4 90 0 1 55.8447265625 20.5 L 51.8447265625 20.5 L 18.5 20.5 L 17.5 20.5 L 17.5 22.5 L 9.5 22.5 L 9.5 20.5 L 8.5 20.5 L 4.5 20.5 A 4 4 90 0 1 0.5 16.5 L 0.5 12.5 L 0.5 8.5 z" style="fill:#88e20a;fill-opacity:1;stroke:#004100;stroke-width:1;stroke-linecap:round;stroke-opacity:1;" /><text style="font-size:10px;fill:#000000;font-family:sans-serif;text-anchor:end"><tspan x="49.678059895833336" y="13.5">forward</tspan></text><text style="font-size:6.666666666666667px;fill:#000000;font-family:sans-serif;text-anchor:end"><tspan x="49.678059895833336" y="11.25"></tspan></text></g></g><g transform="translate(182.01708984375, 407)"><g transform="scale(1.5, 1.5)"><path d="m8.5 0.5 L 68.5 0.5 L 68.5 20.5 L 8.5 20.5 L 8.5 12.5 L 8.5 11.5 L 2.5 11.5 L 2.5 14.5 L 0.5 14.5 L 0.5 6.5 L 2.5 6.5 L 2.5 9.5 L 8.5 9.5 L 8.5 8.5 z" style="fill:#ff9db5;fill-opacity:1;stroke:#73003b;stroke-width:1;stroke-linecap:round;stroke-opacity:1;" /><text style="font-size:10px;fill:#000000;font-family:sans-serif;text-anchor:start"><tspan x="13.333333333333334" y="13.833333333333334">135</tspan></text></g></g><g transform="translate(91, 261.25)"><g transform="scale(1.5, 1.5)"><path d="m0.5 14.5 L 0.5 10.5 A 4 4 90 0 1 4.5 6.5 L 8.5 6.5 L 13.5 0.5 L 18.5 6.5 L 27.5 6.5 L 62.5 6.5 L 66.5 6.5 A 4 4 90 0 1 70.5 10.5 L 70.5 14.5 L 66.5 14.5 L 66.5 11.5 L 62.5 11.5 L 62.5 21.5 L 66.5 21.5 L 66.5 18.5 L 70.5 18.5 L 70.5 22.5 A 4 4 90 0 1 66.5 26.5 L 62.5 26.5 L 27.5 26.5 L 26.5 26.5 L 26.5 28.5 L 18.5 28.5 L 18.5 26.5 L 17.5 26.5 L 13.5 26.5 A 5 5 90 0 0 8.5 31.5 L 8.5 35.5 L 8.5 39.5 L 8.5 102.5 L 8.5 106.5 A 5 5 90 0 0 13.5 111.5 L 17.5 111.5 L 17.5 113.5 L 27.5 113.5 L 27.5 111.5 L 35.5 111.5 L 35.5 117.5 L 35.5 123.5 L 35.5 127.5 A 4 4 90 0 1 31.5 131.5 L 27.5 131.5 L 18.5 131.5 L 13.5 137.5 L 8.5 131.5 L 4.5 131.5 A 4 4 90 0 1 0.5 127.5 L 0.5 123.5 z" style="fill:#ffdf37;fill-opacity:1;stroke:#644300;stroke-width:1;stroke-linecap:round;stroke-opacity:1;" /><text style="font-size:10px;fill:#000000;font-family:sans-serif;text-anchor:start"><tspan x="5.333333333333333" y="21.5">action</tspan></text><text style="font-size:6.666666666666667px;fill:#000000;font-family:sans-serif;text-anchor:end"><tspan x="60.333333333333336" y="5.25"></tspan></text></g></g><g transform="translate(185.5, 270.25)"><g transform="scale(1.5, 1.5)"><path d="m8.5 0.5 L 68.5 0.5 L 68.5 20.5 L 8.5 20.5 L 8.5 12.5 L 8.5 11.5 L 2.5 11.5 L 2.5 14.5 L 0.5 14.5 L 0.5 6.5 L 2.5 6.5 L 2.5 9.5 L 8.5 9.5 L 8.5 8.5 z" style="fill:#47e0db;fill-opacity:1;stroke:#003e47;stroke-width:1;stroke-linecap:round;stroke-opacity:1;" /><text style="font-size:10px;fill:#000000;font-family:sans-serif;text-anchor:start"><tspan x="13.333333333333334" y="13.833333333333334">three</tspan></text></g></g><g transform="translate(100.33333333333334, 299.83333333333337)"><g transform="scale(1.5, 1.5)"><path d="m0.5 8.5 L 0.5 4.5 A 4 4 90 0 1 4.5 0.5 L 8.5 0.5 L 8.5 2.5 L 18.5 2.5 L 18.5 0.5 L 58.5 0.5 L 62.5 0.5 A 4 4 90 0 1 66.5 4.5 L 66.5 8.5 L 66.5 12.5 L 66.5 16.5 A 4 4 90 0 1 62.5 20.5 L 58.5 20.5 L 18.5 20.5 L 17.5 20.5 L 17.5 22.5 L 9.5 22.5 L 9.5 20.5 L 8.5 20.5 L 4.5 20.5 A 4 4 90 0 1 0.5 16.5 L 0.5 12.5 z" style="fill:#ffdf37;fill-opacity:1;stroke:#644300;stroke-width:1;stroke-linecap:round;stroke-opacity:1;" /><text style="font-size:10px;fill:#000000;font-family:sans-serif;text-anchor:end"><tspan x="56.333333333333336" y="13.5">three</tspan></text></g></g><g transform="translate(233.5, 236)"><g transform="scale(1.5, 1.5)"><path d="m0.5 8.5 L 0.5 4.5 A 4 4 90 0 1 4.5 0.5 L 8.5 0.5 L 8.5 2.5 L 18.5 2.5 L 18.5 0.5 L 58.5 0.5 L 62.5 0.5 A 4 4 90 0 1 66.5 4.5 L 66.5 8.5 L 66.5 12.5 L 66.5 16.5 A 4 4 90 0 1 62.5 20.5 L 58.5 20.5 L 18.5 20.5 L 17.5 20.5 L 17.5 22.5 L 9.5 22.5 L 9.5 20.5 L 8.5 20.5 L 4.5 20.5 A 4 4 90 0 1 0.5 16.5 L 0.5 12.5 z" style="fill:#ffdf37;fill-opacity:1;stroke:#644300;stroke-width:1;stroke-linecap:round;stroke-opacity:1;" /><text style="font-size:10px;fill:#000000;font-family:sans-serif;text-anchor:end"><tspan x="56.333333333333336" y="13.5">three</tspan></text></g></g><g transform="translate(104.5, 301.75)"><g transform="scale(1.5, 1.5)"><path d="m0.5 8.5 L 0.5 4.5 A 4 4 90 0 1 4.5 0.5 L 8.5 0.5 L 8.5 2.5 L 18.5 2.5 L 18.5 0.5 L 48.5 0.5 L 52.5 0.5 A 4 4 90 0 1 56.5 4.5 L 56.5 8.5 L 52.5 8.5 L 52.5 5.5 L 48.5 5.5 L 48.5 15.5 L 52.5 15.5 L 52.5 12.5 L 56.5 12.5 L 56.5 16.5 A 4 4 90 0 1 52.5 20.5 L 48.5 20.5 L 18.5 20.5 L 17.5 20.5 L 17.5 22.5 L 9.5 22.5 L 9.5 20.5 L 8.5 20.5 L 4.5 20.5 A 4 4 90 0 1 0.5 16.5 L 0.5 12.5 L 0.5 8.5 z" style="fill:#88e20a;fill-opacity:1;stroke:#004100;stroke-width:1;stroke-linecap:round;stroke-opacity:1;" /><text style="font-size:10px;fill:#000000;font-family:sans-serif;text-anchor:end"><tspan x="46.333333333333336" y="13.5">left</tspan></text><text style="font-size:6.666666666666667px;fill:#000000;font-family:sans-serif;text-anchor:end"><tspan x="46.333333333333336" y="11.25"></tspan></text></g></g><g transform="translate(178, 301.75)"><g transform="scale(1.5, 1.5)"><path d="m8.5 0.5 L 68.5 0.5 L 68.5 20.5 L 8.5 20.5 L 8.5 12.5 L 8.5 11.5 L 2.5 11.5 L 2.5 14.5 L 0.5 14.5 L 0.5 6.5 L 2.5 6.5 L 2.5 9.5 L 8.5 9.5 L 8.5 8.5 z" style="fill:#ff9db5;fill-opacity:1;stroke:#73003b;stroke-width:1;stroke-linecap:round;stroke-opacity:1;" /><text style="font-size:10px;fill:#000000;font-family:sans-serif;text-anchor:start"><tspan x="13.333333333333334" y="13.833333333333334">90</tspan></text></g></g><g transform="translate(104.5, 333.25)"><g transform="scale(1.5, 1.5)"><path d="m0.5 8.5 L 0.5 4.5 A 4 4 90 0 1 4.5 0.5 L 8.5 0.5 L 8.5 2.5 L 18.5 2.5 L 18.5 0.5 L 51.8447265625 0.5 L 55.8447265625 0.5 A 4 4 90 0 1 59.8447265625 4.5 L 59.8447265625 8.5 L 55.8447265625 8.5 L 55.8447265625 5.5 L 51.8447265625 5.5 L 51.8447265625 15.5 L 55.8447265625 15.5 L 55.8447265625 12.5 L 59.8447265625 12.5 L 59.8447265625 16.5 A 4 4 90 0 1 55.8447265625 20.5 L 51.8447265625 20.5 L 18.5 20.5 L 17.5 20.5 L 17.5 22.5 L 9.5 22.5 L 9.5 20.5 L 8.5 20.5 L 4.5 20.5 A 4 4 90 0 1 0.5 16.5 L 0.5 12.5 L 0.5 8.5 z" style="fill:#88e20a;fill-opacity:1;stroke:#004100;stroke-width:1;stroke-linecap:round;stroke-opacity:1;" /><text style="font-size:10px;fill:#000000;font-family:sans-serif;text-anchor:end"><tspan x="49.678059895833336" y="13.5">forward</tspan></text><text style="font-size:6.666666666666667px;fill:#000000;font-family:sans-serif;text-anchor:end"><tspan x="49.678059895833336" y="11.25"></tspan></text></g></g><g transform="translate(183.01708984375, 333.25)"><g transform="scale(1.5, 1.5)"><path d="m8.5 0.5 L 68.5 0.5 L 68.5 20.5 L 8.5 20.5 L 8.5 12.5 L 8.5 11.5 L 2.5 11.5 L 2.5 14.5 L 0.5 14.5 L 0.5 6.5 L 2.5 6.5 L 2.5 9.5 L 8.5 9.5 L 8.5 8.5 z" style="fill:#ff9db5;fill-opacity:1;stroke:#73003b;stroke-width:1;stroke-linecap:round;stroke-opacity:1;" /><text style="font-size:10px;fill:#000000;font-family:sans-serif;text-anchor:start"><tspan x="13.333333333333334" y="13.833333333333334">135.355</tspan></text></g></g><g transform="translate(104.5, 364.75)"><g transform="scale(1.5, 1.5)"><path d="m0.5 8.5 L 0.5 4.5 A 4 4 90 0 1 4.5 0.5 L 8.5 0.5 L 8.5 2.5 L 18.5 2.5 L 18.5 0.5 L 48.5 0.5 L 52.5 0.5 A 4 4 90 0 1 56.5 4.5 L 56.5 8.5 L 52.5 8.5 L 52.5 5.5 L 48.5 5.5 L 48.5 15.5 L 52.5 15.5 L 52.5 12.5 L 56.5 12.5 L 56.5 16.5 A 4 4 90 0 1 52.5 20.5 L 48.5 20.5 L 18.5 20.5 L 17.5 20.5 L 17.5 22.5 L 9.5 22.5 L 9.5 20.5 L 8.5 20.5 L 4.5 20.5 A 4 4 90 0 1 0.5 16.5 L 0.5 12.5 L 0.5 8.5 z" style="fill:#88e20a;fill-opacity:1;stroke:#004100;stroke-width:1;stroke-linecap:round;stroke-opacity:1;" /><text style="font-size:10px;fill:#000000;font-family:sans-serif;text-anchor:end"><tspan x="46.333333333333336" y="13.5">left</tspan></text><text style="font-size:6.666666666666667px;fill:#000000;font-family:sans-serif;text-anchor:end"><tspan x="46.333333333333336" y="11.25"></tspan></text></g></g><g transform="translate(178, 364.75)"><g transform="scale(1.5, 1.5)"><path d="m8.5 0.5 L 68.5 0.5 L 68.5 20.5 L 8.5 20.5 L 8.5 12.5 L 8.5 11.5 L 2.5 11.5 L 2.5 14.5 L 0.5 14.5 L 0.5 6.5 L 2.5 6.5 L 2.5 9.5 L 8.5 9.5 L 8.5 8.5 z" style="fill:#ff9db5;fill-opacity:1;stroke:#73003b;stroke-width:1;stroke-linecap:round;stroke-opacity:1;" /><text style="font-size:10px;fill:#000000;font-family:sans-serif;text-anchor:start"><tspan x="13.333333333333334" y="13.833333333333334">90</tspan></text></g></g><g transform="translate(104.5, 396.25)"><g transform="scale(1.5, 1.5)"><path d="m0.5 8.5 L 0.5 4.5 A 4 4 90 0 1 4.5 0.5 L 8.5 0.5 L 8.5 2.5 L 18.5 2.5 L 18.5 0.5 L 51.8447265625 0.5 L 55.8447265625 0.5 A 4 4 90 0 1 59.8447265625 4.5 L 59.8447265625 8.5 L 55.8447265625 8.5 L 55.8447265625 5.5 L 51.8447265625 5.5 L 51.8447265625 15.5 L 55.8447265625 15.5 L 55.8447265625 12.5 L 59.8447265625 12.5 L 59.8447265625 16.5 A 4 4 90 0 1 55.8447265625 20.5 L 51.8447265625 20.5 L 18.5 20.5 L 17.5 20.5 L 17.5 22.5 L 9.5 22.5 L 9.5 20.5 L 8.5 20.5 L 4.5 20.5 A 4 4 90 0 1 0.5 16.5 L 0.5 12.5 L 0.5 8.5 z" style="fill:#88e20a;fill-opacity:1;stroke:#004100;stroke-width:1;stroke-linecap:round;stroke-opacity:1;" /><text style="font-size:10px;fill:#000000;font-family:sans-serif;text-anchor:end"><tspan x="49.678059895833336" y="13.5">forward</tspan></text><text style="font-size:6.666666666666667px;fill:#000000;font-family:sans-serif;text-anchor:end"><tspan x="49.678059895833336" y="11.25"></tspan></text></g></g><g transform="translate(183.01708984375, 396.25)"><g transform="scale(1.5, 1.5)"><path d="m8.5 0.5 L 68.5 0.5 L 68.5 20.5 L 8.5 20.5 L 8.5 12.5 L 8.5 11.5 L 2.5 11.5 L 2.5 14.5 L 0.5 14.5 L 0.5 6.5 L 2.5 6.5 L 2.5 9.5 L 8.5 9.5 L 8.5 8.5 z" style="fill:#ff9db5;fill-opacity:1;stroke:#73003b;stroke-width:1;stroke-linecap:round;stroke-opacity:1;" /><text style="font-size:10px;fill:#000000;font-family:sans-serif;text-anchor:start"><tspan x="13.333333333333334" y="13.833333333333334">105</tspan></text></g></g><g transform="translate(92, 313)"><g transform="scale(1.5, 1.5)"><path d="m0.5 14.5 L 0.5 10.5 A 4 4 90 0 1 4.5 6.5 L 8.5 6.5 L 13.5 0.5 L 18.5 6.5 L 27.5 6.5 L 62.5 6.5 L 66.5 6.5 A 4 4 90 0 1 70.5 10.5 L 70.5 14.5 L 66.5 14.5 L 66.5 11.5 L 62.5 11.5 L 62.5 21.5 L 66.5 21.5 L 66.5 18.5 L 70.5 18.5 L 70.5 22.5 A 4 4 90 0 1 66.5 26.5 L 62.5 26.5 L 27.5 26.5 L 26.5 26.5 L 26.5 28.5 L 18.5 28.5 L 18.5 26.5 L 17.5 26.5 L 13.5 26.5 A 5 5 90 0 0 8.5 31.5 L 8.5 35.5 L 8.5 39.5 L 8.5 102.5 L 8.5 106.5 A 5 5 90 0 0 13.5 111.5 L 17.5 111.5 L 17.5 113.5 L 27.5 113.5 L 27.5 111.5 L 35.5 111.5 L 35.5 117.5 L 35.5 123.5 L 35.5 127.5 A 4 4 90 0 1 31.5 131.5 L 27.5 131.5 L 18.5 131.5 L 13.5 137.5 L 8.5 131.5 L 4.5 131.5 A 4 4 90 0 1 0.5 127.5 L 0.5 123.5 z" style="fill:#ffdf37;fill-opacity:1;stroke:#644300;stroke-width:1;stroke-linecap:round;stroke-opacity:1;" /><text style="font-size:10px;fill:#000000;font-family:sans-serif;text-anchor:start"><tspan x="5.333333333333333" y="21.5">action</tspan></text><text style="font-size:6.666666666666667px;fill:#000000;font-family:sans-serif;text-anchor:end"><tspan x="60.333333333333336" y="5.25"></tspan></text></g></g><g transform="translate(186.5, 322)"><g transform="scale(1.5, 1.5)"><path d="m8.5 0.5 L 68.5 0.5 L 68.5 20.5 L 8.5 20.5 L 8.5 12.5 L 8.5 11.5 L 2.5 11.5 L 2.5 14.5 L 0.5 14.5 L 0.5 6.5 L 2.5 6.5 L 2.5 9.5 L 8.5 9.5 L 8.5 8.5 z" style="fill:#47e0db;fill-opacity:1;stroke:#003e47;stroke-width:1;stroke-linecap:round;stroke-opacity:1;" /><text style="font-size:10px;fill:#000000;font-family:sans-serif;text-anchor:start"><tspan x="13.333333333333334" y="13.833333333333334">four</tspan></text></g></g><g transform="translate(105.5, 353.5)"><g transform="scale(1.5, 1.5)"><path d="m0.5 8.5 L 0.5 4.5 A 4 4 90 0 1 4.5 0.5 L 8.5 0.5 L 8.5 2.5 L 18.5 2.5 L 18.5 0.5 L 48.5 0.5 L 52.5 0.5 A 4 4 90 0 1 56.5 4.5 L 56.5 8.5 L 52.5 8.5 L 52.5 5.5 L 48.5 5.5 L 48.5 15.5 L 52.5 15.5 L 52.5 12.5 L 56.5 12.5 L 56.5 16.5 A 4 4 90 0 1 52.5 20.5 L 48.5 20.5 L 18.5 20.5 L 17.5 20.5 L 17.5 22.5 L 9.5 22.5 L 9.5 20.5 L 8.5 20.5 L 4.5 20.5 A 4 4 90 0 1 0.5 16.5 L 0.5 12.5 L 0.5 8.5 z" style="fill:#88e20a;fill-opacity:1;stroke:#004100;stroke-width:1;stroke-linecap:round;stroke-opacity:1;" /><text style="font-size:10px;fill:#000000;font-family:sans-serif;text-anchor:end"><tspan x="46.333333333333336" y="13.5">left</tspan></text><text style="font-size:6.666666666666667px;fill:#000000;font-family:sans-serif;text-anchor:end"><tspan x="46.333333333333336" y="11.25"></tspan></text></g></g><g transform="translate(179, 353.5)"><g transform="scale(1.5, 1.5)"><path d="m8.5 0.5 L 68.5 0.5 L 68.5 20.5 L 8.5 20.5 L 8.5 12.5 L 8.5 11.5 L 2.5 11.5 L 2.5 14.5 L 0.5 14.5 L 0.5 6.5 L 2.5 6.5 L 2.5 9.5 L 8.5 9.5 L 8.5 8.5 z" style="fill:#ff9db5;fill-opacity:1;stroke:#73003b;stroke-width:1;stroke-linecap:round;stroke-opacity:1;" /><text style="font-size:10px;fill:#000000;font-family:sans-serif;text-anchor:start"><tspan x="13.333333333333334" y="13.833333333333334">90</tspan></text></g></g><g transform="translate(233.5, 267.5)"><g transform="scale(1.5, 1.5)"><path d="m0.5 8.5 L 0.5 4.5 A 4 4 90 0 1 4.5 0.5 L 8.5 0.5 L 8.5 2.5 L 18.5 2.5 L 18.5 0.5 L 58.5 0.5 L 62.5 0.5 A 4 4 90 0 1 66.5 4.5 L 66.5 8.5 L 66.5 12.5 L 66.5 16.5 A 4 4 90 0 1 62.5 20.5 L 58.5 20.5 L 18.5 20.5 L 17.5 20.5 L 17.5 22.5 L 9.5 22.5 L 9.5 20.5 L 8.5 20.5 L 4.5 20.5 A 4 4 90 0 1 0.5 16.5 L 0.5 12.5 z" style="fill:#ffdf37;fill-opacity:1;stroke:#644300;stroke-width:1;stroke-linecap:round;stroke-opacity:1;" /><text style="font-size:10px;fill:#000000;font-family:sans-serif;text-anchor:end"><tspan x="56.333333333333336" y="13.5">four</tspan></text></g></g><g transform="translate(100.33333333333334, 331.33333333333337)"><g transform="scale(1.5, 1.5)"><path d="m0.5 8.5 L 0.5 4.5 A 4 4 90 0 1 4.5 0.5 L 8.5 0.5 L 8.5 2.5 L 18.5 2.5 L 18.5 0.5 L 58.5 0.5 L 62.5 0.5 A 4 4 90 0 1 66.5 4.5 L 66.5 8.5 L 66.5 12.5 L 66.5 16.5 A 4 4 90 0 1 62.5 20.5 L 58.5 20.5 L 18.5 20.5 L 17.5 20.5 L 17.5 22.5 L 9.5 22.5 L 9.5 20.5 L 8.5 20.5 L 4.5 20.5 A 4 4 90 0 1 0.5 16.5 L 0.5 12.5 z" style="fill:#ffdf37;fill-opacity:1;stroke:#644300;stroke-width:1;stroke-linecap:round;stroke-opacity:1;" /><text style="font-size:10px;fill:#000000;font-family:sans-serif;text-anchor:end"><tspan x="56.333333333333336" y="13.5">four</tspan></text></g></g><g transform="translate(105.5, 385)"><g transform="scale(1.5, 1.5)"><path d="m0.5 8.5 L 0.5 4.5 A 4 4 90 0 1 4.5 0.5 L 8.5 0.5 L 8.5 2.5 L 18.5 2.5 L 18.5 0.5 L 51.8447265625 0.5 L 55.8447265625 0.5 A 4 4 90 0 1 59.8447265625 4.5 L 59.8447265625 8.5 L 55.8447265625 8.5 L 55.8447265625 5.5 L 51.8447265625 5.5 L 51.8447265625 15.5 L 55.8447265625 15.5 L 55.8447265625 12.5 L 59.8447265625 12.5 L 59.8447265625 16.5 A 4 4 90 0 1 55.8447265625 20.5 L 51.8447265625 20.5 L 18.5 20.5 L 17.5 20.5 L 17.5 22.5 L 9.5 22.5 L 9.5 20.5 L 8.5 20.5 L 4.5 20.5 A 4 4 90 0 1 0.5 16.5 L 0.5 12.5 L 0.5 8.5 z" style="fill:#88e20a;fill-opacity:1;stroke:#004100;stroke-width:1;stroke-linecap:round;stroke-opacity:1;" /><text style="font-size:10px;fill:#000000;font-family:sans-serif;text-anchor:end"><tspan x="49.678059895833336" y="13.5">forward</tspan></text><text style="font-size:6.666666666666667px;fill:#000000;font-family:sans-serif;text-anchor:end"><tspan x="49.678059895833336" y="11.25"></tspan></text></g></g><g transform="translate(184.01708984375, 385)"><g transform="scale(1.5, 1.5)"><path d="m8.5 0.5 L 68.5 0.5 L 68.5 20.5 L 8.5 20.5 L 8.5 12.5 L 8.5 11.5 L 2.5 11.5 L 2.5 14.5 L 0.5 14.5 L 0.5 6.5 L 2.5 6.5 L 2.5 9.5 L 8.5 9.5 L 8.5 8.5 z" style="fill:#ff9db5;fill-opacity:1;stroke:#73003b;stroke-width:1;stroke-linecap:round;stroke-opacity:1;" /><text style="font-size:10px;fill:#000000;font-family:sans-serif;text-anchor:start"><tspan x="13.333333333333334" y="13.833333333333334">105</tspan></text></g></g><g transform="translate(105.5, 416.5)"><g transform="scale(1.5, 1.5)"><path d="m0.5 8.5 L 0.5 4.5 A 4 4 90 0 1 4.5 0.5 L 8.5 0.5 L 8.5 2.5 L 18.5 2.5 L 18.5 0.5 L 48.5 0.5 L 52.5 0.5 A 4 4 90 0 1 56.5 4.5 L 56.5 8.5 L 52.5 8.5 L 52.5 5.5 L 48.5 5.5 L 48.5 15.5 L 52.5 15.5 L 52.5 12.5 L 56.5 12.5 L 56.5 16.5 A 4 4 90 0 1 52.5 20.5 L 48.5 20.5 L 18.5 20.5 L 17.5 20.5 L 17.5 22.5 L 9.5 22.5 L 9.5 20.5 L 8.5 20.5 L 4.5 20.5 A 4 4 90 0 1 0.5 16.5 L 0.5 12.5 L 0.5 8.5 z" style="fill:#88e20a;fill-opacity:1;stroke:#004100;stroke-width:1;stroke-linecap:round;stroke-opacity:1;" /><text style="font-size:10px;fill:#000000;font-family:sans-serif;text-anchor:end"><tspan x="46.333333333333336" y="13.5">right</tspan></text><text style="font-size:6.666666666666667px;fill:#000000;font-family:sans-serif;text-anchor:end"><tspan x="46.333333333333336" y="11.25"></tspan></text></g></g><g transform="translate(179, 416.5)"><g transform="scale(1.5, 1.5)"><path d="m8.5 0.5 L 68.5 0.5 L 68.5 20.5 L 8.5 20.5 L 8.5 12.5 L 8.5 11.5 L 2.5 11.5 L 2.5 14.5 L 0.5 14.5 L 0.5 6.5 L 2.5 6.5 L 2.5 9.5 L 8.5 9.5 L 8.5 8.5 z" style="fill:#ff9db5;fill-opacity:1;stroke:#73003b;stroke-width:1;stroke-linecap:round;stroke-opacity:1;" /><text style="font-size:10px;fill:#000000;font-family:sans-serif;text-anchor:start"><tspan x="13.333333333333334" y="13.833333333333334">45</tspan></text></g></g><g transform="translate(105.5, 448)"><g transform="scale(1.5, 1.5)"><path d="m0.5 8.5 L 0.5 4.5 A 4 4 90 0 1 4.5 0.5 L 8.5 0.5 L 8.5 2.5 L 18.5 2.5 L 18.5 0.5 L 51.8447265625 0.5 L 55.8447265625 0.5 A 4 4 90 0 1 59.8447265625 4.5 L 59.8447265625 8.5 L 55.8447265625 8.5 L 55.8447265625 5.5 L 51.8447265625 5.5 L 51.8447265625 15.5 L 55.8447265625 15.5 L 55.8447265625 12.5 L 59.8447265625 12.5 L 59.8447265625 16.5 A 4 4 90 0 1 55.8447265625 20.5 L 51.8447265625 20.5 L 18.5 20.5 L 17.5 20.5 L 17.5 22.5 L 9.5 22.5 L 9.5 20.5 L 8.5 20.5 L 4.5 20.5 A 4 4 90 0 1 0.5 16.5 L 0.5 12.5 L 0.5 8.5 z" style="fill:#88e20a;fill-opacity:1;stroke:#004100;stroke-width:1;stroke-linecap:round;stroke-opacity:1;" /><text style="font-size:10px;fill:#000000;font-family:sans-serif;text-anchor:end"><tspan x="49.678059895833336" y="13.5">forward</tspan></text><text style="font-size:6.666666666666667px;fill:#000000;font-family:sans-serif;text-anchor:end"><tspan x="49.678059895833336" y="11.25"></tspan></text></g></g><g transform="translate(184.01708984375, 448)"><g transform="scale(1.5, 1.5)"><path d="m8.5 0.5 L 68.5 0.5 L 68.5 20.5 L 8.5 20.5 L 8.5 12.5 L 8.5 11.5 L 2.5 11.5 L 2.5 14.5 L 0.5 14.5 L 0.5 6.5 L 2.5 6.5 L 2.5 9.5 L 8.5 9.5 L 8.5 8.5 z" style="fill:#ff9db5;fill-opacity:1;stroke:#73003b;stroke-width:1;stroke-linecap:round;stroke-opacity:1;" /><text style="font-size:10px;fill:#000000;font-family:sans-serif;text-anchor:start"><tspan x="13.333333333333334" y="13.833333333333334">40</tspan></text></g></g><g transform="translate(100.33333333333334, 142.33333333333334)"><g transform="scale(1.5, 1.5)"><path d="m0.5 8.5 L 0.5 4.5 A 4 4 90 0 1 4.5 0.5 L 8.5 0.5 L 8.5 2.5 L 18.5 2.5 L 18.5 0.5 L 56.29296875 0.5 L 60.29296875 0.5 A 4 4 90 0 1 64.29296875 4.5 L 64.29296875 8.5 L 60.29296875 8.5 L 60.29296875 5.5 L 56.29296875 5.5 L 56.29296875 15.5 L 60.29296875 15.5 L 60.29296875 12.5 L 64.29296875 12.5 L 64.29296875 16.5 A 4 4 90 0 1 60.29296875 20.5 L 56.29296875 20.5 L 18.5 20.5 L 17.5 20.5 L 17.5 22.5 L 9.5 22.5 L 9.5 20.5 L 8.5 20.5 L 4.5 20.5 A 4 4 90 0 1 0.5 16.5 L 0.5 12.5 L 0.5 8.5 z" style="fill:#00a8a8;fill-opacity:1;stroke:#000000;stroke-width:1;stroke-linecap:round;stroke-opacity:1;" /><text style="font-size:10px;fill:#000000;font-family:sans-serif;text-anchor:end"><tspan x="54.126302083333336" y="13.5">set color</tspan></text><text style="font-size:6.666666666666667px;fill:#000000;font-family:sans-serif;text-anchor:end"><tspan x="54.126302083333336" y="11.25"></tspan></text></g></g><g transform="translate(185.52278645833334, 142.33333333333334)"><g transform="scale(1.5, 1.5)"><path d="m8.5 0.5 L 68.5 0.5 L 68.5 20.5 L 8.5 20.5 L 8.5 12.5 L 8.5 11.5 L 2.5 11.5 L 2.5 14.5 L 0.5 14.5 L 0.5 6.5 L 2.5 6.5 L 2.5 9.5 L 8.5 9.5 L 8.5 8.5 z" style="fill:#ff9db5;fill-opacity:1;stroke:#73003b;stroke-width:1;stroke-linecap:round;stroke-opacity:1;" /><text style="font-size:10px;fill:#000000;font-family:sans-serif;text-anchor:start"><tspan x="13.333333333333334" y="13.833333333333334">0</tspan></text></g></g><g transform="translate(233.5, 141.5)"><g transform="scale(1.5, 1.5)"><path d="m0.5 8.5 L 0.5 4.5 A 4 4 90 0 1 4.5 0.5 L 8.5 0.5 L 8.5 2.5 L 18.5 2.5 L 18.5 0.5 L 56.29296875 0.5 L 60.29296875 0.5 A 4 4 90 0 1 64.29296875 4.5 L 64.29296875 8.5 L 60.29296875 8.5 L 60.29296875 5.5 L 56.29296875 5.5 L 56.29296875 15.5 L 60.29296875 15.5 L 60.29296875 12.5 L 64.29296875 12.5 L 64.29296875 16.5 A 4 4 90 0 1 60.29296875 20.5 L 56.29296875 20.5 L 18.5 20.5 L 17.5 20.5 L 17.5 22.5 L 9.5 22.5 L 9.5 20.5 L 8.5 20.5 L 4.5 20.5 A 4 4 90 0 1 0.5 16.5 L 0.5 12.5 L 0.5 8.5 z" style="fill:#00a8a8;fill-opacity:1;stroke:#000000;stroke-width:1;stroke-linecap:round;stroke-opacity:1;" /><text style="font-size:10px;fill:#000000;font-family:sans-serif;text-anchor:end"><tspan x="54.126302083333336" y="13.5">set color</tspan></text><text style="font-size:6.666666666666667px;fill:#000000;font-family:sans-serif;text-anchor:end"><tspan x="54.126302083333336" y="11.25"></tspan></text></g></g><g transform="translate(318.689453125, 141.5)"><g transform="scale(1.5, 1.5)"><path d="m8.5 0.5 L 68.5 0.5 L 68.5 20.5 L 8.5 20.5 L 8.5 12.5 L 8.5 11.5 L 2.5 11.5 L 2.5 14.5 L 0.5 14.5 L 0.5 6.5 L 2.5 6.5 L 2.5 9.5 L 8.5 9.5 L 8.5 8.5 z" style="fill:#ff9db5;fill-opacity:1;stroke:#73003b;stroke-width:1;stroke-linecap:round;stroke-opacity:1;" /><text style="font-size:10px;fill:#000000;font-family:sans-serif;text-anchor:start"><tspan x="13.333333333333334" y="13.833333333333334">0</tspan></text></g></g></svg>