<svg xmlns="http://www.w3.org/2000/svg" width="1536" height="759"><g transform="translate(140, 134)"><g transform="scale(1.5, 1.5)"><path d="m0.5 14.5 L 0.5 10.5 A 4 4 90 0 1 4.5 6.5 L 8.5 6.5 L 13.5 0.5 L 18.5 6.5 L 27.5 6.5 L 57.5 6.5 L 61.5 6.5 A 4 4 90 0 1 65.5 10.5 L 65.5 14.5 L 65.5 18.5 L 65.5 22.5 A 4 4 90 0 1 61.5 26.5 L 57.5 26.5 L 27.5 26.5 L 26.5 26.5 L 26.5 28.5 L 18.5 28.5 L 18.5 26.5 L 17.5 26.5 L 13.5 26.5 A 5 5 90 0 0 8.5 31.5 L 8.5 35.5 L 8.5 39.5 L 8.5 270.5 L 8.5 274.5 A 5 5 90 0 0 13.5 279.5 L 17.5 279.5 L 17.5 281.5 L 27.5 281.5 L 27.5 279.5 L 35.5 279.5 L 35.5 285.5 L 35.5 291.5 L 35.5 295.5 A 4 4 90 0 1 31.5 299.5 L 27.5 299.5 L 18.5 299.5 L 13.5 305.5 L 8.5 299.5 L 4.5 299.5 A 4 4 90 0 1 0.5 295.5 L 0.5 291.5 z" style="fill:#ffdf37;fill-opacity:1;stroke:#644300;stroke-width:1;stroke-linecap:round;stroke-opacity:1;" /><text style="font-size:10px;fill:#000000;font-family:sans-serif;text-anchor:start"><tspan x="5.333333333333333" y="21.5">start</tspan></text></g></g><g transform="translate(153.5, 174.5)"><g transform="scale(1.5, 1.5)"><path d="m0.5 8.5 L 0.5 4.5 A 4 4 90 0 1 4.5 0.5 L 8.5 0.5 L 8.5 2.5 L 18.5 2.5 L 18.5 0.5 L 71.8642578125 0.5 L 75.8642578125 0.5 A 4 4 90 0 1 79.8642578125 4.5 L 79.8642578125 8.5 L 75.8642578125 8.5 L 75.8642578125 5.5 L 71.8642578125 5.5 L 71.8642578125 15.5 L 75.8642578125 15.5 L 75.8642578125 12.5 L 79.8642578125 12.5 L 79.8642578125 16.5 A 4 4 90 0 1 75.8642578125 20.5 L 71.8642578125 20.5 L 18.5 20.5 L 17.5 20.5 L 17.5 22.5 L 9.5 22.5 L 9.5 20.5 L 8.5 20.5 L 4.5 20.5 A 4 4 90 0 1 0.5 16.5 L 0.5 12.5 L 0.5 8.5 z" style="fill:#00a8a8;fill-opacity:1;stroke:#000000;stroke-width:1;stroke-linecap:round;stroke-opacity:1;" /><text style="font-size:10px;fill:#000000;font-family:sans-serif;text-anchor:end"><tspan x="69.69759114583333" y="13.5">set pen size</tspan></text><text style="font-size:6.666666666666667px;fill:#000000;font-family:sans-serif;text-anchor:end"><tspan x="69.69759114583333" y="11.25"></tspan></text></g></g><g transform="translate(262.04638671875, 174.5)"><g transform="scale(1.5, 1.5)"><path d="m8.5 0.5 L 68.5 0.5 L 68.5 20.5 L 8.5 20.5 L 8.5 12.5 L 8.5 11.5 L 2.5 11.5 L 2.5 14.5 L 0.5 14.5 L 0.5 6.5 L 2.5 6.5 L 2.5 9.5 L 8.5 9.5 L 8.5 8.5 z" style="fill:#ff9db5;fill-opacity:1;stroke:#73003b;stroke-width:1;stroke-linecap:round;stroke-opacity:1;" /><text style="font-size:10px;fill:#000000;font-family:sans-serif;text-anchor:start"><tspan x="13.333333333333334" y="13.833333333333334">3</tspan></text></g></g><g transform="translate(167, 237.5)"><g transform="scale(1.5, 1.5)"><path d="m0.5 8.5 L 0.5 4.5 A 4 4 90 0 1 4.5 0.5 L 8.5 0.5 L 8.5 2.5 L 18.5 2.5 L 18.5 0.5 L 48.5 0.5 L 52.5 0.5 A 4 4 90 0 1 56.5 4.5 L 56.5 8.5 L 52.5 8.5 L 52.5 5.5 L 48.5 5.5 L 48.5 15.5 L 52.5 15.5 L 52.5 12.5 L 56.5 12.5 L 56.5 16.5 A 4 4 90 0 1 52.5 20.5 L 48.5 20.5 L 18.5 20.5 L 17.5 20.5 L 17.5 22.5 L 9.5 22.5 L 9.5 20.5 L 8.5 20.5 L 4.5 20.5 A 4 4 90 0 1 0.5 16.5 L 0.5 12.5 L 0.5 8.5 z" style="fill:#88e20a;fill-opacity:1;stroke:#004100;stroke-width:1;stroke-linecap:round;stroke-opacity:1;" /><text style="font-size:10px;fill:#000000;font-family:sans-serif;text-anchor:end"><tspan x="46.333333333333336" y="13.5">right</tspan></text><text style="font-size:6.666666666666667px;fill:#000000;font-family:sans-serif;text-anchor:end"><tspan x="46.333333333333336" y="11.25"></tspan></text></g></g><g transform="translate(240.5, 237.5)"><g transform="scale(1.5, 1.5)"><path d="m8.5 0.5 L 68.5 0.5 L 68.5 20.5 L 8.5 20.5 L 8.5 12.5 L 8.5 11.5 L 2.5 11.5 L 2.5 14.5 L 0.5 14.5 L 0.5 6.5 L 2.5 6.5 L 2.5 9.5 L 8.5 9.5 L 8.5 8.5 z" style="fill:#ff9db5;fill-opacity:1;stroke:#73003b;stroke-width:1;stroke-linecap:round;stroke-opacity:1;" /><text style="font-size:10px;fill:#000000;font-family:sans-serif;text-anchor:start"><tspan x="13.333333333333334" y="13.833333333333334">45</tspan></text></g></g><g transform="translate(153.5, 206)"><g transform="scale(1.5, 1.5)"><path d="m0.5 8.5 L 0.5 4.5 A 4 4 90 0 1 4.5 0.5 L 8.5 0.5 L 8.5 2.5 L 18.5 2.5 L 18.5 0.5 L 27.5 0.5 L 47.5 0.5 L 51.5 0.5 A 4 4 90 0 1 55.5 4.5 L 55.5 8.5 L 51.5 8.5 L 51.5 5.5 L 47.5 5.5 L 47.5 15.5 L 51.5 15.5 L 51.5 12.5 L 55.5 12.5 L 55.5 16.5 A 4 4 90 0 1 51.5 20.5 L 47.5 20.5 L 27.5 20.5 L 26.5 20.5 L 26.5 22.5 L 18.5 22.5 L 18.5 20.5 L 17.5 20.5 L 13.5 20.5 A 5 5 90 0 0 8.5 25.5 L 8.5 29.5 L 8.5 33.5 L 8.5 201.5 L 8.5 205.5 A 5 5 90 0 0 13.5 210.5 L 17.5 210.5 L 17.5 212.5 L 27.5 212.5 L 27.5 210.5 L 35.5 210.5 L 35.5 216.5 L 35.5 222.5 L 35.5 226.5 A 4 4 90 0 1 31.5 230.5 L 27.5 230.5 L 18.5 230.5 L 17.5 230.5 L 17.5 232.5 L 9.5 232.5 L 9.5 230.5 L 8.5 230.5 L 4.5 230.5 A 4 4 90 0 1 0.5 226.5 L 0.5 222.5 z" style="fill:#ff9404;fill-opacity:1;stroke:#3f0a00;stroke-width:1;stroke-linecap:round;stroke-opacity:1;" /><text style="font-size:10px;fill:#000000;font-family:sans-serif;text-anchor:start"><tspan x="5.333333333333333" y="15.25">repeat</tspan></text><text style="font-size:6.666666666666667px;fill:#000000;font-family:sans-serif;text-anchor:end"><tspan x="45.333333333333336" y="11.25"></tspan></text></g></g><g transform="translate(225.5, 206)"><g transform="scale(1.5, 1.5)"><path d="m8.5 0.5 L 68.5 0.5 L 68.5 20.5 L 8.5 20.5 L 8.5 12.5 L 8.5 11.5 L 2.5 11.5 L 2.5 14.5 L 0.5 14.5 L 0.5 6.5 L 2.5 6.5 L 2.5 9.5 L 8.5 9.5 L 8.5 8.5 z" style="fill:#ff9db5;fill-opacity:1;stroke:#73003b;stroke-width:1;stroke-linecap:round;stroke-opacity:1;" /><text style="font-size:10px;fill:#000000;font-family:sans-serif;text-anchor:start"><tspan x="13.333333333333334" y="13.833333333333334">2</tspan></text></g></g><g transform="translate(167, 300.5)"><g transform="scale(1.5, 1.5)"><path d="m0.5 8.5 L 0.5 4.5 A 4 4 90 0 1 4.5 0.5 L 8.5 0.5 L 8.5 2.5 L 18.5 2.5 L 18.5 0.5 L 48.5 0.5 L 52.5 0.5 A 4 4 90 0 1 56.5 4.5 L 56.5 8.5 L 52.5 8.5 L 52.5 5.5 L 48.5 5.5 L 48.5 15.5 L 52.5 15.5 L 52.5 12.5 L 56.5 12.5 L 56.5 16.5 A 4 4 90 0 1 52.5 20.5 L 48.5 20.5 L 18.5 20.5 L 17.5 20.5 L 17.5 22.5 L 9.5 22.5 L 9.5 20.5 L 8.5 20.5 L 4.5 20.5 A 4 4 90 0 1 0.5 16.5 L 0.5 12.5 L 0.5 8.5 z" style="fill:#88e20a;fill-opacity:1;stroke:#004100;stroke-width:1;stroke-linecap:round;stroke-opacity:1;" /><text style="font-size:10px;fill:#000000;font-family:sans-serif;text-anchor:end"><tspan x="46.333333333333336" y="13.5">right</tspan></text><text style="font-size:6.666666666666667px;fill:#000000;font-family:sans-serif;text-anchor:end"><tspan x="46.333333333333336" y="11.25"></tspan></text></g></g><g transform="translate(240.5, 300.5)"><g transform="scale(1.5, 1.5)"><path d="m8.5 0.5 L 68.5 0.5 L 68.5 20.5 L 8.5 20.5 L 8.5 12.5 L 8.5 11.5 L 2.5 11.5 L 2.5 14.5 L 0.5 14.5 L 0.5 6.5 L 2.5 6.5 L 2.5 9.5 L 8.5 9.5 L 8.5 8.5 z" style="fill:#ff9db5;fill-opacity:1;stroke:#73003b;stroke-width:1;stroke-linecap:round;stroke-opacity:1;" /><text style="font-size:10px;fill:#000000;font-family:sans-serif;text-anchor:start"><tspan x="13.333333333333334" y="13.833333333333334">90</tspan></text></g></g><g transform="translate(167, 363.5)"><g transform="scale(1.5, 1.5)"><path d="m0.5 8.5 L 0.5 4.5 A 4 4 90 0 1 4.5 0.5 L 8.5 0.5 L 8.5 2.5 L 18.5 2.5 L 18.5 0.5 L 48.5 0.5 L 52.5 0.5 A 4 4 90 0 1 56.5 4.5 L 56.5 8.5 L 52.5 8.5 L 52.5 5.5 L 48.5 5.5 L 48.5 15.5 L 52.5 15.5 L 52.5 12.5 L 56.5 12.5 L 56.5 16.5 A 4 4 90 0 1 52.5 20.5 L 48.5 20.5 L 18.5 20.5 L 17.5 20.5 L 17.5 22.5 L 9.5 22.5 L 9.5 20.5 L 8.5 20.5 L 4.5 20.5 A 4 4 90 0 1 0.5 16.5 L 0.5 12.5 L 0.5 8.5 z" style="fill:#88e20a;fill-opacity:1;stroke:#004100;stroke-width:1;stroke-linecap:round;stroke-opacity:1;" /><text style="font-size:10px;fill:#000000;font-family:sans-serif;text-anchor:end"><tspan x="46.333333333333336" y="13.5">left</tspan></text><text style="font-size:6.666666666666667px;fill:#000000;font-family:sans-serif;text-anchor:end"><tspan x="46.333333333333336" y="11.25"></tspan></text></g></g><g transform="translate(240.5, 363.5)"><g transform="scale(1.5, 1.5)"><path d="m8.5 0.5 L 68.5 0.5 L 68.5 20.5 L 8.5 20.5 L 8.5 12.5 L 8.5 11.5 L 2.5 11.5 L 2.5 14.5 L 0.5 14.5 L 0.5 6.5 L 2.5 6.5 L 2.5 9.5 L 8.5 9.5 L 8.5 8.5 z" style="fill:#ff9db5;fill-opacity:1;stroke:#73003b;stroke-width:1;stroke-linecap:round;stroke-opacity:1;" /><text style="font-size:10px;fill:#000000;font-family:sans-serif;text-anchor:start"><tspan x="13.333333333333334" y="13.833333333333334">-135</tspan></text></g></g><g transform="translate(167, 395)"><g transform="scale(1.5, 1.5)"><path d="m0.5 8.5 L 0.5 4.5 A 4 4 90 0 1 4.5 0.5 L 8.5 0.5 L 8.5 2.5 L 18.5 2.5 L 18.5 0.5 L 51.8447265625 0.5 L 55.8447265625 0.5 A 4 4 90 0 1 59.8447265625 4.5 L 59.8447265625 8.5 L 55.8447265625 8.5 L 55.8447265625 5.5 L 51.8447265625 5.5 L 51.8447265625 15.5 L 55.8447265625 15.5 L 55.8447265625 12.5 L 59.8447265625 12.5 L 59.8447265625 16.5 A 4 4 90 0 1 55.8447265625 20.5 L 51.8447265625 20.5 L 18.5 20.5 L 17.5 20.5 L 17.5 22.5 L 9.5 22.5 L 9.5 20.5 L 8.5 20.5 L 4.5 20.5 A 4 4 90 0 1 0.5 16.5 L 0.5 12.5 L 0.5 8.5 z" style="fill:#88e20a;fill-opacity:1;stroke:#004100;stroke-width:1;stroke-linecap:round;stroke-opacity:1;" /><text style="font-size:10px;fill:#000000;font-family:sans-serif;text-anchor:end"><tspan x="49.678059895833336" y="13.5">forward</tspan></text><text style="font-size:6.666666666666667px;fill:#000000;font-family:sans-serif;text-anchor:end"><tspan x="49.678059895833336" y="11.25"></tspan></text></g></g><g transform="translate(245.51708984375, 395)"><g transform="scale(1.5, 1.5)"><path d="m8.5 0.5 L 68.5 0.5 L 68.5 20.5 L 8.5 20.5 L 8.5 12.5 L 8.5 11.5 L 2.5 11.5 L 2.5 14.5 L 0.5 14.5 L 0.5 6.5 L 2.5 6.5 L 2.5 9.5 L 8.5 9.5 L 8.5 8.5 z" style="fill:#ff9db5;fill-opacity:1;stroke:#73003b;stroke-width:1;stroke-linecap:round;stroke-opacity:1;" /><text style="font-size:10px;fill:#000000;font-family:sans-serif;text-anchor:start"><tspan x="13.333333333333334" y="13.833333333333334">30</tspan></text></g></g><g transform="translate(167, 426.5)"><g transform="scale(1.5, 1.5)"><path d="m0.5 8.5 L 0.5 4.5 A 4 4 90 0 1 4.5 0.5 L 8.5 0.5 L 8.5 2.5 L 18.5 2.5 L 18.5 0.5 L 48.5 0.5 L 52.5 0.5 A 4 4 90 0 1 56.5 4.5 L 56.5 8.5 L 52.5 8.5 L 52.5 5.5 L 48.5 5.5 L 48.5 15.5 L 52.5 15.5 L 52.5 12.5 L 56.5 12.5 L 56.5 16.5 A 4 4 90 0 1 52.5 20.5 L 48.5 20.5 L 18.5 20.5 L 17.5 20.5 L 17.5 22.5 L 9.5 22.5 L 9.5 20.5 L 8.5 20.5 L 4.5 20.5 A 4 4 90 0 1 0.5 16.5 L 0.5 12.5 L 0.5 8.5 z" style="fill:#88e20a;fill-opacity:1;stroke:#004100;stroke-width:1;stroke-linecap:round;stroke-opacity:1;" /><text style="font-size:10px;fill:#000000;font-family:sans-serif;text-anchor:end"><tspan x="46.333333333333336" y="13.5">right</tspan></text><text style="font-size:6.666666666666667px;fill:#000000;font-family:sans-serif;text-anchor:end"><tspan x="46.333333333333336" y="11.25"></tspan></text></g></g><g transform="translate(240.5, 426.5)"><g transform="scale(1.5, 1.5)"><path d="m8.5 0.5 L 68.5 0.5 L 68.5 20.5 L 8.5 20.5 L 8.5 12.5 L 8.5 11.5 L 2.5 11.5 L 2.5 14.5 L 0.5 14.5 L 0.5 6.5 L 2.5 6.5 L 2.5 9.5 L 8.5 9.5 L 8.5 8.5 z" style="fill:#ff9db5;fill-opacity:1;stroke:#73003b;stroke-width:1;stroke-linecap:round;stroke-opacity:1;" /><text style="font-size:10px;fill:#000000;font-family:sans-serif;text-anchor:start"><tspan x="13.333333333333334" y="13.833333333333334">135</tspan></text></g></g><g transform="translate(167, 269)"><g transform="scale(1.5, 1.5)"><path d="m0.5 8.5 L 0.5 4.5 A 4 4 90 0 1 4.5 0.5 L 8.5 0.5 L 8.5 2.5 L 18.5 2.5 L 18.5 0.5 L 51.8447265625 0.5 L 55.8447265625 0.5 A 4 4 90 0 1 59.8447265625 4.5 L 59.8447265625 8.5 L 55.8447265625 8.5 L 55.8447265625 5.5 L 51.8447265625 5.5 L 51.8447265625 15.5 L 55.8447265625 15.5 L 55.8447265625 12.5 L 59.8447265625 12.5 L 59.8447265625 16.5 A 4 4 90 0 1 55.8447265625 20.5 L 51.8447265625 20.5 L 18.5 20.5 L 17.5 20.5 L 17.5 22.5 L 9.5 22.5 L 9.5 20.5 L 8.5 20.5 L 4.5 20.5 A 4 4 90 0 1 0.5 16.5 L 0.5 12.5 L 0.5 8.5 z" style="fill:#88e20a;fill-opacity:1;stroke:#004100;stroke-width:1;stroke-linecap:round;stroke-opacity:1;" /><text style="font-size:10px;fill:#000000;font-family:sans-serif;text-anchor:end"><tspan x="49.678059895833336" y="13.5">forward</tspan></text><text style="font-size:6.666666666666667px;fill:#000000;font-family:sans-serif;text-anchor:end"><tspan x="49.678059895833336" y="11.25"></tspan></text></g></g><g transform="translate(245.51708984375, 269)"><g transform="scale(1.5, 1.5)"><path d="m8.5 0.5 L 68.5 0.5 L 68.5 20.5 L 8.5 20.5 L 8.5 12.5 L 8.5 11.5 L 2.5 11.5 L 2.5 14.5 L 0.5 14.5 L 0.5 6.5 L 2.5 6.5 L 2.5 9.5 L 8.5 9.5 L 8.5 8.5 z" style="fill:#ff9db5;fill-opacity:1;stroke:#73003b;stroke-width:1;stroke-linecap:round;stroke-opacity:1;" /><text style="font-size:10px;fill:#000000;font-family:sans-serif;text-anchor:start"><tspan x="13.333333333333334" y="13.833333333333334">100</tspan></text></g></g><g transform="translate(167, 332)"><g transform="scale(1.5, 1.5)"><path d="m0.5 8.5 L 0.5 4.5 A 4 4 90 0 1 4.5 0.5 L 8.5 0.5 L 8.5 2.5 L 18.5 2.5 L 18.5 0.5 L 51.8447265625 0.5 L 55.8447265625 0.5 A 4 4 90 0 1 59.8447265625 4.5 L 59.8447265625 8.5 L 55.8447265625 8.5 L 55.8447265625 5.5 L 51.8447265625 5.5 L 51.8447265625 15.5 L 55.8447265625 15.5 L 55.8447265625 12.5 L 59.8447265625 12.5 L 59.8447265625 16.5 A 4 4 90 0 1 55.8447265625 20.5 L 51.8447265625 20.5 L 18.5 20.5 L 17.5 20.5 L 17.5 22.5 L 9.5 22.5 L 9.5 20.5 L 8.5 20.5 L 4.5 20.5 A 4 4 90 0 1 0.5 16.5 L 0.5 12.5 L 0.5 8.5 z" style="fill:#88e20a;fill-opacity:1;stroke:#004100;stroke-width:1;stroke-linecap:round;stroke-opacity:1;" /><text style="font-size:10px;fill:#000000;font-family:sans-serif;text-anchor:end"><tspan x="49.678059895833336" y="13.5">forward</tspan></text><text style="font-size:6.666666666666667px;fill:#000000;font-family:sans-serif;text-anchor:end"><tspan x="49.678059895833336" y="11.25"></tspan></text></g></g><g transform="translate(245.51708984375, 332)"><g transform="scale(1.5, 1.5)"><path d="m8.5 0.5 L 68.5 0.5 L 68.5 20.5 L 8.5 20.5 L 8.5 12.5 L 8.5 11.5 L 2.5 11.5 L 2.5 14.5 L 0.5 14.5 L 0.5 6.5 L 2.5 6.5 L 2.5 9.5 L 8.5 9.5 L 8.5 8.5 z" style="fill:#ff9db5;fill-opacity:1;stroke:#73003b;stroke-width:1;stroke-linecap:round;stroke-opacity:1;" /><text style="font-size:10px;fill:#000000;font-family:sans-serif;text-anchor:start"><tspan x="13.333333333333334" y="13.833333333333334">100</tspan></text></g></g><g transform="translate(167, 458)"><g transform="scale(1.5, 1.5)"><path d="m0.5 8.5 L 0.5 4.5 A 4 4 90 0 1 4.5 0.5 L 8.5 0.5 L 8.5 2.5 L 18.5 2.5 L 18.5 0.5 L 51.8447265625 0.5 L 55.8447265625 0.5 A 4 4 90 0 1 59.8447265625 4.5 L 59.8447265625 8.5 L 55.8447265625 8.5 L 55.8447265625 5.5 L 51.8447265625 5.5 L 51.8447265625 15.5 L 55.8447265625 15.5 L 55.8447265625 12.5 L 59.8447265625 12.5 L 59.8447265625 16.5 A 4 4 90 0 1 55.8447265625 20.5 L 51.8447265625 20.5 L 18.5 20.5 L 17.5 20.5 L 17.5 22.5 L 9.5 22.5 L 9.5 20.5 L 8.5 20.5 L 4.5 20.5 A 4 4 90 0 1 0.5 16.5 L 0.5 12.5 L 0.5 8.5 z" style="fill:#88e20a;fill-opacity:1;stroke:#004100;stroke-width:1;stroke-linecap:round;stroke-opacity:1;" /><text style="font-size:10px;fill:#000000;font-family:sans-serif;text-anchor:end"><tspan x="49.678059895833336" y="13.5">forward</tspan></text><text style="font-size:6.666666666666667px;fill:#000000;font-family:sans-serif;text-anchor:end"><tspan x="49.678059895833336" y="11.25"></tspan></text></g></g><g transform="translate(245.51708984375, 458)"><g transform="scale(1.5, 1.5)"><path d="m8.5 0.5 L 68.5 0.5 L 68.5 20.5 L 8.5 20.5 L 8.5 12.5 L 8.5 11.5 L 2.5 11.5 L 2.5 14.5 L 0.5 14.5 L 0.5 6.5 L 2.5 6.5 L 2.5 9.5 L 8.5 9.5 L 8.5 8.5 z" style="fill:#ff9db5;fill-opacity:1;stroke:#73003b;stroke-width:1;stroke-linecap:round;stroke-opacity:1;" /><text style="font-size:10px;fill:#000000;font-family:sans-serif;text-anchor:start"><tspan x="13.333333333333334" y="13.833333333333334">100</tspan></text></g></g><g transform="translate(167, 489.5)"><g transform="scale(1.5, 1.5)"><path d="m0.5 8.5 L 0.5 4.5 A 4 4 90 0 1 4.5 0.5 L 8.5 0.5 L 8.5 2.5 L 18.5 2.5 L 18.5 0.5 L 48.5 0.5 L 52.5 0.5 A 4 4 90 0 1 56.5 4.5 L 56.5 8.5 L 52.5 8.5 L 52.5 5.5 L 48.5 5.5 L 48.5 15.5 L 52.5 15.5 L 52.5 12.5 L 56.5 12.5 L 56.5 16.5 A 4 4 90 0 1 52.5 20.5 L 48.5 20.5 L 18.5 20.5 L 17.5 20.5 L 17.5 22.5 L 9.5 22.5 L 9.5 20.5 L 8.5 20.5 L 4.5 20.5 A 4 4 90 0 1 0.5 16.5 L 0.5 12.5 L 0.5 8.5 z" style="fill:#88e20a;fill-opacity:1;stroke:#004100;stroke-width:1;stroke-linecap:round;stroke-opacity:1;" /><text style="font-size:10px;fill:#000000;font-family:sans-serif;text-anchor:end"><tspan x="46.333333333333336" y="13.5">right</tspan></text><text style="font-size:6.666666666666667px;fill:#000000;font-family:sans-serif;text-anchor:end"><tspan x="46.333333333333336" y="11.25"></tspan></text></g></g><g transform="translate(240.5, 489.5)"><g transform="scale(1.5, 1.5)"><path d="m8.5 0.5 L 68.5 0.5 L 68.5 20.5 L 8.5 20.5 L 8.5 12.5 L 8.5 11.5 L 2.5 11.5 L 2.5 14.5 L 0.5 14.5 L 0.5 6.5 L 2.5 6.5 L 2.5 9.5 L 8.5 9.5 L 8.5 8.5 z" style="fill:#ff9db5;fill-opacity:1;stroke:#73003b;stroke-width:1;stroke-linecap:round;stroke-opacity:1;" /><text style="font-size:10px;fill:#000000;font-family:sans-serif;text-anchor:start"><tspan x="13.333333333333334" y="13.833333333333334">45</tspan></text></g></g></svg>