<?xml version="1.0" encoding="UTF-8" standalone="no"?><svg xmlns="http://www.w3.org/2000/svg" width="1440" height="712"><g transform="scale(1,1)"></g><path d="M 741.6,500 841.1999999999999,500 969.5999999999999,836.0000000000001 1179.6,836.0000000000001 1032,472.4 C 1116,437.6 1179.6,363.2 1179.6,212.00000000000003" style="stroke-linecap:round;fill:none;stroke:rgb(255,0,104);stroke-opacity:1;stroke-width:6pt;" /><path d="M 1179.6,212.00000000000003 1179.6,188.00000000000003 C 1179.6,-60.39999999999998 1006.8,-99.99999999999997 854.4,-99.99999999999997" style="stroke-linecap:round;fill:none;stroke:rgb(255,0,104);stroke-opacity:1;stroke-width:6pt;" /><path d="M 854.4,-99.99999999999997 547.1999999999999,-99.99999999999997 547.1999999999999,836.0000000000001 741.6,836.0000000000001 741.6,500 " style="stroke-linecap:round;fill:none;stroke:rgb(255,0,104);stroke-opacity:1;stroke-width:6pt;" /><path d="M 741.6,332 741.6,68.00000000000001 862.8,68.00000000000001 C 915.6,68.00000000000001 982.8,88.40000000000002 982.8,194.00000000000003" style="stroke-linecap:round;fill:none;stroke:rgb(255,0,104);stroke-opacity:1;stroke-width:6pt;" /><path d="M 982.8,194.00000000000003 982.8,206.00000000000003 C 982.8,311.6 915.6,332 862.8,332" style="stroke-linecap:round;fill:none;stroke:rgb(255,0,104);stroke-opacity:1;stroke-width:6pt;" /><path d="M 862.8,332 741.6,332 " style="stroke-linecap:round;fill:none;stroke:rgb(255,0,104);stroke-opacity:1;stroke-width:6pt;" /></svg>