<?xml version="1.0" standalone="no"?>
<!DOCTYPE svg PUBLIC "-//W3C//DTD SVG 20010904//EN"
 "http://www.w3.org/TR/2001/REC-SVG-20010904/DTD/svg10.dtd">
<svg version="1.0" xmlns="http://www.w3.org/2000/svg"
 width="400.000000pt" height="562.000000pt" viewBox="0 0 400.000000 562.000000"
 preserveAspectRatio="xMidYMid meet">
<metadata>
Created by potrace 1.15, written by Peter Selinger 2001-2017
</metadata>
<g transform="translate(0.000000,562.000000) scale(0.100000,-0.100000)"
fill="#000000" stroke="none">
<path d="M20 5583 c1 -22 27 -55 125 -153 115 -115 125 -128 125 -162 0 -20
-4 -39 -9 -42 -5 -3 -59 44 -120 104 -61 61 -113 110 -116 110 -3 0 -5 -26 -5
-58 l0 -59 120 -121 120 -121 0 -51 c0 -27 -3 -50 -6 -50 -3 0 -57 53 -120
117 l-114 118 0 -66 0 -66 115 -114 115 -115 0 -54 c0 -29 -2 -51 -5 -49 -2 2
-54 53 -115 113 l-110 110 0 -65 0 -64 124 -125 c74 -75 126 -136 130 -153 5
-19 3 -26 -6 -25 -8 2 -12 -6 -10 -21 1 -14 0 -23 -2 -20 -3 2 -57 55 -121
118 l-115 115 0 -63 0 -63 107 -108 108 -108 0 -56 0 -55 -107 108 -108 107 0
-63 0 -64 110 -111 c61 -62 110 -120 110 -129 0 -10 -5 -30 -10 -44 -10 -27
-10 -26 -110 74 l-100 100 0 -64 0 -64 110 -110 c98 -98 110 -113 110 -144 0
-20 3 -42 6 -51 14 -37 -23 -9 -121 91 l-105 107 0 -65 0 -66 115 -114 c115
-114 115 -115 115 -163 0 -26 -4 -46 -10 -44 -5 2 -57 50 -115 107 l-105 104
0 -64 0 -64 120 -120 c120 -119 120 -120 120 -167 0 -27 -3 -48 -7 -48 -4 0
-58 51 -120 112 l-113 113 0 -65 0 -65 114 -113 c112 -111 128 -136 118 -184
-2 -10 -9 -18 -15 -18 -7 0 -57 46 -112 101 l-100 100 -3 -61 -3 -61 114 -115
c116 -116 127 -134 127 -205 0 -26 -9 -20 -115 86 -64 63 -118 115 -120 115
-3 0 -5 -26 -5 -59 l0 -59 115 -116 c117 -118 122 -128 106 -185 -6 -23 -13
-18 -107 77 -56 56 -104 102 -108 102 -3 0 -6 -26 -6 -57 l0 -57 110 -111 110
-112 0 -54 0 -54 -103 103 c-56 56 -106 102 -110 102 -4 0 -7 -26 -7 -58 l0
-59 109 -105 c64 -63 113 -119 120 -139 12 -34 15 -82 6 -91 -3 -3 -54 44
-112 103 -59 60 -110 109 -115 109 -4 0 -8 -26 -8 -57 l0 -58 115 -113 114
-114 -1 -49 c0 -27 -3 -49 -7 -49 -3 0 -51 45 -105 100 -54 55 -103 100 -107
100 -5 0 -9 -25 -9 -56 l0 -55 115 -115 c108 -107 115 -116 115 -153 0 -22 -4
-42 -9 -45 -5 -3 -54 39 -110 94 -56 55 -104 100 -106 100 -3 0 -5 -26 -5 -57
l0 -58 120 -122 c117 -119 120 -123 119 -165 -1 -24 -3 -46 -5 -49 -2 -4 -52
42 -111 102 -60 60 -111 109 -115 109 -5 0 -8 -26 -8 -58 l0 -57 110 -110 c86
-86 110 -116 110 -137 0 -15 4 -29 8 -32 4 -2 9 -19 10 -38 2 -32 -1 -30 -110
80 -62 61 -117 112 -121 112 -4 0 -7 -26 -7 -58 l0 -57 115 -115 c115 -114
115 -115 115 -162 0 -27 -3 -48 -7 -48 -4 0 -56 48 -115 107 l-108 108 0 -66
0 -65 120 -118 119 -118 -6 -44 c-3 -24 -8 -44 -12 -44 -3 0 -53 47 -110 105
-57 58 -106 105 -108 105 -1 0 -3 -26 -3 -59 l0 -58 111 -111 110 -111 -3 -52
-3 -53 -103 102 c-56 56 -104 102 -107 102 -3 0 -5 -26 -5 -58 l0 -57 110
-110 c106 -105 110 -111 110 -152 l0 -43 44 0 c37 0 48 -5 67 -30 13 -16 29
-30 34 -31 6 -1 51 -45 100 -99 l90 -98 63 -1 c34 0 62 1 62 5 0 3 -58 63
-129 134 -71 71 -126 131 -123 134 3 4 -1 6 -8 6 -11 0 -10 5 3 18 17 16 19
16 31 0 7 -10 25 -18 40 -18 21 0 57 -30 168 -140 l141 -140 58 0 c33 0 59 1
59 3 0 2 -57 60 -127 130 -70 69 -125 129 -122 132 3 3 29 2 57 -2 49 -8 57
-14 180 -135 l129 -128 57 0 c32 0 56 4 54 10 -1 5 -60 67 -131 138 -127 129
-134 142 -79 142 15 0 15 -2 2 -10 -8 -5 -10 -10 -4 -10 5 0 18 6 28 13 16 12
33 -3 164 -135 l146 -148 65 0 66 0 -133 133 c-73 73 -130 136 -126 140 4 4
-2 7 -13 7 -12 0 -23 7 -27 15 -4 11 1 15 19 15 13 0 27 5 30 10 3 6 12 10 18
10 14 0 21 -7 207 -194 l135 -136 57 0 c32 0 58 3 58 7 0 4 -55 62 -121 129
-115 115 -120 123 -100 133 12 7 25 9 30 6 5 -3 11 1 14 7 2 8 68 -51 152
-134 l148 -148 59 0 c32 0 58 3 58 6 0 4 -55 63 -122 131 -145 147 -137 138
-115 130 11 -4 21 0 29 13 7 11 16 20 20 20 5 0 75 -68 157 -150 l149 -150 61
0 c34 0 61 2 61 4 0 2 -39 41 -86 87 -47 46 -105 104 -127 128 -23 24 -48 50
-55 57 -11 12 -10 14 6 14 11 0 33 3 49 6 27 5 40 -5 180 -145 l151 -151 61 0
c33 0 60 3 60 8 -1 4 -66 69 -144 144 -78 76 -140 140 -137 143 3 3 0 5 -6 5
-16 0 -15 17 1 17 6 0 17 2 22 3 33 10 109 -47 240 -179 l140 -141 64 0 65 0
-150 150 c-140 141 -168 173 -147 169 4 -1 20 1 35 5 15 4 34 4 42 -1 9 -5 87
-80 174 -166 l158 -157 57 0 c31 0 57 3 57 6 0 3 -68 74 -150 157 -87 87 -146
153 -140 157 6 4 31 4 55 0 42 -6 57 -19 201 -163 l157 -157 58 0 c33 0 59 3
59 6 0 3 -64 70 -142 148 -190 189 -181 176 -121 176 l50 0 165 -165 166 -165
61 0 c33 0 61 2 61 3 0 2 -54 57 -120 122 -66 66 -120 125 -120 132 0 7 -5 13
-12 13 -6 0 -19 8 -28 17 -15 17 -14 19 19 30 23 8 37 9 39 3 2 -6 7 -8 12 -5
5 3 79 -67 166 -155 l157 -160 64 0 c35 0 62 3 62 8 -1 4 -61 64 -134 135 -73
70 -131 127 -128 127 2 0 -11 14 -29 31 -23 21 -26 27 -11 20 12 -6 41 -11 65
-11 42 0 46 -3 198 -155 l155 -155 62 0 c35 0 63 4 63 9 0 5 -4 11 -10 13 -5
1 -77 70 -160 153 -158 156 -161 162 -88 164 18 1 29 -5 33 -19 4 -11 21 -26
38 -34 18 -8 92 -75 166 -150 126 -128 137 -136 173 -136 34 0 38 2 38 26 0
20 -30 56 -134 160 -117 116 -162 174 -137 174 4 0 5 15 3 32 -5 31 -4 32 14
18 10 -8 70 -65 132 -127 62 -62 114 -113 117 -113 3 0 5 27 5 60 l0 61 -131
128 -130 128 -6 59 c-7 71 -17 77 140 -83 62 -62 115 -113 120 -113 4 0 7 27
7 59 l0 59 -130 128 c-116 114 -130 132 -136 170 -13 86 -6 83 134 -57 l132
-134 0 65 0 65 -128 128 -129 127 -1 56 0 56 81 -79 c45 -43 100 -99 122 -125
22 -26 43 -47 48 -47 4 -1 7 26 7 60 l0 61 -117 120 c-65 65 -120 121 -122
123 -2 2 -5 30 -7 62 l-4 57 37 -34 c21 -19 40 -38 43 -42 16 -20 162 -168
165 -168 3 0 5 28 5 62 l0 61 -131 129 c-92 92 -128 133 -121 141 6 7 8 30 6
52 l-5 40 121 -122 c66 -68 123 -123 125 -123 3 0 5 27 5 60 l0 59 -130 131
-130 132 2 44 c2 24 5 44 8 44 4 0 58 -52 120 -115 63 -63 118 -115 123 -115
4 0 7 26 7 58 l0 58 -119 120 c-75 75 -122 130 -127 148 -4 19 -3 27 3 23 6
-4 13 3 17 16 5 20 15 13 103 -73 54 -52 99 -98 101 -102 12 -24 22 0 22 50
l0 57 -125 125 -124 124 1 54 2 54 119 -121 c66 -67 122 -121 124 -121 2 0 3
28 3 63 l0 63 -120 118 -120 119 2 48 c0 27 4 49 7 49 4 0 56 -50 116 -110 59
-60 110 -110 111 -110 2 0 4 27 4 60 l0 59 -125 125 c-69 69 -125 130 -125
136 0 6 5 8 10 5 9 -6 15 22 11 53 -1 6 1 12 4 12 3 0 52 -47 109 -105 58 -58
107 -105 110 -105 3 0 6 26 6 58 l0 57 -117 117 c-112 113 -116 118 -117 162
-1 24 2 47 6 51 4 4 57 -44 117 -106 l111 -114 0 65 0 65 -117 117 -116 116
-3 57 -2 57 119 -119 119 -119 0 65 0 66 -115 115 -115 115 0 55 0 55 115
-116 115 -116 0 64 0 64 -122 125 c-123 124 -123 125 -124 174 -1 28 1 50 5
50 3 0 47 -42 97 -93 50 -50 103 -103 118 -116 l26 -24 0 61 0 61 -120 121
-120 121 0 49 c0 28 3 50 6 50 4 0 58 -52 120 -116 l114 -116 0 64 0 65 -125
124 -125 124 0 48 c0 31 4 47 11 45 6 -2 62 -55 125 -118 l114 -114 0 64 0 65
-116 116 -115 115 3 52 3 52 113 -112 112 -112 0 64 0 64 -115 116 c-75 77
-115 124 -115 138 0 12 5 22 10 22 6 0 10 10 10 22 0 17 22 0 103 -80 l102
-102 3 62 3 62 -107 105 -107 104 -6 58 c-4 33 -5 59 -2 59 3 0 53 -48 111
-106 l105 -107 3 61 3 61 -115 114 c-113 112 -115 115 -109 151 3 20 9 39 14
42 4 2 53 -40 109 -95 l100 -100 0 63 0 62 -101 102 c-72 72 -103 111 -108
134 -6 27 -11 33 -32 31 -19 -2 -54 28 -173 148 l-150 150 -60 -3 -60 -3 137
-137 c75 -76 137 -139 137 -140 0 -2 -24 -3 -54 -3 l-55 0 -140 143 -141 143
-61 -3 -61 -3 24 -25 c14 -14 71 -70 128 -125 126 -123 157 -160 136 -168 -8
-3 -17 1 -20 9 -3 8 -15 14 -26 14 -13 0 -19 4 -14 11 9 15 -16 30 -39 23 -27
-8 -56 15 -185 147 l-116 119 -65 0 -66 0 125 -126 c78 -79 116 -123 102 -119
-18 5 -27 2 -38 -14 -15 -21 -41 -31 -29 -11 3 6 -2 10 -11 10 -10 0 -15 2
-12 5 3 3 -40 49 -95 103 -55 53 -111 109 -125 125 -21 24 -30 27 -90 27 l-66
0 145 -145 c79 -80 144 -151 144 -158 0 -8 -15 -12 -44 -11 -43 1 -47 4 -199
157 l-155 157 -66 0 -66 0 131 -129 131 -128 -21 -28 -20 -28 27 5 c14 3 24 1
21 -3 -3 -5 3 -9 13 -10 11 0 7 -4 -10 -9 -37 -11 -60 -2 -54 21 5 20 -6 32
-37 36 -11 2 -80 64 -155 138 l-135 135 -62 0 -63 0 145 -144 c79 -79 144
-146 144 -149 0 -2 -18 -7 -40 -11 -48 -8 -42 -12 -222 167 l-138 137 -61 0
c-73 0 -82 15 89 -156 l125 -125 -26 -14 c-15 -8 -31 -16 -35 -19 -4 -2 -14 0
-22 6 -12 8 -12 9 3 4 11 -3 16 -2 12 4 -3 6 -12 10 -19 10 -8 0 -79 65 -158
146 l-144 145 -63 -3 -63 -3 146 -145 c81 -80 145 -151 144 -159 -2 -8 -16
-18 -33 -22 -28 -8 -37 -1 -201 162 l-171 170 -62 -3 -62 -3 146 -145 c80 -80
145 -151 145 -157 0 -7 -17 -9 -47 -6 -46 5 -53 10 -203 159 l-155 154 -58 0
c-31 0 -57 -3 -57 -7 0 -3 68 -74 152 -156 l152 -150 -23 -18 c-13 -11 -28
-19 -35 -18 -7 0 -7 2 2 6 32 13 -9 57 -45 48 -21 -5 -45 15 -176 145 l-151
150 -58 0 c-32 0 -58 -3 -58 -6 0 -4 63 -68 140 -144 77 -76 140 -143 140
-149 0 -5 -19 -11 -42 -13 l-43 -3 -157 158 -158 157 -60 0 c-33 0 -60 -2 -60
-4 0 -2 71 -75 158 -161 117 -119 153 -159 139 -162 -9 -3 -15 -9 -12 -14 10
-14 -9 -10 -31 7 -17 14 -17 15 -1 10 14 -4 18 -1 15 12 -3 13 -14 17 -48 17
-45 1 -46 2 -189 148 l-144 147 -64 0 c-34 0 -63 -4 -63 -9 0 -5 4 -11 9 -13
12 -4 261 -248 254 -248 -3 0 6 -9 21 -21 34 -26 33 -36 -4 -44 -44 -10 -74
13 -245 185 l-150 150 -58 0 c-34 0 -57 -4 -55 -10 2 -5 72 -79 157 -165 150
-150 158 -163 104 -156 -7 1 -13 -3 -13 -9 0 -27 -35 3 -198 165 -166 165
-178 175 -214 175 -35 0 -38 -2 -38 -27z m1848 -1857 c6 -3 13 -2 16 2 6 10
391 8 506 -3 41 -4 80 -11 87 -16 7 -7 23 -5 46 4 19 8 39 12 46 8 6 -4 48 -3
93 3 46 5 99 9 118 9 198 -3 269 -8 303 -20 20 -9 37 -19 37 -23 0 -16 -37
-20 -210 -19 -199 0 -180 0 -440 0 -107 -1 -222 -1 -255 -1 -33 0 -94 -2 -136
-6 -53 -4 -84 -2 -100 6 -18 10 -43 10 -120 0 -80 -11 -101 -11 -114 0 -10 8
-19 9 -27 3 -7 -5 -75 -10 -151 -11 -76 -1 -141 -3 -145 -5 -6 -3 -494 -2
-532 2 -12 1 -12 3 2 17 10 10 46 19 99 25 46 5 85 14 87 18 2 5 16 6 32 1 17
-5 32 -5 34 -1 6 8 270 6 285 -3 5 -4 12 -2 16 3 3 6 40 10 81 10 42 0 79 2
82 5 7 8 246 1 260 -8z m278 -1716 c15 -6 26 -5 30 1 8 14 166 2 175 -13 4 -6
12 -7 20 -2 17 10 54 7 92 -8 18 -7 31 -7 40 0 17 13 61 26 54 16 -6 -11 80
-9 106 1 21 9 96 11 242 7 117 -4 167 -11 159 -23 -3 -5 2 -6 10 -3 8 3 23 1
32 -4 16 -9 16 -10 -2 -20 -18 -10 -222 -17 -414 -15 -52 1 -232 0 -400 -1
-216 -1 -312 2 -330 11 -18 8 -38 9 -70 2 -80 -18 -938 -33 -1000 -18 l-25 6
33 17 c19 10 48 16 65 15 30 -2 81 8 101 19 12 7 106 6 113 -2 3 -3 12 -1 18
4 9 7 27 7 56 1 24 -5 47 -7 51 -4 5 2 58 6 118 7 60 1 112 4 115 7 9 10 587
8 611 -1z"/>
<path d="M3550 5604 c0 -4 99 -106 220 -227 l220 -221 0 65 0 65 -162 162
-162 162 -58 0 c-32 0 -58 -3 -58 -6z"/>
<path d="M3848 5537 c40 -39 76 -76 80 -82 4 -5 20 -21 35 -34 l27 -24 0 69
c-1 67 -2 70 -35 94 -19 14 -35 31 -35 38 0 8 -21 12 -72 12 l-73 0 73 -73z"/>
<path d="M20 388 l0 -63 163 -163 163 -163 61 3 60 3 -224 223 -223 224 0 -64z"/>
<path d="M20 148 c0 -64 0 -65 46 -107 44 -41 47 -42 105 -39 l60 3 -105 104
-106 104 0 -65z"/>
</g>
</svg>
