<?xml version="1.0" ?><!DOCTYPE svg  PUBLIC '-//W3C//DTD SVG 1.1//EN'  'http://www.w3.org/Graphics/SVG/1.1/DTD/svg11.dtd' [
	<!ENTITY stroke_color "#666666">
	<!ENTITY fill_color "#ffffff">
]><svg enable-background="new 0 0 55 55" height="55px" id="svg13" style="" version="1.1" viewBox="0 0 55 55" width="55px" x="0px" xml:space="preserve" xmlns="http://www.w3.org/2000/svg" xmlns:cc="http://creativecommons.org/ns#" xmlns:dc="http://purl.org/dc/elements/1.1/" xmlns:rdf="http://www.w3.org/1999/02/22-rdf-syntax-ns#" xmlns:svg="http://www.w3.org/2000/svg" y="0px"><metadata id="metadata19" style=""><rdf:RDF style=""><cc:Work rdf:about="" style=""><dc:format style="">image/svg+xml</dc:format><dc:type rdf:resource="http://purl.org/dc/dcmitype/StillImage" style=""/><dc:title style=""/></cc:Work></rdf:RDF></metadata><defs id="defs17" style=""/><g id="g974" style="" transform="matrix(1.3643985,0,0,1.3643985,-9.8489633,-10.26233)"><g id="g914" style="" transform="translate(-2)"><circle cx="14.247881" cy="11.853814" id="path828" r="2.5" style="fill:&stroke_color;;stroke-width:0.625"/><rect height="5" id="rect842" style="stroke-width:0.625" width="5" x="12" y="17.265358"/><rect height="5" id="rect844" style="stroke-width:0.625" width="5" x="12" y="25.176907"/><rect height="5" id="rect846" style="stroke-width:0.625" width="5" x="12" y="33.088455"/><rect height="5" id="rect848" style="stroke-width:0.625" width="5" x="12" y="41"/></g><g id="g921" style="" transform="translate(-0.63109207)"><rect height="5" id="rect850" style="stroke-width:0.625" width="5" x="18" y="9.3538141"/><rect height="5" id="rect854" style="stroke-width:0.625" width="5" x="18" y="25.176907"/><rect height="5" id="rect856" style="stroke-width:0.625" width="5" x="18" y="33.088455"/><rect height="5" id="rect858" style="stroke-width:0.625" width="5" x="18" y="41"/><circle cx="20.540255" cy="19.765358" id="circle890" r="2.5" style="fill:&stroke_color;;stroke-width:0.625"/></g><g id="g928" style="" transform="translate(0.91260338)"><rect height="5" id="rect860" style="stroke-width:0.625" width="5" x="24" y="9.3538141"/><rect height="5" id="rect862" style="stroke-width:0.625" width="5" x="24" y="17.265358"/><rect height="5" id="rect866" style="stroke-width:0.625" width="5" x="24" y="33.088455"/><rect height="5" id="rect868" style="stroke-width:0.625" width="5" x="24" y="41"/><circle cx="26.483051" cy="27.676907" id="circle892" r="2.5" style="fill:&stroke_color;;stroke-width:0.625"/></g><g id="g935" style="" transform="translate(2.4563026)"><rect height="5" id="rect870" style="stroke-width:0.625" width="5" x="30" y="9.3538141"/><rect height="5" id="rect872" style="stroke-width:0.625" width="5" x="30" y="17.265358"/><rect height="5" id="rect874" style="stroke-width:0.625" width="5" x="30" y="25.176907"/><rect height="5" id="rect878" style="stroke-width:0.625" width="5" x="30" y="41"/><circle cx="32.425846" cy="35.588455" id="circle894" r="2.5" style="fill:&stroke_color;;stroke-width:0.625"/></g><g id="g942" style="" transform="translate(4)"><rect height="5" id="rect880" style="stroke-width:0.625" width="5" x="36" y="9.3538141"/><rect height="5" id="rect882" style="stroke-width:0.625" width="5" x="36" y="17.265358"/><rect height="5" id="rect884" style="stroke-width:0.625" width="5" x="36" y="25.176907"/><rect height="5" id="rect886" style="stroke-width:0.625" width="5" x="36" y="33.088455"/><circle cx="38.368641" cy="43.5" id="circle896" r="2.5" style="fill:&stroke_color;;stroke-width:0.625"/></g></g></svg>
