<svg xmlns="http://www.w3.org/2000/svg" width="1280" height="928"><g transform="translate(250, 150)"><g transform="scale(1.5, 1.5)"><path d="m0.5 14.5 L 0.5 10.5 A 4 4 90 0 1 4.5 6.5 L 8.5 6.5 L 13.5 0.5 L 18.5 6.5 L 27.5 6.5 L 57.5 6.5 L 61.5 6.5 A 4 4 90 0 1 65.5 10.5 L 65.5 14.5 L 65.5 18.5 L 65.5 22.5 A 4 4 90 0 1 61.5 26.5 L 57.5 26.5 L 27.5 26.5 L 26.5 26.5 L 26.5 28.5 L 18.5 28.5 L 18.5 26.5 L 17.5 26.5 L 13.5 26.5 A 5 5 90 0 0 8.5 31.5 L 8.5 35.5 L 8.5 39.5 L 8.5 207.5 L 8.5 211.5 A 5 5 90 0 0 13.5 216.5 L 17.5 216.5 L 17.5 218.5 L 27.5 218.5 L 27.5 216.5 L 35.5 216.5 L 35.5 222.5 L 35.5 228.5 L 35.5 232.5 A 4 4 90 0 1 31.5 236.5 L 27.5 236.5 L 18.5 236.5 L 13.5 242.5 L 8.5 236.5 L 4.5 236.5 A 4 4 90 0 1 0.5 232.5 L 0.5 228.5 z" style="fill:#ffdf37;fill-opacity:1;stroke:#644300;stroke-width:1;stroke-linecap:round;stroke-opacity:1;" /><text style="font-size:10px;fill:#000000;font-family:sans-serif;text-anchor:start"><tspan x="5.333333333333333" y="21.5">start</tspan></text></g></g><g transform="translate(263.5, 190.5)"><g transform="scale(1.5, 1.5)"><path d="m0.5 8.5 L 0.5 4.5 A 4 4 90 0 1 4.5 0.5 L 8.5 0.5 L 8.5 2.5 L 18.5 2.5 L 18.5 0.5 L 48.5 0.5 L 52.5 0.5 A 4 4 90 0 1 56.5 4.5 L 56.5 8.5 L 52.5 8.5 L 52.5 5.5 L 48.5 5.5 L 48.5 15.5 L 52.5 15.5 L 52.5 12.5 L 56.5 12.5 L 56.5 16.5 A 4 4 90 0 1 52.5 20.5 L 48.5 20.5 L 18.5 20.5 L 17.5 20.5 L 17.5 22.5 L 9.5 22.5 L 9.5 20.5 L 8.5 20.5 L 4.5 20.5 A 4 4 90 0 1 0.5 16.5 L 0.5 12.5 L 0.5 8.5 z" style="fill:#88e20a;fill-opacity:1;stroke:#004100;stroke-width:1;stroke-linecap:round;stroke-opacity:1;" /><text style="font-size:10px;fill:#000000;font-family:sans-serif;text-anchor:end"><tspan x="46.333333333333336" y="13.5">back</tspan></text><text style="font-size:6.666666666666667px;fill:#000000;font-family:sans-serif;text-anchor:end"><tspan x="46.333333333333336" y="11.25"></tspan></text></g></g><g transform="translate(337, 190.5)"><g transform="scale(1.5, 1.5)"><path d="m8.5 0.5 L 68.5 0.5 L 68.5 20.5 L 8.5 20.5 L 8.5 12.5 L 8.5 11.5 L 2.5 11.5 L 2.5 14.5 L 0.5 14.5 L 0.5 6.5 L 2.5 6.5 L 2.5 9.5 L 8.5 9.5 L 8.5 8.5 z" style="fill:#ff9db5;fill-opacity:1;stroke:#73003b;stroke-width:1;stroke-linecap:round;stroke-opacity:1;" /><text style="font-size:10px;fill:#000000;font-family:sans-serif;text-anchor:start"><tspan x="13.333333333333334" y="13.833333333333334">100</tspan></text></g></g><g transform="translate(263.5, 222)"><g transform="scale(1.5, 1.5)"><path d="m0.5 8.5 L 0.5 4.5 A 4 4 90 0 1 4.5 0.5 L 8.5 0.5 L 8.5 2.5 L 18.5 2.5 L 18.5 0.5 L 48.5 0.5 L 52.5 0.5 A 4 4 90 0 1 56.5 4.5 L 56.5 8.5 L 52.5 8.5 L 52.5 5.5 L 48.5 5.5 L 48.5 15.5 L 52.5 15.5 L 52.5 12.5 L 56.5 12.5 L 56.5 16.5 A 4 4 90 0 1 52.5 20.5 L 48.5 20.5 L 18.5 20.5 L 17.5 20.5 L 17.5 22.5 L 9.5 22.5 L 9.5 20.5 L 8.5 20.5 L 4.5 20.5 A 4 4 90 0 1 0.5 16.5 L 0.5 12.5 L 0.5 8.5 z" style="fill:#88e20a;fill-opacity:1;stroke:#004100;stroke-width:1;stroke-linecap:round;stroke-opacity:1;" /><text style="font-size:10px;fill:#000000;font-family:sans-serif;text-anchor:end"><tspan x="46.333333333333336" y="13.5">left</tspan></text><text style="font-size:6.666666666666667px;fill:#000000;font-family:sans-serif;text-anchor:end"><tspan x="46.333333333333336" y="11.25"></tspan></text></g></g><g transform="translate(337, 222)"><g transform="scale(1.5, 1.5)"><path d="m8.5 0.5 L 68.5 0.5 L 68.5 20.5 L 8.5 20.5 L 8.5 12.5 L 8.5 11.5 L 2.5 11.5 L 2.5 14.5 L 0.5 14.5 L 0.5 6.5 L 2.5 6.5 L 2.5 9.5 L 8.5 9.5 L 8.5 8.5 z" style="fill:#ff9db5;fill-opacity:1;stroke:#73003b;stroke-width:1;stroke-linecap:round;stroke-opacity:1;" /><text style="font-size:10px;fill:#000000;font-family:sans-serif;text-anchor:start"><tspan x="13.333333333333334" y="13.833333333333334">90</tspan></text></g></g><g transform="translate(263.5, 253.5)"><g transform="scale(1.5, 1.5)"><path d="m0.5 8.5 L 0.5 4.5 A 4 4 90 0 1 4.5 0.5 L 8.5 0.5 L 8.5 2.5 L 18.5 2.5 L 18.5 0.5 L 51.8447265625 0.5 L 55.8447265625 0.5 A 4 4 90 0 1 59.8447265625 4.5 L 59.8447265625 8.5 L 55.8447265625 8.5 L 55.8447265625 5.5 L 51.8447265625 5.5 L 51.8447265625 15.5 L 55.8447265625 15.5 L 55.8447265625 12.5 L 59.8447265625 12.5 L 59.8447265625 16.5 A 4 4 90 0 1 55.8447265625 20.5 L 51.8447265625 20.5 L 18.5 20.5 L 17.5 20.5 L 17.5 22.5 L 9.5 22.5 L 9.5 20.5 L 8.5 20.5 L 4.5 20.5 A 4 4 90 0 1 0.5 16.5 L 0.5 12.5 L 0.5 8.5 z" style="fill:#88e20a;fill-opacity:1;stroke:#004100;stroke-width:1;stroke-linecap:round;stroke-opacity:1;" /><text style="font-size:10px;fill:#000000;font-family:sans-serif;text-anchor:end"><tspan x="49.678059895833336" y="13.5">forward</tspan></text><text style="font-size:6.666666666666667px;fill:#000000;font-family:sans-serif;text-anchor:end"><tspan x="49.678059895833336" y="11.25"></tspan></text></g></g><g transform="translate(342.01708984375, 253.5)"><g transform="scale(1.5, 1.5)"><path d="m8.5 0.5 L 68.5 0.5 L 68.5 20.5 L 8.5 20.5 L 8.5 12.5 L 8.5 11.5 L 2.5 11.5 L 2.5 14.5 L 0.5 14.5 L 0.5 6.5 L 2.5 6.5 L 2.5 9.5 L 8.5 9.5 L 8.5 8.5 z" style="fill:#ff9db5;fill-opacity:1;stroke:#73003b;stroke-width:1;stroke-linecap:round;stroke-opacity:1;" /><text style="font-size:10px;fill:#000000;font-family:sans-serif;text-anchor:start"><tspan x="13.333333333333334" y="13.833333333333334">100</tspan></text></g></g><g transform="translate(263.5, 285)"><g transform="scale(1.5, 1.5)"><path d="m0.5 8.5 L 0.5 4.5 A 4 4 90 0 1 4.5 0.5 L 8.5 0.5 L 8.5 2.5 L 18.5 2.5 L 18.5 0.5 L 48.5 0.5 L 52.5 0.5 A 4 4 90 0 1 56.5 4.5 L 56.5 8.5 L 52.5 8.5 L 52.5 5.5 L 48.5 5.5 L 48.5 15.5 L 52.5 15.5 L 52.5 12.5 L 56.5 12.5 L 56.5 16.5 A 4 4 90 0 1 52.5 20.5 L 48.5 20.5 L 18.5 20.5 L 17.5 20.5 L 17.5 22.5 L 9.5 22.5 L 9.5 20.5 L 8.5 20.5 L 4.5 20.5 A 4 4 90 0 1 0.5 16.5 L 0.5 12.5 L 0.5 8.5 z" style="fill:#88e20a;fill-opacity:1;stroke:#004100;stroke-width:1;stroke-linecap:round;stroke-opacity:1;" /><text style="font-size:10px;fill:#000000;font-family:sans-serif;text-anchor:end"><tspan x="46.333333333333336" y="13.5">right</tspan></text><text style="font-size:6.666666666666667px;fill:#000000;font-family:sans-serif;text-anchor:end"><tspan x="46.333333333333336" y="11.25"></tspan></text></g></g><g transform="translate(337, 285)"><g transform="scale(1.5, 1.5)"><path d="m8.5 0.5 L 68.5 0.5 L 68.5 20.5 L 8.5 20.5 L 8.5 12.5 L 8.5 11.5 L 2.5 11.5 L 2.5 14.5 L 0.5 14.5 L 0.5 6.5 L 2.5 6.5 L 2.5 9.5 L 8.5 9.5 L 8.5 8.5 z" style="fill:#ff9db5;fill-opacity:1;stroke:#73003b;stroke-width:1;stroke-linecap:round;stroke-opacity:1;" /><text style="font-size:10px;fill:#000000;font-family:sans-serif;text-anchor:start"><tspan x="13.333333333333334" y="13.833333333333334">90</tspan></text></g></g><g transform="translate(263.5, 316.5)"><g transform="scale(1.5, 1.5)"><path d="m0.5 8.5 L 0.5 4.5 A 4 4 90 0 1 4.5 0.5 L 8.5 0.5 L 8.5 2.5 L 18.5 2.5 L 18.5 0.5 L 51.8447265625 0.5 L 55.8447265625 0.5 A 4 4 90 0 1 59.8447265625 4.5 L 59.8447265625 8.5 L 55.8447265625 8.5 L 55.8447265625 5.5 L 51.8447265625 5.5 L 51.8447265625 15.5 L 55.8447265625 15.5 L 55.8447265625 12.5 L 59.8447265625 12.5 L 59.8447265625 16.5 A 4 4 90 0 1 55.8447265625 20.5 L 51.8447265625 20.5 L 18.5 20.5 L 17.5 20.5 L 17.5 22.5 L 9.5 22.5 L 9.5 20.5 L 8.5 20.5 L 4.5 20.5 A 4 4 90 0 1 0.5 16.5 L 0.5 12.5 L 0.5 8.5 z" style="fill:#88e20a;fill-opacity:1;stroke:#004100;stroke-width:1;stroke-linecap:round;stroke-opacity:1;" /><text style="font-size:10px;fill:#000000;font-family:sans-serif;text-anchor:end"><tspan x="49.678059895833336" y="13.5">forward</tspan></text><text style="font-size:6.666666666666667px;fill:#000000;font-family:sans-serif;text-anchor:end"><tspan x="49.678059895833336" y="11.25"></tspan></text></g></g><g transform="translate(342.01708984375, 316.5)"><g transform="scale(1.5, 1.5)"><path d="m8.5 0.5 L 68.5 0.5 L 68.5 20.5 L 8.5 20.5 L 8.5 12.5 L 8.5 11.5 L 2.5 11.5 L 2.5 14.5 L 0.5 14.5 L 0.5 6.5 L 2.5 6.5 L 2.5 9.5 L 8.5 9.5 L 8.5 8.5 z" style="fill:#ff9db5;fill-opacity:1;stroke:#73003b;stroke-width:1;stroke-linecap:round;stroke-opacity:1;" /><text style="font-size:10px;fill:#000000;font-family:sans-serif;text-anchor:start"><tspan x="13.333333333333334" y="13.833333333333334">100</tspan></text></g></g><g transform="translate(263.5, 348)"><g transform="scale(1.5, 1.5)"><path d="m0.5 8.5 L 0.5 4.5 A 4 4 90 0 1 4.5 0.5 L 8.5 0.5 L 8.5 2.5 L 18.5 2.5 L 18.5 0.5 L 48.5 0.5 L 52.5 0.5 A 4 4 90 0 1 56.5 4.5 L 56.5 8.5 L 52.5 8.5 L 52.5 5.5 L 48.5 5.5 L 48.5 15.5 L 52.5 15.5 L 52.5 12.5 L 56.5 12.5 L 56.5 16.5 A 4 4 90 0 1 52.5 20.5 L 48.5 20.5 L 18.5 20.5 L 17.5 20.5 L 17.5 22.5 L 9.5 22.5 L 9.5 20.5 L 8.5 20.5 L 4.5 20.5 A 4 4 90 0 1 0.5 16.5 L 0.5 12.5 L 0.5 8.5 z" style="fill:#88e20a;fill-opacity:1;stroke:#004100;stroke-width:1;stroke-linecap:round;stroke-opacity:1;" /><text style="font-size:10px;fill:#000000;font-family:sans-serif;text-anchor:end"><tspan x="46.333333333333336" y="13.5">right</tspan></text><text style="font-size:6.666666666666667px;fill:#000000;font-family:sans-serif;text-anchor:end"><tspan x="46.333333333333336" y="11.25"></tspan></text></g></g><g transform="translate(337, 348)"><g transform="scale(1.5, 1.5)"><path d="m8.5 0.5 L 68.5 0.5 L 68.5 20.5 L 8.5 20.5 L 8.5 12.5 L 8.5 11.5 L 2.5 11.5 L 2.5 14.5 L 0.5 14.5 L 0.5 6.5 L 2.5 6.5 L 2.5 9.5 L 8.5 9.5 L 8.5 8.5 z" style="fill:#ff9db5;fill-opacity:1;stroke:#73003b;stroke-width:1;stroke-linecap:round;stroke-opacity:1;" /><text style="font-size:10px;fill:#000000;font-family:sans-serif;text-anchor:start"><tspan x="13.333333333333334" y="13.833333333333334">90</tspan></text></g></g><g transform="translate(263.5, 379.5)"><g transform="scale(1.5, 1.5)"><path d="m0.5 8.5 L 0.5 4.5 A 4 4 90 0 1 4.5 0.5 L 8.5 0.5 L 8.5 2.5 L 18.5 2.5 L 18.5 0.5 L 51.8447265625 0.5 L 55.8447265625 0.5 A 4 4 90 0 1 59.8447265625 4.5 L 59.8447265625 8.5 L 55.8447265625 8.5 L 55.8447265625 5.5 L 51.8447265625 5.5 L 51.8447265625 15.5 L 55.8447265625 15.5 L 55.8447265625 12.5 L 59.8447265625 12.5 L 59.8447265625 16.5 A 4 4 90 0 1 55.8447265625 20.5 L 51.8447265625 20.5 L 18.5 20.5 L 17.5 20.5 L 17.5 22.5 L 9.5 22.5 L 9.5 20.5 L 8.5 20.5 L 4.5 20.5 A 4 4 90 0 1 0.5 16.5 L 0.5 12.5 L 0.5 8.5 z" style="fill:#88e20a;fill-opacity:1;stroke:#004100;stroke-width:1;stroke-linecap:round;stroke-opacity:1;" /><text style="font-size:10px;fill:#000000;font-family:sans-serif;text-anchor:end"><tspan x="49.678059895833336" y="13.5">forward</tspan></text><text style="font-size:6.666666666666667px;fill:#000000;font-family:sans-serif;text-anchor:end"><tspan x="49.678059895833336" y="11.25"></tspan></text></g></g><g transform="translate(342.01708984375, 379.5)"><g transform="scale(1.5, 1.5)"><path d="m8.5 0.5 L 68.5 0.5 L 68.5 20.5 L 8.5 20.5 L 8.5 12.5 L 8.5 11.5 L 2.5 11.5 L 2.5 14.5 L 0.5 14.5 L 0.5 6.5 L 2.5 6.5 L 2.5 9.5 L 8.5 9.5 L 8.5 8.5 z" style="fill:#ff9db5;fill-opacity:1;stroke:#73003b;stroke-width:1;stroke-linecap:round;stroke-opacity:1;" /><text style="font-size:10px;fill:#000000;font-family:sans-serif;text-anchor:start"><tspan x="13.333333333333334" y="13.833333333333334">100</tspan></text></g></g><g transform="translate(263.5, 411)"><g transform="scale(1.5, 1.5)"><path d="m0.5 8.5 L 0.5 4.5 A 4 4 90 0 1 4.5 0.5 L 8.5 0.5 L 8.5 2.5 L 18.5 2.5 L 18.5 0.5 L 48.5 0.5 L 52.5 0.5 A 4 4 90 0 1 56.5 4.5 L 56.5 8.5 L 52.5 8.5 L 52.5 5.5 L 48.5 5.5 L 48.5 15.5 L 52.5 15.5 L 52.5 12.5 L 56.5 12.5 L 56.5 16.5 A 4 4 90 0 1 52.5 20.5 L 48.5 20.5 L 18.5 20.5 L 17.5 20.5 L 17.5 22.5 L 9.5 22.5 L 9.5 20.5 L 8.5 20.5 L 4.5 20.5 A 4 4 90 0 1 0.5 16.5 L 0.5 12.5 L 0.5 8.5 z" style="fill:#88e20a;fill-opacity:1;stroke:#004100;stroke-width:1;stroke-linecap:round;stroke-opacity:1;" /><text style="font-size:10px;fill:#000000;font-family:sans-serif;text-anchor:end"><tspan x="46.333333333333336" y="13.5">right</tspan></text><text style="font-size:6.666666666666667px;fill:#000000;font-family:sans-serif;text-anchor:end"><tspan x="46.333333333333336" y="11.25"></tspan></text></g></g><g transform="translate(337, 411)"><g transform="scale(1.5, 1.5)"><path d="m8.5 0.5 L 68.5 0.5 L 68.5 20.5 L 8.5 20.5 L 8.5 12.5 L 8.5 11.5 L 2.5 11.5 L 2.5 14.5 L 0.5 14.5 L 0.5 6.5 L 2.5 6.5 L 2.5 9.5 L 8.5 9.5 L 8.5 8.5 z" style="fill:#ff9db5;fill-opacity:1;stroke:#73003b;stroke-width:1;stroke-linecap:round;stroke-opacity:1;" /><text style="font-size:10px;fill:#000000;font-family:sans-serif;text-anchor:start"><tspan x="13.333333333333334" y="13.833333333333334">90</tspan></text></g></g><g transform="translate(263.5, 442.5)"><g transform="scale(1.5, 1.5)"><path d="m0.5 8.5 L 0.5 4.5 A 4 4 90 0 1 4.5 0.5 L 8.5 0.5 L 8.5 2.5 L 18.5 2.5 L 18.5 0.5 L 51.8447265625 0.5 L 55.8447265625 0.5 A 4 4 90 0 1 59.8447265625 4.5 L 59.8447265625 8.5 L 55.8447265625 8.5 L 55.8447265625 5.5 L 51.8447265625 5.5 L 51.8447265625 15.5 L 55.8447265625 15.5 L 55.8447265625 12.5 L 59.8447265625 12.5 L 59.8447265625 16.5 A 4 4 90 0 1 55.8447265625 20.5 L 51.8447265625 20.5 L 18.5 20.5 L 17.5 20.5 L 17.5 22.5 L 9.5 22.5 L 9.5 20.5 L 8.5 20.5 L 4.5 20.5 A 4 4 90 0 1 0.5 16.5 L 0.5 12.5 L 0.5 8.5 z" style="fill:#88e20a;fill-opacity:1;stroke:#004100;stroke-width:1;stroke-linecap:round;stroke-opacity:1;" /><text style="font-size:10px;fill:#000000;font-family:sans-serif;text-anchor:end"><tspan x="49.678059895833336" y="13.5">forward</tspan></text><text style="font-size:6.666666666666667px;fill:#000000;font-family:sans-serif;text-anchor:end"><tspan x="49.678059895833336" y="11.25"></tspan></text></g></g><g transform="translate(342.01708984375, 442.5)"><g transform="scale(1.5, 1.5)"><path d="m8.5 0.5 L 68.5 0.5 L 68.5 20.5 L 8.5 20.5 L 8.5 12.5 L 8.5 11.5 L 2.5 11.5 L 2.5 14.5 L 0.5 14.5 L 0.5 6.5 L 2.5 6.5 L 2.5 9.5 L 8.5 9.5 L 8.5 8.5 z" style="fill:#ff9db5;fill-opacity:1;stroke:#73003b;stroke-width:1;stroke-linecap:round;stroke-opacity:1;" /><text style="font-size:10px;fill:#000000;font-family:sans-serif;text-anchor:start"><tspan x="13.333333333333334" y="13.833333333333334">100</tspan></text></g></g></svg>