<?xml version="1.0" standalone="no"?>
<!DOCTYPE svg PUBLIC "-//W3C//DTD SVG 20010904//EN"
 "http://www.w3.org/TR/2001/REC-SVG-20010904/DTD/svg10.dtd">
<svg version="1.0" xmlns="http://www.w3.org/2000/svg"
 width="401.000000pt" height="563.000000pt" viewBox="0 0 401.000000 563.000000"
 preserveAspectRatio="xMidYMid meet">
<metadata>
Created by potrace 1.15, written by Peter Selinger 2001-2017
</metadata>
<g transform="translate(0.000000,563.000000) scale(0.100000,-0.100000)"
fill="#000000" stroke="none">
<path d="M20 5603 c0 -21 40 -66 206 -231 136 -135 202 -208 196 -214 -6 -6
-7 -22 -2 -39 5 -16 5 -31 0 -34 -13 -8 -40 24 -34 40 4 10 -1 15 -15 15 -14
0 -76 55 -184 162 l-162 163 -3 -62 -3 -62 101 -100 c96 -94 110 -121 53 -100
-13 5 -25 4 -28 -1 -9 -14 -34 0 -28 16 3 9 -2 14 -15 14 -11 0 -34 14 -51 32
l-31 32 0 -65 0 -65 518 -517 c284 -285 524 -522 532 -527 8 -5 11 -10 5 -11
-5 -1 -23 -3 -39 -5 -16 -2 -34 -5 -41 -8 -7 -2 -229 212 -494 477 l-481 482
0 -65 0 -65 623 -622 622 -623 -15 -40 -14 -41 -608 608 -608 608 0 -65 0 -65
590 -590 590 -590 0 -45 c0 -25 7 -54 15 -64 8 -11 15 -25 15 -30 0 -6 -4 -5
-9 3 -5 8 -276 282 -603 608 l-593 594 -3 -61 -3 -62 616 -615 c338 -339 614
-617 612 -619 -2 -2 -23 -6 -47 -9 l-43 -5 -565 565 c-311 311 -567 565 -569
565 -1 0 -3 -27 -3 -59 l0 -60 502 -502 c276 -277 497 -504 490 -507 -7 -2 -9
-9 -5 -14 4 -7 -2 -9 -15 -6 -12 4 -22 2 -22 -3 0 -5 -4 -9 -8 -9 -5 0 -215
207 -468 460 -252 253 -462 460 -466 460 -5 0 -7 -28 -6 -62 l1 -63 402 -395
c353 -347 445 -448 391 -427 -10 4 -14 0 -11 -14 7 -33 15 -39 58 -39 42 0 44
-2 327 -285 l284 -285 -55 0 -55 0 -664 665 c-366 366 -668 665 -672 665 -5 0
-8 -26 -8 -57 l0 -58 614 -613 c337 -337 609 -615 604 -618 -5 -3 -20 2 -35
11 -15 11 -36 15 -52 12 -25 -5 -74 41 -572 539 -299 299 -547 544 -551 544
-5 0 -8 -26 -8 -57 l0 -58 481 -480 481 -480 -48 -8 -47 -8 -424 423 c-233
233 -428 425 -433 426 -6 2 -10 -20 -10 -53 l0 -56 370 -370 c203 -203 370
-371 370 -373 0 -3 -20 -8 -44 -11 l-44 -7 -321 321 c-176 177 -323 321 -326
321 -3 0 -5 -27 -5 -59 l0 -59 245 -246 c221 -223 250 -258 200 -246 -5 2 -23
4 -40 5 -25 1 -62 34 -210 183 -99 100 -183 182 -187 182 -5 0 -8 -26 -8 -59
l0 -58 132 -132 c129 -129 132 -132 96 -126 -25 5 -38 4 -38 -4 0 -26 -30 -7
-100 64 -41 41 -78 75 -83 75 -4 0 -7 -26 -7 -58 1 -31 1 -612 1 -1290 l-1
-1232 1985 -3 1985 -2 0 1233 c0 1081 -2 1232 -15 1232 -8 0 -273 259 -590
575 -512 512 -572 575 -545 575 16 0 33 7 38 16 7 13 115 -89 555 -530 300
-300 548 -546 551 -546 4 0 6 27 6 59 l0 60 -624 625 c-516 516 -622 627 -610
637 8 6 14 17 14 25 0 7 4 15 8 18 5 3 276 -262 603 -589 326 -327 597 -595
601 -595 5 0 8 26 8 58 l0 58 -490 489 c-269 270 -490 493 -490 498 0 4 10 7
21 7 12 0 27 7 33 15 9 13 85 -58 461 -435 247 -247 453 -450 457 -450 5 0 8
26 8 58 l0 57 -490 490 c-269 269 -490 492 -490 496 0 5 5 11 10 14 6 3 10 21
10 38 0 30 34 -2 480 -448 l480 -480 0 65 0 65 -1112 1112 -1113 1113 -65 0
-65 0 615 -615 c338 -338 615 -616 614 -617 0 -2 -15 -19 -34 -38 -18 -19 -30
-30 -27 -24 3 6 -282 298 -634 650 l-639 639 -68 3 -67 3 670 -670 c453 -454
668 -674 662 -683 -4 -7 -11 -25 -17 -40 l-9 -27 -73 76 c-40 41 -71 80 -70
87 2 6 0 7 -4 3 -5 -4 -292 276 -639 623 l-631 631 -62 -3 -62 -3 635 -635
c349 -349 635 -638 635 -641 0 -12 -28 -30 -54 -35 -14 -2 -26 0 -26 6 0 5
-293 302 -650 660 l-651 651 -62 -3 -62 -3 693 -693 c380 -381 692 -695 692
-698 0 -2 -6 -20 -14 -38 l-14 -34 -80 76 c-43 43 -77 82 -75 88 4 11 -55 64
-71 64 -4 0 -285 279 -626 620 l-620 620 -62 0 -62 0 37 -38 c20 -21 37 -41
37 -45 0 -4 -17 -7 -38 -7 -28 0 -45 7 -62 25 -13 14 -31 25 -39 25 -9 0 -22
9 -29 20 -10 16 -23 20 -72 20 -33 0 -60 -4 -60 -8 0 -5 14 -21 30 -37 34 -33
38 -47 13 -44 -32 3 -41 -1 -45 -17 -2 -11 -20 2 -63 45 -59 61 -60 61 -117
61 -32 0 -58 -3 -58 -6 0 -4 33 -40 73 -81 39 -41 74 -78 75 -84 2 -5 10 -9
18 -9 13 0 16 -4 18 -32 1 -7 14 -24 29 -38 20 -18 28 -36 30 -65 l2 -39 45 2
c43 3 48 0 108 -58 34 -34 62 -65 62 -69 0 -11 -104 -8 -112 3 -3 5 -111 115
-240 243 -221 221 -235 233 -270 233 -35 0 -38 -2 -38 -27z m680 -85 c74 -51
93 -117 51 -176 -23 -33 -85 -62 -130 -62 -44 0 -115 34 -135 66 -23 35 -24
93 -2 127 41 62 155 86 216 45z m457 -375 c-5 -4 -12 -1 -17 7 -7 12 -12 12
-22 2 -28 -28 -55 -12 -176 110 -96 97 -119 125 -110 135 9 11 4 20 -25 44
-30 25 -36 36 -35 65 l1 36 196 -196 c107 -107 192 -199 188 -203z m140 -365
c206 -205 380 -372 386 -370 6 2 4 -5 -4 -15 -9 -10 -19 -31 -23 -47 -4 -15
-9 -27 -11 -25 -16 14 -700 698 -732 732 -29 31 -38 48 -33 62 6 17 7 17 14
-6 l7 -24 10 23 c5 13 7 28 3 33 -22 36 55 -37 383 -363z m-639 340 c-2 -7 2
-13 7 -13 5 0 9 6 7 13 -5 21 15 13 21 -9 3 -12 9 -19 14 -16 4 2 16 2 26 -2
15 -6 887 -869 887 -879 0 -15 -23 -41 -32 -36 -6 4 -8 3 -5 -3 4 -6 -1 -17
-10 -24 -13 -11 -15 -11 -9 -1 5 9 -10 29 -46 62 -29 27 -56 50 -60 50 -5 0
-8 6 -8 13 0 8 -9 22 -20 32 -21 19 -28 41 -8 29 6 -4 8 -3 5 4 -4 5 -15 8
-25 6 -14 -4 -82 45 -82 58 0 2 -153 156 -340 343 -245 245 -340 346 -340 363
0 12 5 22 10 22 6 0 10 -6 8 -12z m-453 -29 c-4 -5 5 -5 20 1 34 13 48 13 40
0 -3 -6 2 -13 12 -17 10 -3 183 -171 385 -372 361 -360 367 -366 342 -379 -13
-7 -29 -10 -34 -7 -6 4 -7 -1 -3 -12 9 -25 -4 -13 -431 413 -299 300 -369 374
-356 382 17 11 33 5 25 -9z m972 7 l26 16 371 -371 c205 -205 377 -376 384
-380 9 -5 2 -15 -24 -32 l-37 -25 -387 390 c-302 303 -385 392 -377 401 10 10
13 10 15 -2 3 -12 7 -12 29 3z m-321 -355 c313 -313 348 -350 327 -356 -13 -3
-29 -3 -35 1 -7 4 -8 3 -4 -4 4 -7 1 -12 -9 -12 -15 0 -715 690 -715 705 0 11
45 24 66 20 11 -2 178 -162 370 -354z m881 -687 c15 -76 53 -114 114 -114 22
0 46 -6 53 -12 119 -114 206 -201 204 -202 -2 -1 -19 -9 -39 -18 l-36 -16
-172 174 c-95 96 -177 174 -181 174 -4 0 -10 6 -13 14 -6 16 33 66 48 62 6 -1
15 -29 22 -62z m-432 -14 c-3 -5 0 -7 8 -4 9 3 22 -5 34 -21 10 -15 25 -33 33
-40 8 -8 86 -83 173 -168 l157 -154 -15 -36 c-8 -20 -17 -37 -19 -37 -2 0
-103 99 -225 221 -213 212 -220 221 -206 242 8 12 15 31 15 42 0 18 2 17 26
-8 14 -15 22 -32 19 -37z m1169 -12 c-6 -10 -4 -10 7 0 16 14 29 16 29 2 0 -5
-11 -12 -25 -16 -14 -3 -25 -8 -25 -11 0 -2 12 -20 27 -39 27 -37 61 -43 93
-18 12 9 34 -8 123 -97 l108 -109 -56 0 -55 0 -146 144 c-127 127 -142 145
-122 149 43 8 49 7 42 -5z m-717 -187 c58 -57 98 -101 89 -98 -10 4 -23 -4
-37 -24 -21 -30 -21 -30 -36 -10 -8 12 -66 72 -129 135 -109 108 -114 115 -94
126 16 9 25 8 38 -2 15 -11 15 -11 5 3 -7 9 -10 19 -6 23 7 7 22 -6 170 -153z
m453 24 c64 -63 116 -115 116 -116 -1 0 -25 -2 -53 -3 l-53 -3 -102 104 c-57
57 -105 105 -107 108 -3 4 53 22 73 24 6 1 62 -51 126 -114z m390 -156 c0 -4
-10 -9 -22 -12 -13 -2 -30 -7 -38 -11 -10 -4 -55 33 -142 118 -71 69 -128 127
-128 130 0 3 6 6 13 6 8 0 22 9 32 21 19 20 20 19 152 -113 73 -73 133 -136
133 -139z m-1320 136 c95 -96 110 -115 88 -111 -15 2 -32 7 -37 10 -5 4 -17
-1 -25 -10 -15 -14 -20 -11 -17 8 0 5 -3 7 -8 5 -4 -1 -52 40 -105 91 l-97 93
33 14 c18 8 38 14 43 15 6 0 62 -52 125 -115z m350 -363 c0 -7 -4 -11 -9 -8
-5 4 -7 -2 -5 -11 2 -10 0 -25 -5 -33 -8 -11 -30 5 -108 80 -54 52 -100 101
-101 108 -2 8 2 27 8 43 10 23 10 33 -1 47 -7 9 40 -35 104 -98 64 -63 117
-121 117 -128z m407 82 c61 -61 62 -62 51 -98 -6 -20 -15 -36 -20 -36 -17 0
-40 30 -34 45 3 8 2 15 -2 15 -5 0 -18 9 -30 21 -12 11 -26 17 -32 14 -14 -8
-28 25 -36 86 l-7 54 24 -20 c13 -11 52 -48 86 -81z m411 64 c7 -7 12 -27 12
-45 0 -38 24 -57 83 -67 20 -4 37 -10 37 -14 0 -4 14 -21 30 -39 l30 -32 -42
-22 c-24 -12 -40 -18 -36 -14 4 4 -9 20 -28 37 -19 16 -31 35 -28 40 4 6 1 9
-6 6 -7 -2 -33 18 -58 44 -24 26 -49 45 -55 41 -6 -4 -1 7 11 24 12 17 22 36
22 42 0 14 13 14 28 -1z m257 -20 c39 -37 395 -393 395 -395 0 -2 15 -17 33
-33 l32 -29 -56 -1 -55 0 -142 141 c-102 101 -142 147 -142 164 0 42 -58 123
-97 136 -26 8 -32 14 -22 20 20 12 38 11 54 -3z m-765 -436 c0 -8 -6 -12 -15
-9 -8 4 -17 2 -20 -3 -12 -20 -60 10 -135 84 -44 43 -80 80 -80 83 0 2 7 20
15 40 l16 37 109 -109 c61 -60 110 -116 110 -123z m525 198 c11 -12 20 -31 22
-43 6 -40 12 -47 43 -47 23 0 42 -13 89 -62 33 -34 58 -65 55 -70 -3 -4 -24
-8 -47 -8 -39 0 -47 6 -138 97 l-97 97 21 27 c27 34 29 34 52 9z m-409 -64
c29 -30 50 -57 47 -60 -4 -3 0 -6 7 -6 14 0 70 -48 70 -61 0 -13 -41 -17 -76
-7 -22 5 -58 32 -93 67 l-59 59 20 31 c11 17 23 31 26 31 3 0 29 -24 58 -54z
m759 -46 c49 -49 87 -91 84 -94 -2 -2 -23 -6 -46 -7 -41 -4 -45 -1 -118 70
-41 41 -75 77 -75 80 0 6 49 38 60 40 3 1 46 -39 95 -89z m-1213 24 c15 -12
24 -24 21 -28 -3 -3 -1 -6 6 -6 7 0 28 -17 46 -37 l35 -38 -53 -5 c-28 -3 -52
-5 -52 -5 0 0 -31 32 -68 71 l-68 70 53 0 c39 -1 61 -7 80 -22z m404 -238 c11
-9 30 -12 47 -9 25 5 51 -18 302 -267 151 -150 272 -277 270 -281 -3 -4 1 -10
7 -13 7 -3 -11 -4 -39 -3 l-52 2 -291 289 c-159 159 -290 291 -290 293 0 8 28
1 46 -11z m588 -277 l275 -275 -42 -12 -43 -13 -287 286 c-158 157 -287 288
-287 292 0 3 25 3 55 1 l55 -5 274 -274z m210 266 c11 -8 17 -15 14 -15 -4 0
21 -26 54 -57 110 -105 473 -473 476 -483 5 -14 -11 -12 -27 3 -11 10 -14 10
-18 0 -14 -39 -55 -5 -325 264 -153 153 -278 281 -278 285 0 19 79 22 104 3z
m742 -266 c153 -155 285 -288 293 -296 18 -18 8 -27 -17 -14 -10 5 -30 8 -43
5 -19 -5 -21 -3 -9 5 13 9 11 11 -7 12 -13 1 -28 2 -34 3 -14 1 -527 514 -521
521 3 3 -2 5 -11 5 -9 0 -17 2 -17 4 0 2 -3 11 -6 19 -4 11 5 15 44 15 l49 2
279 -281z m-1429 -1 c150 -150 277 -274 283 -276 26 -9 5 -19 -43 -21 l-52 -1
-285 285 -285 285 55 0 54 0 273 -272z m736 -23 c158 -158 286 -289 284 -291
-2 -2 -27 -1 -56 3 l-52 6 -285 282 c-156 156 -284 286 -284 290 0 4 24 5 53
3 l52 -4 288 -289z m457 18 c201 -202 270 -277 258 -280 -10 -3 -18 -9 -18
-14 0 -5 -11 -9 -24 -9 -17 0 -91 68 -287 266 -145 146 -275 277 -289 290
l-25 24 55 0 55 0 275 -277z m-1884 -17 c156 -156 284 -287 284 -290 0 -3 -23
-6 -50 -6 -33 0 -49 4 -48 12 2 6 -5 14 -15 16 -14 3 -557 538 -557 549 0 2
23 3 51 3 l50 0 285 -284z m235 2 l282 -283 -47 -9 -47 -8 -285 284 c-156 157
-284 288 -284 292 0 3 22 6 49 6 l49 0 283 -282z m237 -1 l278 -277 -35 -10
c-20 -5 -40 -10 -46 -10 -5 0 -140 131 -300 291 l-290 290 57 -3 57 -3 279
-278z"/>
<path d="M531 5494 c-62 -55 -52 -142 21 -180 45 -23 130 -15 163 16 37 34 50
82 32 117 -27 51 -53 67 -121 71 -58 4 -66 2 -95 -24z"/>
<path d="M1901 5604 c46 -51 2080 -2084 2085 -2084 2 0 4 27 4 59 l0 60 -996
995 -995 996 -61 0 -61 0 24 -26z"/>
<path d="M2120 5625 c0 -7 1858 -1865 1865 -1865 3 0 5 26 5 58 l0 57 -878
878 -877 877 -58 0 c-31 0 -57 -2 -57 -5z"/>
<path d="M2360 5624 c0 -8 1616 -1624 1624 -1624 3 0 6 26 6 57 l0 58 -757
757 -758 758 -57 0 c-32 0 -58 -3 -58 -6z"/>
<path d="M2590 5627 c0 -1 315 -317 700 -702 l700 -700 0 65 0 64 -637 638
-638 638 -62 0 c-35 0 -63 -1 -63 -3z"/>
<path d="M3405 5050 c319 -319 581 -580 582 -580 2 0 3 27 3 61 l0 61 -519
519 -518 519 -64 0 -64 0 580 -580z"/>
<path d="M3071 5625 c11 -12 877 -879 897 -897 l22 -21 0 61 0 61 -401 400
-401 401 -61 0 c-33 0 -58 -2 -56 -5z"/>
<path d="M3326 5608 c10 -12 164 -167 342 -345 l322 -323 0 63 0 63 -282 282
-282 282 -60 0 -59 0 19 -22z"/>
<path d="M3550 5623 c0 -5 99 -107 220 -228 l220 -219 0 65 0 64 -163 163
-162 162 -58 0 c-31 0 -57 -3 -57 -7z"/>
<path d="M3880 5525 l105 -106 3 62 c3 61 2 63 -40 106 -41 42 -44 43 -107 43
l-66 0 105 -105z"/>
</g>
</svg>
