<svg xmlns="http://www.w3.org/2000/svg" width="1517" height="735"><g transform="translate(126.41666666666667, 126.41666666666667)"><g transform="scale(1.5, 1.5)"><path d="m0.5 14.5 L 0.5 10.5 A 4 4 90 0 1 4.5 6.5 L 8.5 6.5 L 13.5 0.5 L 18.5 6.5 L 27.5 6.5 L 57.5 6.5 L 61.5 6.5 A 4 4 90 0 1 65.5 10.5 L 65.5 14.5 L 65.5 18.5 L 65.5 22.5 A 4 4 90 0 1 61.5 26.5 L 57.5 26.5 L 27.5 26.5 L 26.5 26.5 L 26.5 28.5 L 18.5 28.5 L 18.5 26.5 L 17.5 26.5 L 13.5 26.5 A 5 5 90 0 0 8.5 31.5 L 8.5 35.5 L 8.5 39.5 L 8.5 459.5 L 8.5 463.5 A 5 5 90 0 0 13.5 468.5 L 17.5 468.5 L 17.5 470.5 L 27.5 470.5 L 27.5 468.5 L 35.5 468.5 L 35.5 474.5 L 35.5 480.5 L 35.5 484.5 A 4 4 90 0 1 31.5 488.5 L 27.5 488.5 L 18.5 488.5 L 13.5 494.5 L 8.5 488.5 L 4.5 488.5 A 4 4 90 0 1 0.5 484.5 L 0.5 480.5 z" style="fill:#ffdf37;fill-opacity:1;stroke:#644300;stroke-width:1;stroke-linecap:round;stroke-opacity:1;" /><text style="font-size:10px;fill:#000000;font-family:sans-serif;text-anchor:start"><tspan x="5.333333333333333" y="21.5">start</tspan></text></g></g><g transform="translate(166.91666666666669, 418.9166666666667)"><g transform="scale(1.5, 1.5)"><path d="m0.5 8.5 L 0.5 4.5 A 4 4 90 0 1 4.5 0.5 L 8.5 0.5 L 8.5 2.5 L 18.5 2.5 L 18.5 0.5 L 51.8447265625 0.5 L 55.8447265625 0.5 A 4 4 90 0 1 59.8447265625 4.5 L 59.8447265625 8.5 L 55.8447265625 8.5 L 55.8447265625 5.5 L 51.8447265625 5.5 L 51.8447265625 15.5 L 55.8447265625 15.5 L 55.8447265625 12.5 L 59.8447265625 12.5 L 59.8447265625 16.5 A 4 4 90 0 1 55.8447265625 20.5 L 51.8447265625 20.5 L 18.5 20.5 L 17.5 20.5 L 17.5 22.5 L 9.5 22.5 L 9.5 20.5 L 8.5 20.5 L 4.5 20.5 A 4 4 90 0 1 0.5 16.5 L 0.5 12.5 L 0.5 8.5 z" style="fill:#88e20a;fill-opacity:1;stroke:#004100;stroke-width:1;stroke-linecap:round;stroke-opacity:1;" /><text style="font-size:10px;fill:#000000;font-family:sans-serif;text-anchor:end"><tspan x="49.678059895833336" y="13.5">forward</tspan></text><text style="font-size:6.666666666666667px;fill:#000000;font-family:sans-serif;text-anchor:end"><tspan x="49.678059895833336" y="11.25"></tspan></text></g></g><g transform="translate(166.91666666666669, 607.9166666666666)"><g transform="scale(1.5, 1.5)"><path d="m0.5 8.5 L 0.5 4.5 A 4 4 90 0 1 4.5 0.5 L 8.5 0.5 L 8.5 2.5 L 18.5 2.5 L 18.5 0.5 L 48.5 0.5 L 52.5 0.5 A 4 4 90 0 1 56.5 4.5 L 56.5 8.5 L 52.5 8.5 L 52.5 5.5 L 48.5 5.5 L 48.5 15.5 L 52.5 15.5 L 52.5 12.5 L 56.5 12.5 L 56.5 16.5 A 4 4 90 0 1 52.5 20.5 L 48.5 20.5 L 18.5 20.5 L 17.5 20.5 L 17.5 22.5 L 9.5 22.5 L 9.5 20.5 L 8.5 20.5 L 4.5 20.5 A 4 4 90 0 1 0.5 16.5 L 0.5 12.5 L 0.5 8.5 z" style="fill:#88e20a;fill-opacity:1;stroke:#004100;stroke-width:1;stroke-linecap:round;stroke-opacity:1;" /><text style="font-size:10px;fill:#000000;font-family:sans-serif;text-anchor:end"><tspan x="46.333333333333336" y="13.5">back</tspan></text><text style="font-size:6.666666666666667px;fill:#000000;font-family:sans-serif;text-anchor:end"><tspan x="46.333333333333336" y="11.25"></tspan></text></g></g><g transform="translate(166.91666666666669, 670.9166666666666)"><g transform="scale(1.5, 1.5)"><path d="m0.5 8.5 L 0.5 4.5 A 4 4 90 0 1 4.5 0.5 L 8.5 0.5 L 8.5 2.5 L 18.5 2.5 L 18.5 0.5 L 48.5 0.5 L 52.5 0.5 A 4 4 90 0 1 56.5 4.5 L 56.5 8.5 L 52.5 8.5 L 52.5 5.5 L 48.5 5.5 L 48.5 15.5 L 52.5 15.5 L 52.5 12.5 L 56.5 12.5 L 56.5 16.5 A 4 4 90 0 1 52.5 20.5 L 48.5 20.5 L 18.5 20.5 L 17.5 20.5 L 17.5 22.5 L 9.5 22.5 L 9.5 20.5 L 8.5 20.5 L 4.5 20.5 A 4 4 90 0 1 0.5 16.5 L 0.5 12.5 L 0.5 8.5 z" style="fill:#88e20a;fill-opacity:1;stroke:#004100;stroke-width:1;stroke-linecap:round;stroke-opacity:1;" /><text style="font-size:10px;fill:#000000;font-family:sans-serif;text-anchor:end"><tspan x="46.333333333333336" y="13.5">right</tspan></text><text style="font-size:6.666666666666667px;fill:#000000;font-family:sans-serif;text-anchor:end"><tspan x="46.333333333333336" y="11.25"></tspan></text></g></g><g transform="translate(166.91666666666669, 702.4166666666666)"><g transform="scale(1.5, 1.5)"><path d="m0.5 8.5 L 0.5 4.5 A 4 4 90 0 1 4.5 0.5 L 8.5 0.5 L 8.5 2.5 L 18.5 2.5 L 18.5 0.5 L 51.8447265625 0.5 L 55.8447265625 0.5 A 4 4 90 0 1 59.8447265625 4.5 L 59.8447265625 8.5 L 55.8447265625 8.5 L 55.8447265625 5.5 L 51.8447265625 5.5 L 51.8447265625 15.5 L 55.8447265625 15.5 L 55.8447265625 12.5 L 59.8447265625 12.5 L 59.8447265625 16.5 A 4 4 90 0 1 55.8447265625 20.5 L 51.8447265625 20.5 L 18.5 20.5 L 17.5 20.5 L 17.5 22.5 L 9.5 22.5 L 9.5 20.5 L 8.5 20.5 L 4.5 20.5 A 4 4 90 0 1 0.5 16.5 L 0.5 12.5 L 0.5 8.5 z" style="fill:#88e20a;fill-opacity:1;stroke:#004100;stroke-width:1;stroke-linecap:round;stroke-opacity:1;" /><text style="font-size:10px;fill:#000000;font-family:sans-serif;text-anchor:end"><tspan x="49.678059895833336" y="13.5">forward</tspan></text><text style="font-size:6.666666666666667px;fill:#000000;font-family:sans-serif;text-anchor:end"><tspan x="49.678059895833336" y="11.25"></tspan></text></g></g><g transform="translate(330.9337565104167, 418.9166666666667)"><g transform="scale(1.5, 1.5)"><path d="m8.5 0.5 L 88.5 0.5 L 88.5 20.5 L 8.5 20.5 L 8.5 12.5 L 8.5 11.5 L 2.5 11.5 L 2.5 14.5 L 0.5 14.5 L 0.5 6.5 L 2.5 6.5 L 2.5 9.5 L 8.5 9.5 L 8.5 8.5 z" style="fill:#ff8000;fill-opacity:1;stroke:#520000;stroke-width:1;stroke-linecap:round;stroke-opacity:1;" /><text style="font-size:10px;fill:#000000;font-family:sans-serif;text-anchor:start"><tspan x="13.333333333333334" y="13.833333333333334">my box</tspan></text></g></g><g transform="translate(240.41666666666669, 670.9166666666666)"><g transform="scale(1.5, 1.5)"><path d="m8.5 0.5 L 68.5 0.5 L 68.5 20.5 L 8.5 20.5 L 8.5 12.5 L 8.5 11.5 L 2.5 11.5 L 2.5 14.5 L 0.5 14.5 L 0.5 6.5 L 2.5 6.5 L 2.5 9.5 L 8.5 9.5 L 8.5 8.5 z" style="fill:#ff9db5;fill-opacity:1;stroke:#73003b;stroke-width:1;stroke-linecap:round;stroke-opacity:1;" /><text style="font-size:10px;fill:#000000;font-family:sans-serif;text-anchor:start"><tspan x="13.333333333333334" y="13.833333333333334">90</tspan></text></g></g><g transform="translate(153.41666666666669, 324.4166666666667)"><g transform="scale(1.5, 1.5)"><path d="m0.5 8.5 L 0.5 4.5 A 4 4 90 0 1 4.5 0.5 L 8.5 0.5 L 8.5 2.5 L 18.5 2.5 L 18.5 0.5 L 27.5 0.5 L 47.5 0.5 L 51.5 0.5 A 4 4 90 0 1 55.5 4.5 L 55.5 8.5 L 51.5 8.5 L 51.5 5.5 L 47.5 5.5 L 47.5 15.5 L 51.5 15.5 L 51.5 12.5 L 55.5 12.5 L 55.5 16.5 A 4 4 90 0 1 51.5 20.5 L 47.5 20.5 L 27.5 20.5 L 26.5 20.5 L 26.5 22.5 L 18.5 22.5 L 18.5 20.5 L 17.5 20.5 L 13.5 20.5 A 5 5 90 0 0 8.5 25.5 L 8.5 29.5 L 8.5 33.5 L 8.5 264.5 L 8.5 268.5 A 5 5 90 0 0 13.5 273.5 L 17.5 273.5 L 17.5 275.5 L 27.5 275.5 L 27.5 273.5 L 35.5 273.5 L 35.5 279.5 L 35.5 285.5 L 35.5 289.5 A 4 4 90 0 1 31.5 293.5 L 27.5 293.5 L 18.5 293.5 L 17.5 293.5 L 17.5 295.5 L 9.5 295.5 L 9.5 293.5 L 8.5 293.5 L 4.5 293.5 A 4 4 90 0 1 0.5 289.5 L 0.5 285.5 z" style="fill:#ff9404;fill-opacity:1;stroke:#3f0a00;stroke-width:1;stroke-linecap:round;stroke-opacity:1;" /><text style="font-size:10px;fill:#000000;font-family:sans-serif;text-anchor:start"><tspan x="5.333333333333333" y="15.25">repeat</tspan></text><text style="font-size:6.666666666666667px;fill:#000000;font-family:sans-serif;text-anchor:end"><tspan x="45.333333333333336" y="11.25"></tspan></text></g></g><g transform="translate(225.41666666666669, 324.4166666666667)"><g transform="scale(1.5, 1.5)"><path d="m8.5 0.5 L 68.5 0.5 L 68.5 20.5 L 8.5 20.5 L 8.5 12.5 L 8.5 11.5 L 2.5 11.5 L 2.5 14.5 L 0.5 14.5 L 0.5 6.5 L 2.5 6.5 L 2.5 9.5 L 8.5 9.5 L 8.5 8.5 z" style="fill:#ff9db5;fill-opacity:1;stroke:#73003b;stroke-width:1;stroke-linecap:round;stroke-opacity:1;" /><text style="font-size:10px;fill:#000000;font-family:sans-serif;text-anchor:start"><tspan x="13.333333333333334" y="13.833333333333334">1</tspan></text></g></g><g transform="translate(139.91666666666669, 292.9166666666667)"><g transform="scale(1.5, 1.5)"><path d="m0.5 8.5 L 0.5 4.5 A 4 4 90 0 1 4.5 0.5 L 8.5 0.5 L 8.5 2.5 L 18.5 2.5 L 18.5 0.5 L 27.5 0.5 L 47.5 0.5 L 51.5 0.5 A 4 4 90 0 1 55.5 4.5 L 55.5 8.5 L 51.5 8.5 L 51.5 5.5 L 47.5 5.5 L 47.5 15.5 L 51.5 15.5 L 51.5 12.5 L 55.5 12.5 L 55.5 16.5 A 4 4 90 0 1 51.5 20.5 L 47.5 20.5 L 27.5 20.5 L 26.5 20.5 L 26.5 22.5 L 18.5 22.5 L 18.5 20.5 L 17.5 20.5 L 13.5 20.5 A 5 5 90 0 0 8.5 25.5 L 8.5 29.5 L 8.5 33.5 L 8.5 327.5 L 8.5 331.5 A 5 5 90 0 0 13.5 336.5 L 17.5 336.5 L 17.5 338.5 L 27.5 338.5 L 27.5 336.5 L 35.5 336.5 L 35.5 342.5 L 35.5 348.5 L 35.5 352.5 A 4 4 90 0 1 31.5 356.5 L 27.5 356.5 L 18.5 356.5 L 17.5 356.5 L 17.5 358.5 L 9.5 358.5 L 9.5 356.5 L 8.5 356.5 L 4.5 356.5 A 4 4 90 0 1 0.5 352.5 L 0.5 348.5 z" style="fill:#ff9404;fill-opacity:1;stroke:#3f0a00;stroke-width:1;stroke-linecap:round;stroke-opacity:1;" /><text style="font-size:10px;fill:#000000;font-family:sans-serif;text-anchor:start"><tspan x="5.333333333333333" y="15.25">repeat</tspan></text><text style="font-size:6.666666666666667px;fill:#000000;font-family:sans-serif;text-anchor:end"><tspan x="45.333333333333336" y="11.25"></tspan></text></g></g><g transform="translate(211.91666666666669, 292.9166666666667)"><g transform="scale(1.5, 1.5)"><path d="m8.5 0.5 L 68.5 0.5 L 68.5 20.5 L 8.5 20.5 L 8.5 12.5 L 8.5 11.5 L 2.5 11.5 L 2.5 14.5 L 0.5 14.5 L 0.5 6.5 L 2.5 6.5 L 2.5 9.5 L 8.5 9.5 L 8.5 8.5 z" style="fill:#ff9db5;fill-opacity:1;stroke:#73003b;stroke-width:1;stroke-linecap:round;stroke-opacity:1;" /><text style="font-size:10px;fill:#000000;font-family:sans-serif;text-anchor:start"><tspan x="13.333333333333334" y="13.833333333333334">79</tspan></text></g></g><g transform="translate(166.91666666666669, 513.4166666666666)"><g transform="scale(1.5, 1.5)"><path d="m0.5 8.5 L 0.5 4.5 A 4 4 90 0 1 4.5 0.5 L 8.5 0.5 L 8.5 2.5 L 18.5 2.5 L 18.5 0.5 L 51.8447265625 0.5 L 55.8447265625 0.5 A 4 4 90 0 1 59.8447265625 4.5 L 59.8447265625 8.5 L 55.8447265625 8.5 L 55.8447265625 5.5 L 51.8447265625 5.5 L 51.8447265625 15.5 L 55.8447265625 15.5 L 55.8447265625 12.5 L 59.8447265625 12.5 L 59.8447265625 16.5 A 4 4 90 0 1 55.8447265625 20.5 L 51.8447265625 20.5 L 18.5 20.5 L 17.5 20.5 L 17.5 22.5 L 9.5 22.5 L 9.5 20.5 L 8.5 20.5 L 4.5 20.5 A 4 4 90 0 1 0.5 16.5 L 0.5 12.5 L 0.5 8.5 z" style="fill:#88e20a;fill-opacity:1;stroke:#004100;stroke-width:1;stroke-linecap:round;stroke-opacity:1;" /><text style="font-size:10px;fill:#000000;font-family:sans-serif;text-anchor:end"><tspan x="49.678059895833336" y="13.5">forward</tspan></text><text style="font-size:6.666666666666667px;fill:#000000;font-family:sans-serif;text-anchor:end"><tspan x="49.678059895833336" y="11.25"></tspan></text></g></g><g transform="translate(139.91666666666669, 229.91666666666669)"><g transform="scale(1.5, 1.5)"><path d="m0.5 8.5 L 0.5 4.5 A 4 4 90 0 1 4.5 0.5 L 8.5 0.5 L 8.5 2.5 L 18.5 2.5 L 18.5 0.5 L 51.29296875 0.5 L 55.29296875 0.5 A 4 4 90 0 1 59.29296875 4.5 L 59.29296875 8.5 L 55.29296875 8.5 L 55.29296875 5.5 L 51.29296875 5.5 L 51.29296875 15.5 L 55.29296875 15.5 L 55.29296875 12.5 L 59.29296875 12.5 L 59.29296875 29.5 L 55.29296875 29.5 L 55.29296875 26.5 L 51.29296875 26.5 L 51.29296875 36.5 L 55.29296875 36.5 L 55.29296875 33.5 L 59.29296875 33.5 L 59.29296875 37.5 A 4 4 90 0 1 55.29296875 41.5 L 51.29296875 41.5 L 18.5 41.5 L 17.5 41.5 L 17.5 43.5 L 9.5 43.5 L 9.5 41.5 L 8.5 41.5 L 4.5 41.5 A 4 4 90 0 1 0.5 37.5 L 0.5 33.5 L 0.5 12.5 L 0.5 8.5 z" style="fill:#ff8000;fill-opacity:1;stroke:#520000;stroke-width:1;stroke-linecap:round;stroke-opacity:1;" /><text style="font-size:10px;fill:#000000;font-family:sans-serif;text-anchor:end"><tspan x="49.126302083333336" y="24">store in</tspan></text><text style="font-size:6.666666666666667px;fill:#000000;font-family:sans-serif;text-anchor:end"><tspan x="49.126302083333336" y="11.25">name</tspan></text><text style="font-size:6.666666666666667px;fill:#000000;font-family:sans-serif;text-anchor:end"><tspan x="49.126302083333336" y="32.25">value</tspan></text></g></g><g transform="translate(217.60611979166669, 261.4166666666667)"><g transform="scale(1.5, 1.5)"><path d="m8.5 0.5 L 68.5 0.5 L 68.5 20.5 L 8.5 20.5 L 8.5 12.5 L 8.5 11.5 L 2.5 11.5 L 2.5 14.5 L 0.5 14.5 L 0.5 6.5 L 2.5 6.5 L 2.5 9.5 L 8.5 9.5 L 8.5 8.5 z" style="fill:#ff9db5;fill-opacity:1;stroke:#73003b;stroke-width:1;stroke-linecap:round;stroke-opacity:1;" /><text style="font-size:10px;fill:#000000;font-family:sans-serif;text-anchor:start"><tspan x="13.333333333333334" y="13.833333333333334">100</tspan></text></g></g><g transform="translate(245.43375651041669, 702.4166666666666)"><g transform="scale(1.5, 1.5)"><path d="m8.5 0.5 L 88.5 0.5 L 88.5 20.5 L 8.5 20.5 L 8.5 12.5 L 8.5 11.5 L 2.5 11.5 L 2.5 14.5 L 0.5 14.5 L 0.5 6.5 L 2.5 6.5 L 2.5 9.5 L 8.5 9.5 L 8.5 8.5 z" style="fill:#ff8000;fill-opacity:1;stroke:#520000;stroke-width:1;stroke-linecap:round;stroke-opacity:1;" /><text style="font-size:10px;fill:#000000;font-family:sans-serif;text-anchor:start"><tspan x="13.333333333333334" y="13.833333333333334">my box</tspan></text></g></g><g transform="translate(240.41666666666669, 607.9166666666666)"><g transform="scale(1.5, 1.5)"><path d="m8.5 0.5 L 88.5 0.5 L 88.5 20.5 L 8.5 20.5 L 8.5 12.5 L 8.5 11.5 L 2.5 11.5 L 2.5 14.5 L 0.5 14.5 L 0.5 6.5 L 2.5 6.5 L 2.5 9.5 L 8.5 9.5 L 8.5 8.5 z" style="fill:#ff8000;fill-opacity:1;stroke:#520000;stroke-width:1;stroke-linecap:round;stroke-opacity:1;" /><text style="font-size:10px;fill:#000000;font-family:sans-serif;text-anchor:start"><tspan x="13.333333333333334" y="13.833333333333334">my box</tspan></text></g></g><g transform="translate(217.60611979166669, 229.91666666666669)"><g transform="scale(1.5, 1.5)"><path d="m8.5 0.5 L 68.5 0.5 L 68.5 20.5 L 8.5 20.5 L 8.5 12.5 L 8.5 11.5 L 2.5 11.5 L 2.5 14.5 L 0.5 14.5 L 0.5 6.5 L 2.5 6.5 L 2.5 9.5 L 8.5 9.5 L 8.5 8.5 z" style="fill:#47e0db;fill-opacity:1;stroke:#003e47;stroke-width:1;stroke-linecap:round;stroke-opacity:1;" /><text style="font-size:10px;fill:#000000;font-family:sans-serif;text-anchor:start"><tspan x="13.333333333333334" y="13.833333333333334">my box</tspan></text></g></g><g transform="translate(153.41666666666669, 765.4166666666666)"><g transform="scale(1.5, 1.5)"><path d="m0.5 8.5 L 0.5 4.5 A 4 4 90 0 1 4.5 0.5 L 8.5 0.5 L 8.5 2.5 L 18.5 2.5 L 18.5 0.5 L 48.5 0.5 L 52.5 0.5 A 4 4 90 0 1 56.5 4.5 L 56.5 8.5 L 52.5 8.5 L 52.5 5.5 L 48.5 5.5 L 48.5 15.5 L 52.5 15.5 L 52.5 12.5 L 56.5 12.5 L 56.5 16.5 A 4 4 90 0 1 52.5 20.5 L 48.5 20.5 L 18.5 20.5 L 17.5 20.5 L 17.5 22.5 L 9.5 22.5 L 9.5 20.5 L 8.5 20.5 L 4.5 20.5 A 4 4 90 0 1 0.5 16.5 L 0.5 12.5 L 0.5 8.5 z" style="fill:#88e20a;fill-opacity:1;stroke:#004100;stroke-width:1;stroke-linecap:round;stroke-opacity:1;" /><text style="font-size:10px;fill:#000000;font-family:sans-serif;text-anchor:end"><tspan x="46.333333333333336" y="13.5">right</tspan></text><text style="font-size:6.666666666666667px;fill:#000000;font-family:sans-serif;text-anchor:end"><tspan x="46.333333333333336" y="11.25"></tspan></text></g></g><g transform="translate(226.91666666666669, 765.4166666666666)"><g transform="scale(1.5, 1.5)"><path d="m8.5 0.5 L 68.5 0.5 L 68.5 20.5 L 8.5 20.5 L 8.5 12.5 L 8.5 11.5 L 2.5 11.5 L 2.5 14.5 L 0.5 14.5 L 0.5 6.5 L 2.5 6.5 L 2.5 9.5 L 8.5 9.5 L 8.5 8.5 z" style="fill:#ff9db5;fill-opacity:1;stroke:#73003b;stroke-width:1;stroke-linecap:round;stroke-opacity:1;" /><text style="font-size:10px;fill:#000000;font-family:sans-serif;text-anchor:start"><tspan x="13.333333333333334" y="13.833333333333334">1</tspan></text></g></g><g transform="translate(166.91666666666669, 387.4166666666667)"><g transform="scale(1.5, 1.5)"><path d="m0.5 8.5 L 0.5 4.5 A 4 4 90 0 1 4.5 0.5 L 8.5 0.5 L 8.5 2.5 L 18.5 2.5 L 18.5 0.5 L 56.29296875 0.5 L 60.29296875 0.5 A 4 4 90 0 1 64.29296875 4.5 L 64.29296875 8.5 L 60.29296875 8.5 L 60.29296875 5.5 L 56.29296875 5.5 L 56.29296875 15.5 L 60.29296875 15.5 L 60.29296875 12.5 L 64.29296875 12.5 L 64.29296875 16.5 A 4 4 90 0 1 60.29296875 20.5 L 56.29296875 20.5 L 18.5 20.5 L 17.5 20.5 L 17.5 22.5 L 9.5 22.5 L 9.5 20.5 L 8.5 20.5 L 4.5 20.5 A 4 4 90 0 1 0.5 16.5 L 0.5 12.5 L 0.5 8.5 z" style="fill:#00a8a8;fill-opacity:1;stroke:#000000;stroke-width:1;stroke-linecap:round;stroke-opacity:1;" /><text style="font-size:10px;fill:#000000;font-family:sans-serif;text-anchor:end"><tspan x="54.126302083333336" y="13.5">set color</tspan></text><text style="font-size:6.666666666666667px;fill:#000000;font-family:sans-serif;text-anchor:end"><tspan x="54.126302083333336" y="11.25"></tspan></text></g></g><g transform="translate(252.10611979166669, 387.4166666666667)"><g transform="scale(1.5, 1.5)"><path d="m8.5 0.5 L 68.5 0.5 L 68.5 20.5 L 8.5 20.5 L 8.5 12.5 L 8.5 11.5 L 2.5 11.5 L 2.5 14.5 L 0.5 14.5 L 0.5 6.5 L 2.5 6.5 L 2.5 9.5 L 8.5 9.5 L 8.5 8.5 z" style="fill:#ff9db5;fill-opacity:1;stroke:#73003b;stroke-width:1;stroke-linecap:round;stroke-opacity:1;" /><text style="font-size:10px;fill:#000000;font-family:sans-serif;text-anchor:start"><tspan x="13.333333333333334" y="13.833333333333334">10</tspan></text></g></g><g transform="translate(139.91666666666669, 198.41666666666669)"><g transform="scale(1.5, 1.5)"><path d="m0.5 8.5 L 0.5 4.5 A 4 4 90 0 1 4.5 0.5 L 8.5 0.5 L 8.5 2.5 L 18.5 2.5 L 18.5 0.5 L 61.8642578125 0.5 L 65.8642578125 0.5 A 4 4 90 0 1 69.8642578125 4.5 L 69.8642578125 8.5 L 65.8642578125 8.5 L 65.8642578125 5.5 L 61.8642578125 5.5 L 61.8642578125 15.5 L 65.8642578125 15.5 L 65.8642578125 12.5 L 69.8642578125 12.5 L 69.8642578125 16.5 A 4 4 90 0 1 65.8642578125 20.5 L 61.8642578125 20.5 L 18.5 20.5 L 17.5 20.5 L 17.5 22.5 L 9.5 22.5 L 9.5 20.5 L 8.5 20.5 L 4.5 20.5 A 4 4 90 0 1 0.5 16.5 L 0.5 12.5 L 0.5 8.5 z" style="fill:#00a8a8;fill-opacity:1;stroke:#000000;stroke-width:1;stroke-linecap:round;stroke-opacity:1;" /><text style="font-size:10px;fill:#000000;font-family:sans-serif;text-anchor:end"><tspan x="59.697591145833336" y="13.5">set shade</tspan></text><text style="font-size:6.666666666666667px;fill:#000000;font-family:sans-serif;text-anchor:end"><tspan x="59.697591145833336" y="11.25"></tspan></text></g></g><g transform="translate(233.46305338541669, 198.41666666666669)"><g transform="scale(1.5, 1.5)"><path d="m8.5 0.5 L 68.5 0.5 L 68.5 20.5 L 8.5 20.5 L 8.5 12.5 L 8.5 11.5 L 2.5 11.5 L 2.5 14.5 L 0.5 14.5 L 0.5 6.5 L 2.5 6.5 L 2.5 9.5 L 8.5 9.5 L 8.5 8.5 z" style="fill:#ff9db5;fill-opacity:1;stroke:#73003b;stroke-width:1;stroke-linecap:round;stroke-opacity:1;" /><text style="font-size:10px;fill:#000000;font-family:sans-serif;text-anchor:start"><tspan x="13.333333333333334" y="13.833333333333334">50</tspan></text></g></g><g transform="translate(139.91666666666669, 166.91666666666669)"><g transform="scale(1.5, 1.5)"><path d="m0.5 8.5 L 0.5 4.5 A 4 4 90 0 1 4.5 0.5 L 8.5 0.5 L 8.5 2.5 L 18.5 2.5 L 18.5 0.5 L 48.5 0.5 L 52.5 0.5 A 4 4 90 0 1 56.5 4.5 L 56.5 8.5 L 52.5 8.5 L 52.5 5.5 L 48.5 5.5 L 48.5 15.5 L 52.5 15.5 L 52.5 12.5 L 56.5 12.5 L 56.5 16.5 A 4 4 90 0 1 52.5 20.5 L 48.5 20.5 L 18.5 20.5 L 17.5 20.5 L 17.5 22.5 L 9.5 22.5 L 9.5 20.5 L 8.5 20.5 L 4.5 20.5 A 4 4 90 0 1 0.5 16.5 L 0.5 12.5 L 0.5 8.5 z" style="fill:#88e20a;fill-opacity:1;stroke:#004100;stroke-width:1;stroke-linecap:round;stroke-opacity:1;" /><text style="font-size:10px;fill:#000000;font-family:sans-serif;text-anchor:end"><tspan x="46.333333333333336" y="13.5">right</tspan></text><text style="font-size:6.666666666666667px;fill:#000000;font-family:sans-serif;text-anchor:end"><tspan x="46.333333333333336" y="11.25"></tspan></text></g></g><g transform="translate(213.41666666666669, 166.91666666666669)"><g transform="scale(1.5, 1.5)"><path d="m8.5 0.5 L 68.5 0.5 L 68.5 20.5 L 8.5 20.5 L 8.5 12.5 L 8.5 11.5 L 2.5 11.5 L 2.5 14.5 L 0.5 14.5 L 0.5 6.5 L 2.5 6.5 L 2.5 9.5 L 8.5 9.5 L 8.5 8.5 z" style="fill:#ff9db5;fill-opacity:1;stroke:#73003b;stroke-width:1;stroke-linecap:round;stroke-opacity:1;" /><text style="font-size:10px;fill:#000000;font-family:sans-serif;text-anchor:start"><tspan x="13.333333333333334" y="13.833333333333334">1</tspan></text></g></g><g transform="translate(166.91666666666669, 481.9166666666667)"><g transform="scale(1.5, 1.5)"><path d="m0.5 8.5 L 0.5 4.5 A 4 4 90 0 1 4.5 0.5 L 8.5 0.5 L 8.5 2.5 L 18.5 2.5 L 18.5 0.5 L 56.29296875 0.5 L 60.29296875 0.5 A 4 4 90 0 1 64.29296875 4.5 L 64.29296875 8.5 L 60.29296875 8.5 L 60.29296875 5.5 L 56.29296875 5.5 L 56.29296875 15.5 L 60.29296875 15.5 L 60.29296875 12.5 L 64.29296875 12.5 L 64.29296875 16.5 A 4 4 90 0 1 60.29296875 20.5 L 56.29296875 20.5 L 18.5 20.5 L 17.5 20.5 L 17.5 22.5 L 9.5 22.5 L 9.5 20.5 L 8.5 20.5 L 4.5 20.5 A 4 4 90 0 1 0.5 16.5 L 0.5 12.5 L 0.5 8.5 z" style="fill:#00a8a8;fill-opacity:1;stroke:#000000;stroke-width:1;stroke-linecap:round;stroke-opacity:1;" /><text style="font-size:10px;fill:#000000;font-family:sans-serif;text-anchor:end"><tspan x="54.126302083333336" y="13.5">set color</tspan></text><text style="font-size:6.666666666666667px;fill:#000000;font-family:sans-serif;text-anchor:end"><tspan x="54.126302083333336" y="11.25"></tspan></text></g></g><g transform="translate(252.10611979166669, 481.9166666666667)"><g transform="scale(1.5, 1.5)"><path d="m8.5 0.5 L 68.5 0.5 L 68.5 20.5 L 8.5 20.5 L 8.5 12.5 L 8.5 11.5 L 2.5 11.5 L 2.5 14.5 L 0.5 14.5 L 0.5 6.5 L 2.5 6.5 L 2.5 9.5 L 8.5 9.5 L 8.5 8.5 z" style="fill:#ff9db5;fill-opacity:1;stroke:#73003b;stroke-width:1;stroke-linecap:round;stroke-opacity:1;" /><text style="font-size:10px;fill:#000000;font-family:sans-serif;text-anchor:start"><tspan x="13.333333333333334" y="13.833333333333334">20</tspan></text></g></g><g transform="translate(245.43375651041669, 418.9166666666667)"><g transform="scale(1.5, 1.5)"><path d="m8.5 8.5 L 8.5 4.5 A 4 4 90 0 1 12.5 0.5 L 16.5 0.5 L 26.5 0.5 L 56.5 0.5 L 60.5 0.5 A 4 4 90 0 1 64.5 4.5 L 64.5 8.5 L 60.5 8.5 L 60.5 5.5 L 56.5 5.5 L 56.5 15.5 L 60.5 15.5 L 60.5 12.5 L 64.5 12.5 L 64.5 29.5 L 60.5 29.5 L 60.5 26.5 L 56.5 26.5 L 56.5 36.5 L 60.5 36.5 L 60.5 33.5 L 64.5 33.5 L 64.5 37.5 A 4 4 90 0 1 60.5 41.5 L 56.5 41.5 L 26.5 41.5 L 16.5 41.5 L 12.5 41.5 A 4 4 90 0 1 8.5 37.5 L 8.5 33.5 L 8.5 12.5 L 8.5 11.5 L 2.5 11.5 L 2.5 14.5 L 0.5 14.5 L 0.5 6.5 L 2.5 6.5 L 2.5 9.5 L 8.5 9.5 L 8.5 8.5 z" style="fill:#ff9db5;fill-opacity:1;stroke:#73003b;stroke-width:1;stroke-linecap:round;stroke-opacity:1;" /><text style="font-size:14px;fill:#000000;font-family:sans-serif;text-anchor:end"><tspan x="54.333333333333336" y="23.8">/</tspan></text><text style="font-size:9.333333333333334px;fill:#000000;font-family:sans-serif;text-anchor:end"><tspan x="54.333333333333336" y="10.75"></tspan></text><text style="font-size:9.333333333333334px;fill:#000000;font-family:sans-serif;text-anchor:end"><tspan x="54.333333333333336" y="31.75"></tspan></text></g></g><g transform="translate(330.9337565104167, 450.4166666666667)"><g transform="scale(1.5, 1.5)"><path d="m8.5 0.5 L 68.5 0.5 L 68.5 20.5 L 8.5 20.5 L 8.5 12.5 L 8.5 11.5 L 2.5 11.5 L 2.5 14.5 L 0.5 14.5 L 0.5 6.5 L 2.5 6.5 L 2.5 9.5 L 8.5 9.5 L 8.5 8.5 z" style="fill:#ff9db5;fill-opacity:1;stroke:#73003b;stroke-width:1;stroke-linecap:round;stroke-opacity:1;" /><text style="font-size:10px;fill:#000000;font-family:sans-serif;text-anchor:start"><tspan x="13.333333333333334" y="13.833333333333334">2</tspan></text></g></g><g transform="translate(166.91666666666669, 450.4166666666667)"><g transform="scale(1.5, 1.5)"><path d="m0.5 8.5 L 0.5 4.5 A 4 4 90 0 1 4.5 0.5 L 8.5 0.5 L 8.5 2.5 L 18.5 2.5 L 18.5 0.5 L 38.5 0.5 L 42.5 0.5 A 4 4 90 0 1 46.5 4.5 L 46.5 8.5 L 46.5 12.5 L 46.5 16.5 A 4 4 90 0 1 42.5 20.5 L 38.5 20.5 L 18.5 20.5 L 17.5 20.5 L 17.5 22.5 L 9.5 22.5 L 9.5 20.5 L 8.5 20.5 L 4.5 20.5 A 4 4 90 0 1 0.5 16.5 L 0.5 12.5 z" style="fill:#fa644e;fill-opacity:1;stroke:#000000;stroke-width:1;stroke-linecap:round;stroke-opacity:1;" /><text style="font-size:10px;fill:#000000;font-family:sans-serif;text-anchor:end"><tspan x="36.333333333333336" y="13.5">↓</tspan></text></g></g><g transform="translate(245.43375651041669, 513.4166666666666)"><g transform="scale(1.5, 1.5)"><path d="m8.5 8.5 L 8.5 4.5 A 4 4 90 0 1 12.5 0.5 L 16.5 0.5 L 26.5 0.5 L 56.5 0.5 L 60.5 0.5 A 4 4 90 0 1 64.5 4.5 L 64.5 8.5 L 60.5 8.5 L 60.5 5.5 L 56.5 5.5 L 56.5 15.5 L 60.5 15.5 L 60.5 12.5 L 64.5 12.5 L 64.5 29.5 L 60.5 29.5 L 60.5 26.5 L 56.5 26.5 L 56.5 36.5 L 60.5 36.5 L 60.5 33.5 L 64.5 33.5 L 64.5 37.5 A 4 4 90 0 1 60.5 41.5 L 56.5 41.5 L 26.5 41.5 L 16.5 41.5 L 12.5 41.5 A 4 4 90 0 1 8.5 37.5 L 8.5 33.5 L 8.5 12.5 L 8.5 11.5 L 2.5 11.5 L 2.5 14.5 L 0.5 14.5 L 0.5 6.5 L 2.5 6.5 L 2.5 9.5 L 8.5 9.5 L 8.5 8.5 z" style="fill:#ff9db5;fill-opacity:1;stroke:#73003b;stroke-width:1;stroke-linecap:round;stroke-opacity:1;" /><text style="font-size:14px;fill:#000000;font-family:sans-serif;text-anchor:end"><tspan x="54.333333333333336" y="23.8">/</tspan></text><text style="font-size:9.333333333333334px;fill:#000000;font-family:sans-serif;text-anchor:end"><tspan x="54.333333333333336" y="10.75"></tspan></text><text style="font-size:9.333333333333334px;fill:#000000;font-family:sans-serif;text-anchor:end"><tspan x="54.333333333333336" y="31.75"></tspan></text></g></g><g transform="translate(126.41666666666667, 252.83333333333334)"><g transform="scale(1.5, 1.5)"><path d="m8.5 0.5 L 68.5 0.5 L 68.5 20.5 L 8.5 20.5 L 8.5 12.5 L 8.5 11.5 L 2.5 11.5 L 2.5 14.5 L 0.5 14.5 L 0.5 6.5 L 2.5 6.5 L 2.5 9.5 L 8.5 9.5 L 8.5 8.5 z" style="fill:#ff9db5;fill-opacity:1;stroke:#73003b;stroke-width:1;stroke-linecap:round;stroke-opacity:1;" /><text style="font-size:10px;fill:#000000;font-family:sans-serif;text-anchor:start"><tspan x="13.333333333333334" y="13.833333333333334">100</tspan></text></g></g><g transform="translate(330.9337565104167, 544.9166666666666)"><g transform="scale(1.5, 1.5)"><path d="m8.5 0.5 L 68.5 0.5 L 68.5 20.5 L 8.5 20.5 L 8.5 12.5 L 8.5 11.5 L 2.5 11.5 L 2.5 14.5 L 0.5 14.5 L 0.5 6.5 L 2.5 6.5 L 2.5 9.5 L 8.5 9.5 L 8.5 8.5 z" style="fill:#ff9db5;fill-opacity:1;stroke:#73003b;stroke-width:1;stroke-linecap:round;stroke-opacity:1;" /><text style="font-size:10px;fill:#000000;font-family:sans-serif;text-anchor:start"><tspan x="13.333333333333334" y="13.833333333333334">2</tspan></text></g></g><g transform="translate(330.9337565104167, 513.4166666666666)"><g transform="scale(1.5, 1.5)"><path d="m8.5 0.5 L 88.5 0.5 L 88.5 20.5 L 8.5 20.5 L 8.5 12.5 L 8.5 11.5 L 2.5 11.5 L 2.5 14.5 L 0.5 14.5 L 0.5 6.5 L 2.5 6.5 L 2.5 9.5 L 8.5 9.5 L 8.5 8.5 z" style="fill:#ff8000;fill-opacity:1;stroke:#520000;stroke-width:1;stroke-linecap:round;stroke-opacity:1;" /><text style="font-size:10px;fill:#000000;font-family:sans-serif;text-anchor:start"><tspan x="13.333333333333334" y="13.833333333333334">my box</tspan></text></g></g><g transform="translate(166.91666666666669, 544.9166666666666)"><g transform="scale(1.5, 1.5)"><path d="m0.5 8.5 L 0.5 4.5 A 4 4 90 0 1 4.5 0.5 L 8.5 0.5 L 8.5 2.5 L 18.5 2.5 L 18.5 0.5 L 38.5 0.5 L 42.5 0.5 A 4 4 90 0 1 46.5 4.5 L 46.5 8.5 L 46.5 12.5 L 46.5 16.5 A 4 4 90 0 1 42.5 20.5 L 38.5 20.5 L 18.5 20.5 L 17.5 20.5 L 17.5 22.5 L 9.5 22.5 L 9.5 20.5 L 8.5 20.5 L 4.5 20.5 A 4 4 90 0 1 0.5 16.5 L 0.5 12.5 z" style="fill:#fa644e;fill-opacity:1;stroke:#000000;stroke-width:1;stroke-linecap:round;stroke-opacity:1;" /><text style="font-size:10px;fill:#000000;font-family:sans-serif;text-anchor:end"><tspan x="36.333333333333336" y="13.5">↓</tspan></text></g></g><g transform="translate(166.91666666666669, 355.9166666666667)"><g transform="scale(1.5, 1.5)"><path d="m0.5 8.5 L 0.5 4.5 A 4 4 90 0 1 4.5 0.5 L 8.5 0.5 L 8.5 2.5 L 18.5 2.5 L 18.5 0.5 L 61.869140625 0.5 L 65.869140625 0.5 A 4 4 90 0 1 69.869140625 4.5 L 69.869140625 8.5 L 69.869140625 12.5 L 69.869140625 16.5 A 4 4 90 0 1 65.869140625 20.5 L 61.869140625 20.5 L 18.5 20.5 L 17.5 20.5 L 17.5 22.5 L 9.5 22.5 L 9.5 20.5 L 8.5 20.5 L 4.5 20.5 A 4 4 90 0 1 0.5 16.5 L 0.5 12.5 z" style="fill:#00a8a8;fill-opacity:1;stroke:#000000;stroke-width:1;stroke-linecap:round;stroke-opacity:1;" /><text style="font-size:10px;fill:#000000;font-family:sans-serif;text-anchor:end"><tspan x="59.702473958333336" y="13.5">pen down</tspan></text></g></g><g transform="translate(166.91666666666669, 576.4166666666666)"><g transform="scale(1.5, 1.5)"><path d="m0.5 8.5 L 0.5 4.5 A 4 4 90 0 1 4.5 0.5 L 8.5 0.5 L 8.5 2.5 L 18.5 2.5 L 18.5 0.5 L 49.0859375 0.5 L 53.0859375 0.5 A 4 4 90 0 1 57.0859375 4.5 L 57.0859375 8.5 L 57.0859375 12.5 L 57.0859375 16.5 A 4 4 90 0 1 53.0859375 20.5 L 49.0859375 20.5 L 18.5 20.5 L 17.5 20.5 L 17.5 22.5 L 9.5 22.5 L 9.5 20.5 L 8.5 20.5 L 4.5 20.5 A 4 4 90 0 1 0.5 16.5 L 0.5 12.5 z" style="fill:#00a8a8;fill-opacity:1;stroke:#000000;stroke-width:1;stroke-linecap:round;stroke-opacity:1;" /><text style="font-size:10px;fill:#000000;font-family:sans-serif;text-anchor:end"><tspan x="46.919270833333336" y="13.5">pen up</tspan></text></g></g><g transform="translate(166.91666666666669, 639.4166666666666)"><g transform="scale(1.5, 1.5)"><path d="m0.5 8.5 L 0.5 4.5 A 4 4 90 0 1 4.5 0.5 L 8.5 0.5 L 8.5 2.5 L 18.5 2.5 L 18.5 0.5 L 61.869140625 0.5 L 65.869140625 0.5 A 4 4 90 0 1 69.869140625 4.5 L 69.869140625 8.5 L 69.869140625 12.5 L 69.869140625 16.5 A 4 4 90 0 1 65.869140625 20.5 L 61.869140625 20.5 L 18.5 20.5 L 17.5 20.5 L 17.5 22.5 L 9.5 22.5 L 9.5 20.5 L 8.5 20.5 L 4.5 20.5 A 4 4 90 0 1 0.5 16.5 L 0.5 12.5 z" style="fill:#00a8a8;fill-opacity:1;stroke:#000000;stroke-width:1;stroke-linecap:round;stroke-opacity:1;" /><text style="font-size:10px;fill:#000000;font-family:sans-serif;text-anchor:end"><tspan x="59.702473958333336" y="13.5">pen down</tspan></text></g></g></svg>